<svg width="899" height="326" viewBox="0 0 899 326" fill="none" xmlns="http://www.w3.org/2000/svg">
<path d="M832.161 301.934H808.258V169.571H823.679V210.483H833.018C846.726 210.483 855.379 228.44 855.379 255.653C855.379 284.717 846.383 301.934 832.161 301.934ZM875.94 301.934H860.519V169.571H875.94V301.934ZM823.679 237.696V274.721H831.733C836.616 274.721 839.615 268.056 839.615 255.653C839.615 245.286 836.873 237.696 832.504 237.696H823.679Z" fill="black"/>
<path d="M760.059 326H746.352V274.906H750.807C755.69 274.906 756.975 265.465 757.575 241.584L759.288 169.571H802.982V274.906H809.408V326H795.7V302.119H760.059V326ZM767.77 274.536V274.906H787.561V196.784H772.996L771.283 249.174C770.854 262.133 769.741 269.352 767.77 274.536Z" fill="black"/>
<path d="M712.882 301.934H697.461V169.571H712.882V221.406H733.872V169.571H749.294V301.934H733.872V248.619H712.882V301.934Z" fill="black"/>
<path d="M655.668 301.934H639.133L662.436 169.571H677.943L701.418 301.934H684.54L680.599 274.351H659.609L655.668 301.934ZM670.061 200.117L663.122 248.989H677.172L670.233 200.117H670.061Z" fill="black"/>
<path d="M594.459 301.934H579.895V169.571H598.743L611.337 253.987H611.508L624.102 169.571H642.951V301.934H628.386V219.554H628.215L616.82 301.934H606.025L594.631 219.554H594.459V301.934Z" fill="black"/>
<path d="M550.458 304.897C531.01 304.897 520.129 275.647 520.129 235.661C520.129 195.86 531.01 166.61 550.458 166.61C569.734 166.61 580.786 195.86 580.786 235.661C580.786 275.647 569.734 304.897 550.458 304.897ZM550.458 277.684C561.595 277.684 565.022 258.801 565.022 235.661C565.022 212.706 561.595 193.823 550.458 193.823C539.234 193.823 535.893 212.706 535.893 235.661C535.893 258.801 539.234 277.684 550.458 277.684Z" fill="black"/>
<path d="M530.588 169.571L506.171 234.92L532.13 301.934H512.767L493.748 251.766H489.378V301.934H473.957V169.571H489.378V224.553H493.748L513.967 169.571H530.588Z" fill="black"/>
<path d="M437.003 159.76C429.207 159.76 423.552 148.837 423.295 131.621H431.177C431.434 137.73 433.319 141.618 437.003 141.618C440.687 141.618 442.572 137.73 442.829 131.621H450.711C450.368 148.282 444.971 159.76 437.003 159.76ZM425.523 301.934H410.102V169.571H425.523V251.766H425.694L449.083 169.571H464.505V301.934H449.083V219.739H448.912L425.523 301.934Z" fill="black"/>
<path d="M410.649 301.934H363.699V169.571H410.135V196.784H379.121V220.295H405.851V247.508H379.121V274.721H410.649V301.934Z" fill="black"/>
<path d="M362.011 301.934H289.188V169.571H304.609V274.721H317.888V169.571H333.31V274.721H346.589V169.571H362.011V301.934Z" fill="black"/>
<path d="M247.394 301.934H230.859L254.163 169.571H269.67L293.145 301.934H276.267L272.326 274.351H251.336L247.394 301.934ZM261.788 200.117L254.848 248.989H268.899L261.959 200.117H261.788Z" fill="black"/>
<path d="M198.335 301.934H182.914V169.571H198.335V221.406H219.326V169.571H234.747V301.934H219.326V248.619H198.335V301.934Z" fill="black"/>
<path d="M137.518 301.934H120.641V300.823C123.896 288.05 123.211 248.804 137.004 243.065V242.695C128.094 238.067 124.068 225.849 124.068 207.521C124.068 185.862 132.292 169.571 145.4 169.571H173.416V301.934H157.995V255.838H150.712C137.775 255.838 139.318 291.382 137.518 301.934ZM147.2 230.477H157.995V196.784H146.086C142.231 196.784 139.832 203.819 139.832 212.52C139.832 223.442 142.316 230.477 147.2 230.477Z" fill="black"/>
<path d="M76.3557 304.711C73.0144 304.711 68.8164 303.97 67.5312 302.489V273.98C68.7307 274.906 70.6155 275.832 72.9287 275.832C76.013 275.832 77.5551 271.389 77.8122 261.207L80.4681 169.571H122.962V301.934H107.541V196.784H93.8332L91.8627 265.094C91.006 296.01 84.1521 304.711 76.3557 304.711Z" fill="black"/>
<path d="M23.8798 326H10.1719V274.906H14.6269C19.5104 274.906 20.7955 265.465 21.3952 241.584L23.1087 169.571H66.8026V274.906H73.2281V326H59.5202V302.119H23.8798V326ZM31.5904 274.536V274.906H51.3812V196.784H36.8166L35.1031 249.174C34.6747 262.133 33.5609 269.352 31.5904 274.536Z" fill="black"/>
<path d="M899 135.324H852.051V2.96094H898.486V30.174H867.472V53.6845H894.202V80.8975H867.472V108.111H899V135.324Z" fill="black"/>
<path d="M811.367 135.324H795.945V2.96094H811.367V85.1553H811.538L834.927 2.96094H850.348V135.324H834.927V53.1291H834.756L811.367 135.324Z" fill="black"/>
<path d="M757.855 135.324H742.434V2.96094H757.855V54.7952H778.845V2.96094H794.267V135.324H778.845V82.0083H757.855V135.324Z" fill="black"/>
<path d="M742.981 135.324H696.031V2.96094H742.467V30.174H711.453V53.6845H738.183V80.8975H711.453V108.111H742.981V135.324Z" fill="black"/>
<path d="M697.263 159.575H683.555V135.324H617.586V2.96094H633.007V108.111H646.287V2.96094H661.708V108.111H674.988V2.96094H690.409V108.111H697.263V159.575Z" fill="black"/>
<path d="M596.361 135.324H571.602V2.96094H613.239V30.174H587.023V49.4267H597.218C611.783 49.4267 619.579 66.2728 619.579 91.4495C619.579 119.033 611.44 135.324 596.361 135.324ZM587.023 76.6397V108.111H595.933C601.074 108.111 603.815 102.372 603.815 91.4495C603.815 83.119 601.416 76.6397 596.704 76.6397H587.023Z" fill="black"/>
<path d="M542.165 138.286C522.717 138.286 511.836 109.037 511.836 69.0507C511.836 29.2494 522.717 0 542.165 0C561.441 0 572.493 29.2494 572.493 69.0507C572.493 109.037 561.441 138.286 542.165 138.286ZM542.165 111.074C553.302 111.074 556.729 92.191 556.729 69.0507C556.729 46.0955 553.302 27.213 542.165 27.213C530.941 27.213 527.6 46.0955 527.6 69.0507C527.6 92.191 530.941 111.074 542.165 111.074Z" fill="black"/>
<path d="M484.969 138.286C465.521 138.286 454.641 109.037 454.641 69.0507C454.641 29.2494 465.521 0 484.969 0C504.246 0 515.298 29.2494 515.298 69.0507C515.298 109.037 504.246 138.286 484.969 138.286ZM484.969 111.074C496.107 111.074 499.534 92.191 499.534 69.0507C499.534 46.0955 496.107 27.213 484.969 27.213C473.746 27.213 470.405 46.0955 470.405 69.0507C470.405 92.191 473.746 111.074 484.969 111.074Z" fill="black"/>
<path d="M431.265 138.286C411.817 138.286 401.965 109.037 401.965 69.6061C401.965 29.0642 412.331 0 431.694 0C448.4 0 457.31 21.4742 458.767 52.2045H443.003C441.889 37.765 439.147 27.213 431.008 27.213C420.813 27.213 417.729 44.2443 417.729 69.0507C417.729 94.0422 420.813 111.074 431.008 111.074C439.233 111.074 441.975 100.522 443.003 85.7117H458.767C457.396 116.072 448.143 138.286 431.265 138.286Z" fill="black"/>
<path d="M377.765 135.324H352.148V2.96094H367.57V43.873H378.622C392.33 43.873 400.983 61.8299 400.983 89.0429C400.983 118.107 391.987 135.324 377.765 135.324ZM367.57 71.086V108.111H377.337C382.22 108.111 385.219 101.446 385.219 89.0429C385.219 78.676 382.477 71.086 378.108 71.086H367.57Z" fill="black"/>
<path d="M336.554 135.324H321.133V30.174H303.312V2.96094H354.289V30.174H336.554V135.324Z" fill="black"/>
<path d="M266.48 135.324H251.059V2.96094H266.48V85.1553H266.651L290.04 2.96094H305.462V135.324H290.04V53.1291H289.869L266.48 135.324Z" fill="black"/>
<path d="M231.062 135.324H200.477V2.96094H230.206C242.971 2.96094 249.654 13.6981 249.654 36.283C249.654 52.5738 245.199 60.7192 240.144 64.4216V64.7919C246.569 67.1984 252.052 76.4546 252.052 96.2627C252.052 124.401 243.742 135.324 231.062 135.324ZM215.898 56.4613H226.179C230.463 56.4613 233.89 54.2399 233.89 43.3176C233.89 32.3954 230.463 30.174 226.179 30.174H215.898V56.4613ZM215.898 108.111H226.607C233.033 108.111 236.288 104.778 236.288 92.3751C236.288 79.9719 233.033 76.8248 226.607 76.8248H215.898V108.111Z" fill="black"/>
<path d="M158.68 135.324H142.145L165.448 2.96094H180.955L204.43 135.324H187.552L183.611 107.74H162.621L158.68 135.324ZM173.073 33.5062L166.133 82.3785H180.184L173.244 33.5062H173.073Z" fill="black"/>
<path d="M139.406 135.324H123.984V30.174H106.164V2.96094H157.14V30.174H139.406V135.324Z" fill="black"/>
<path d="M86.4959 138.286C67.0478 138.286 57.1953 109.037 57.1953 69.6061C57.1953 29.0642 67.5619 0 86.9243 0C103.631 0 112.541 21.4742 113.997 52.2045H98.2333C97.1195 37.765 94.3779 27.213 86.2389 27.213C76.0437 27.213 72.9594 44.2443 72.9594 69.0507C72.9594 94.0422 76.0437 111.074 86.2389 111.074C94.4636 111.074 97.2052 100.522 98.2333 85.7117H113.997C112.627 116.072 103.374 138.286 86.4959 138.286Z" fill="black"/>
<path d="M30.3287 138.286C10.8806 138.286 0 109.037 0 69.0507C0 29.2494 10.8806 0 30.3287 0C49.6054 0 60.6574 29.2494 60.6574 69.0507C60.6574 109.037 49.6054 138.286 30.3287 138.286ZM30.3287 111.074C41.4663 111.074 44.8933 92.191 44.8933 69.0507C44.8933 46.0955 41.4663 27.213 30.3287 27.213C19.1054 27.213 15.7641 46.0955 15.7641 69.0507C15.7641 92.191 19.1054 111.074 30.3287 111.074Z" fill="black"/>
</svg>

