<svg width="256" height="95" viewBox="0 0 256 95" fill="none" xmlns="http://www.w3.org/2000/svg">
<path d="M229.23 93.048H216.645V92.2671C219.072 83.2877 218.561 55.6986 228.847 51.6644V51.4041C222.203 48.1507 219.2 39.5616 219.2 26.6781C219.2 11.4521 225.333 0 235.108 0H255.999V93.048H244.499V60.6438H239.069C229.422 60.6438 230.572 85.6301 229.23 93.048ZM236.45 42.8151H244.499V19.1301H235.619C232.744 19.1301 230.955 24.0753 230.955 30.1918C230.955 37.8699 232.808 42.8151 236.45 42.8151Z" fill="black"/>
<path d="M188.486 93.048H176.156L193.534 0H205.097L222.602 93.048H210.016L207.078 73.6575H191.425L188.486 93.048ZM199.22 21.4726L194.045 55.8288H204.522L199.347 21.4726H199.22Z" fill="black"/>
<path d="M151.902 93.048H140.402V0H151.902V36.4384H167.554V0H179.054V93.048H167.554V55.5685H151.902V93.048Z" fill="black"/>
<path d="M125.487 93.048H102.68V0H124.849C134.368 0 139.351 7.54795 139.351 23.4247C139.351 34.8767 136.029 40.6027 132.259 43.2055V43.4658C137.051 45.1575 141.14 51.6644 141.14 65.589C141.14 85.3699 134.943 93.048 125.487 93.048ZM114.179 37.6096H121.846C125.04 37.6096 127.596 36.0479 127.596 28.3699C127.596 20.6918 125.04 19.1301 121.846 19.1301H114.179V37.6096ZM114.179 73.9178H122.165C126.957 73.9178 129.385 71.5753 129.385 62.8562C129.385 54.137 126.957 51.9247 122.165 51.9247H114.179V73.9178Z" fill="black"/>
<path d="M71.5177 93.048H59.1875L76.5648 0H88.1284L105.633 93.048H93.0477L90.1089 73.6575H74.4565L71.5177 93.048ZM82.2508 21.4726L77.0759 55.8288H87.5534L82.3785 21.4726H82.2508Z" fill="black"/>
<path d="M27.3108 95C24.8192 95 21.6888 94.4795 20.7305 93.4384V73.3973C21.6249 74.048 23.0304 74.6986 24.7554 74.6986C27.0553 74.6986 28.2053 71.5753 28.3969 64.4178L30.3774 0H62.0655V93.048H50.5658V19.1301H40.3438L38.8744 67.1507C38.2356 88.8836 33.1246 95 27.3108 95Z" fill="black"/>
<path d="M11.4997 93.048H0V0H29.7714V19.1301H11.4997V93.048Z" fill="black"/>
</svg>

