<svg width="62" height="16" viewBox="0 0 62 16" fill="none" xmlns="http://www.w3.org/2000/svg">
<path d="M1.184 2.832H8.416V14H6.624V4.336H2.976V14H1.184V2.832ZM9.97775 14V2.832H14.1538C15.2204 2.832 16.0311 3.13067 16.5858 3.728C17.1511 4.32533 17.4338 5.14667 17.4338 6.192C17.4338 7.23733 17.1511 8.05867 16.5858 8.656C16.0311 9.25333 15.2204 9.552 14.1538 9.552H11.7698V14H9.97775ZM11.7698 8.064H13.8818C14.9911 8.064 15.5458 7.552 15.5458 6.528V5.84C15.5458 4.82667 14.9911 4.32 13.8818 4.32H11.7698V8.064ZM22.0675 14.192C21.3635 14.192 20.7502 14.064 20.2275 13.808C19.7155 13.5413 19.2888 13.1627 18.9475 12.672C18.6168 12.1813 18.3715 11.5787 18.2115 10.864C18.0515 10.1493 17.9715 9.33333 17.9715 8.416C17.9715 7.50933 18.0515 6.69867 18.2115 5.984C18.3715 5.25867 18.6168 4.65067 18.9475 4.16C19.2888 3.66933 19.7155 3.296 20.2275 3.04C20.7502 2.77333 21.3635 2.64 22.0675 2.64C22.7715 2.64 23.3795 2.77333 23.8915 3.04C24.4142 3.296 24.8408 3.66933 25.1715 4.16C25.5128 4.65067 25.7635 5.25867 25.9235 5.984C26.0835 6.69867 26.1635 7.50933 26.1635 8.416C26.1635 9.33333 26.0835 10.1493 25.9235 10.864C25.7635 11.5787 25.5128 12.1813 25.1715 12.672C24.8408 13.1627 24.4142 13.5413 23.8915 13.808C23.3795 14.064 22.7715 14.192 22.0675 14.192ZM22.0675 12.704C22.8675 12.704 23.4328 12.4053 23.7635 11.808C24.0942 11.2 24.2595 10.3787 24.2595 9.344V7.472C24.2595 6.448 24.0942 5.63733 23.7635 5.04C23.4328 4.432 22.8675 4.128 22.0675 4.128C21.2675 4.128 20.7022 4.432 20.3715 5.04C20.0408 5.63733 19.8755 6.448 19.8755 7.472V9.36C19.8755 10.384 20.0408 11.2 20.3715 11.808C20.7022 12.4053 21.2675 12.704 22.0675 12.704ZM27.2773 14V2.832H34.2693V4.336H29.0693V7.584H34.0773V9.088H29.0693V12.496H34.2693V14H27.2773ZM35.687 2.832H37.479V7.6H39.207L41.335 2.832H43.175L41.287 7.056C41.1057 7.46133 40.9243 7.74933 40.743 7.92C40.5723 8.09067 40.3697 8.19733 40.135 8.24V8.336C40.4017 8.38933 40.615 8.50133 40.775 8.672C40.9457 8.84267 41.1217 9.14667 41.303 9.584L42.551 12.496H43.527V14H42.439C42.0443 14 41.7137 13.8987 41.447 13.696C41.1803 13.4933 40.9403 13.152 40.727 12.672L39.191 9.104H37.479V14H35.687V2.832ZM48.8648 4.336V14H47.0728V4.336H43.5688V2.832H52.3688V4.336H48.8648ZM52.4265 2.832H54.0585V7.12H55.0025C55.9945 7.12 56.7625 7.424 57.3065 8.032C57.8505 8.62933 58.1225 9.472 58.1225 10.56C58.1225 11.648 57.8505 12.496 57.3065 13.104C56.7625 13.7013 55.9945 14 55.0025 14H52.4265V2.832ZM54.8585 12.56C55.3492 12.56 55.7332 12.4373 56.0105 12.192C56.2878 11.9467 56.4265 11.5627 56.4265 11.04V10.08C56.4265 9.55733 56.2878 9.17333 56.0105 8.928C55.7332 8.68267 55.3492 8.56 54.8585 8.56H54.0585V12.56H54.8585ZM59.1465 14V2.832H60.7785V14H59.1465Z" fill="white"/>
</svg>

