<svg width="165" height="65" viewBox="0 0 165 65" fill="none" xmlns="http://www.w3.org/2000/svg">
<path d="M147.623 63.6101H138.136V1.39453H144.257V20.6248H147.963C153.404 20.6248 156.839 29.0652 156.839 41.8564C156.839 55.5177 153.268 63.6101 147.623 63.6101ZM165 63.6101H158.879V1.39453H165V63.6101ZM144.257 33.4159V50.8189H147.453C149.392 50.8189 150.582 47.6864 150.582 41.8564C150.582 36.9836 149.494 33.4159 147.759 33.4159H144.257Z" fill="black"/>
<path d="M131.93 63.6101H125.809V14.1857H118.736V1.39453H138.969V14.1857H131.93V63.6101Z" fill="black"/>
<path d="M121.683 1.39453L111.991 32.1107L122.295 63.6101H114.609L107.06 40.0291H105.326V63.6101H99.2051V1.39453H105.326V27.2379H107.06L115.086 1.39453H121.683Z" fill="black"/>
<path d="M82.6109 63.6101H76.0479L85.2973 1.39453H91.4523L100.77 63.6101H94.0707L92.5064 50.6449H84.1751L82.6109 63.6101ZM88.3238 15.752L85.5693 38.7238H91.1462L88.3918 15.752H88.3238Z" fill="black"/>
<path d="M74.9685 63.6101H68.8475V14.1857H61.7744V1.39453H82.0076V14.1857H74.9685V63.6101Z" fill="black"/>
<path d="M48.1766 63.6101H42.0557V1.39453H48.1766V25.7587H56.5079V1.39453H62.6289V63.6101H56.5079V38.5498H48.1766V63.6101Z" fill="black"/>
<path d="M30.3738 65C22.6546 65 18.3359 51.2517 18.3359 32.4565C18.3359 13.7483 22.6546 0 30.3738 0C38.025 0 42.4117 13.7483 42.4117 32.4565C42.4117 51.2517 38.025 65 30.3738 65ZM30.3738 52.2088C34.7945 52.2088 36.1547 43.3333 36.1547 32.4565C36.1547 21.6667 34.7945 12.7912 30.3738 12.7912C25.9191 12.7912 24.5929 21.6667 24.5929 32.4565C24.5929 43.3333 25.9191 52.2088 30.3738 52.2088Z" fill="black"/>
<path d="M22.4775 1.39453L12.786 32.1107L23.0896 63.6101H15.4044L7.85523 40.0291H6.12096V63.6101H0V1.39453H6.12096V27.2379H7.85523L15.8805 1.39453H22.4775Z" fill="black"/>
</svg>

