<svg width="878" height="335" viewBox="0 0 878 335" fill="none" xmlns="http://www.w3.org/2000/svg">
<path d="M777.972 331.534H762.398V298.619H777.972V331.534Z" fill="black"/>
<path d="M718.301 331.535H699.859V176.703H718.301L743.915 268.736H744.12V176.703H762.562V331.535H744.12L718.506 239.502H718.301V331.535Z" fill="black"/>
<path d="M664.66 335C641.403 335 628.391 300.785 628.391 254.011C628.391 207.453 641.403 173.238 664.66 173.238C687.713 173.238 700.929 207.453 700.929 254.011C700.929 300.785 687.713 335 664.66 335ZM664.66 303.167C677.979 303.167 682.077 281.079 682.077 254.011C682.077 227.159 677.979 205.071 664.66 205.071C651.238 205.071 647.243 227.159 647.243 254.011C647.243 281.079 651.238 303.167 664.66 303.167Z" fill="black"/>
<path d="M596.262 335C573.004 335 559.992 300.785 559.992 254.011C559.992 207.453 573.004 173.238 596.262 173.238C619.314 173.238 632.531 207.453 632.531 254.011C632.531 300.785 619.314 335 596.262 335ZM596.262 303.167C609.581 303.167 613.679 281.079 613.679 254.011C613.679 227.159 609.581 205.071 596.262 205.071C582.84 205.071 578.844 227.159 578.844 254.011C578.844 281.079 582.84 303.167 596.262 303.167Z" fill="black"/>
<path d="M535.48 335C516.321 335 501.875 314.428 501.875 278.914H520.522C520.522 296.887 526.977 303.6 535.276 303.6C542.14 303.6 545.624 297.753 545.624 289.741C545.624 276.532 538.349 273.067 528.206 266.571C515.502 258.342 504.129 247.947 504.129 220.229C504.129 186.448 516.629 173.238 532.407 173.238C549.517 173.238 562.939 192.295 563.451 223.694H544.804C543.984 211.784 539.476 204.638 532.407 204.638C526.874 204.638 522.981 208.536 522.981 217.414C522.981 227.808 527.079 231.273 536.403 237.12C550.234 245.782 564.475 254.011 564.475 286.06C564.475 315.727 553.82 335 535.48 335Z" fill="black"/>
<path d="M464.634 335C442.504 335 434 314.211 434 275.666V176.703H452.442V275.666C452.442 295.805 456.54 303.167 464.634 303.167C472.728 303.167 476.827 295.805 476.827 275.666V176.703H495.269V275.666C495.269 314.211 486.765 335 464.634 335Z" fill="black"/>
<path d="M399.414 335C376.156 335 363.145 300.785 363.145 254.011C363.145 207.453 376.156 173.238 399.414 173.238C422.466 173.238 435.683 207.453 435.683 254.011C435.683 300.785 422.466 335 399.414 335ZM399.414 303.167C412.733 303.167 416.831 281.079 416.831 254.011C416.831 227.159 412.733 205.071 399.414 205.071C385.992 205.071 381.996 227.159 381.996 254.011C381.996 281.079 385.992 303.167 399.414 303.167Z" fill="black"/>
<path d="M350.723 331.535H332.28V274.366L307.281 176.703H327.158L341.399 242.534H341.604L355.948 176.703H375.414L350.723 274.366V331.535Z" fill="black"/>
<path d="M291.222 331.535H272.78V208.536H251.469V176.703H312.43V208.536H291.222V331.535Z" fill="black"/>
<path d="M212.21 331.535H191.719L216.001 252.495L193.768 176.703H213.234L226.656 223.911H226.861L240.385 176.703H259.852L237.619 252.062L261.901 331.535H241.41L226.861 281.296H226.656L212.21 331.535Z" fill="black"/>
<path d="M199.439 331.535H143.293V176.703H198.824V208.536H161.735V236.037H193.701V267.87H161.735V299.702H199.439V331.535Z" fill="black"/>
<path d="M124.647 331.535H106.205V208.536H84.8945V176.703H145.856V208.536H124.647V331.535Z" fill="black"/>
<path d="M878 158.297H826.977V3.46484H845.419V126.464H878V158.297Z" fill="black"/>
<path d="M829.515 158.297H778.492V3.46484H796.934V126.464H829.515V158.297Z" fill="black"/>
<path d="M776.462 158.297H758.02V3.46484H776.462V158.297Z" fill="black"/>
<path d="M702.073 158.297H683.631L664.984 3.46484H683.426L692.852 108.491H693.057L704.43 3.46484H721.847L733.22 108.491H733.425L742.851 3.46484H761.293L742.646 158.297H724.204L713.241 61.7163H713.036L702.073 158.297Z" fill="black"/>
<path d="M664.204 158.297H608.059V3.46484H663.59V35.2974H626.501V62.799H658.467V94.6316H626.501V126.464H664.204V158.297Z" fill="black"/>
<path d="M552.112 158.297H533.67L515.023 3.46484H533.465L542.891 108.491H543.096L554.469 3.46484H571.886L583.259 108.491H583.464L592.89 3.46484H611.332L592.685 158.297H574.243L563.28 61.7163H563.075L552.112 158.297Z" fill="black"/>
<path d="M508.877 107.625H500.681L496.07 37.2464V3.46484H513.488V37.2464L508.877 107.625ZM512.668 158.297H497.095V125.381H512.668V158.297Z" fill="black"/>
<path d="M465.943 161.762C443.812 161.762 435.309 140.973 435.309 102.427V3.46484H453.751V102.427C453.751 122.566 457.849 129.929 465.943 129.929C474.037 129.929 478.135 122.566 478.135 102.427V3.46484H496.577V102.427C496.577 140.973 488.073 161.762 465.943 161.762Z" fill="black"/>
<path d="M400.726 161.761C377.469 161.761 364.457 127.547 364.457 80.7725C364.457 34.2146 377.469 0 400.726 0C423.779 0 436.996 34.2146 436.996 80.7725C436.996 127.547 423.779 161.761 400.726 161.761ZM400.726 129.929C414.046 129.929 418.144 107.841 418.144 80.7725C418.144 53.9205 414.046 31.8326 400.726 31.8326C387.305 31.8326 383.309 53.9205 383.309 80.7725C383.309 107.841 387.305 129.929 400.726 129.929Z" fill="black"/>
<path d="M352.031 158.297H333.589V101.128L308.59 3.46484H328.466L342.708 69.2955H342.913L357.256 3.46484H376.723L352.031 101.128V158.297Z" fill="black"/>
<path d="M316.775 158.297H295.259L276.305 97.8798L268.723 116.503V158.297H250.281V3.46484H268.723V69.512L294.952 3.46484H314.726L287.165 71.2444L316.775 158.297Z" fill="black"/>
<path d="M203.93 158.297H185.488V3.46484H203.93L229.544 95.4978H229.749V3.46484H248.191V158.297H229.749L204.135 66.2638H203.93V158.297Z" fill="black"/>
<path d="M135.508 158.297H115.734L143.602 3.46484H162.147L190.22 158.297H170.036L165.323 126.031H140.221L135.508 158.297ZM152.721 39.1953L144.422 96.364H161.225L152.926 39.1953H152.721Z" fill="black"/>
<path d="M76.8405 158.297H58.3984V3.46484H76.8405V64.0983H101.942V3.46484H120.384V158.297H101.942V95.9309H76.8405V158.297Z" fill="black"/>
<path d="M39.7528 158.297H21.3108V35.2974H0V3.46484H60.9612V35.2974H39.7528V158.297Z" fill="black"/>
</svg>

