<svg width="71" height="16" viewBox="0 0 71 16" fill="none" xmlns="http://www.w3.org/2000/svg">
<path d="M1.152 2.832H2.944V7.6H4.672L6.8 2.832H8.64L6.752 7.056C6.57067 7.46133 6.38933 7.74933 6.208 7.92C6.03733 8.09067 5.83467 8.19733 5.6 8.24V8.336C5.86667 8.38933 6.08 8.50133 6.24 8.672C6.41067 8.84267 6.58667 9.14667 6.768 9.584L8.016 12.496H8.992V14H7.904C7.50933 14 7.17867 13.8987 6.912 13.696C6.64533 13.4933 6.40533 13.152 6.192 12.672L4.656 9.104H2.944V14H1.152V2.832ZM13.4338 14.192C12.7298 14.192 12.1164 14.064 11.5938 13.808C11.0818 13.5413 10.6551 13.1627 10.3138 12.672C9.98308 12.1813 9.73775 11.5787 9.57775 10.864C9.41775 10.1493 9.33775 9.33333 9.33775 8.416C9.33775 7.50933 9.41775 6.69867 9.57775 5.984C9.73775 5.25867 9.98308 4.65067 10.3138 4.16C10.6551 3.66933 11.0818 3.296 11.5938 3.04C12.1164 2.77333 12.7298 2.64 13.4338 2.64C14.1378 2.64 14.7458 2.77333 15.2578 3.04C15.7804 3.296 16.2071 3.66933 16.5378 4.16C16.8791 4.65067 17.1298 5.25867 17.2898 5.984C17.4498 6.69867 17.5298 7.50933 17.5298 8.416C17.5298 9.33333 17.4498 10.1493 17.2898 10.864C17.1298 11.5787 16.8791 12.1813 16.5378 12.672C16.2071 13.1627 15.7804 13.5413 15.2578 13.808C14.7458 14.064 14.1378 14.192 13.4338 14.192ZM13.4338 12.704C14.2338 12.704 14.7991 12.4053 15.1298 11.808C15.4604 11.2 15.6258 10.3787 15.6258 9.344V7.472C15.6258 6.448 15.4604 5.63733 15.1298 5.04C14.7991 4.432 14.2338 4.128 13.4338 4.128C12.6338 4.128 12.0684 4.432 11.7378 5.04C11.4071 5.63733 11.2418 6.448 11.2418 7.472V9.36C11.2418 10.384 11.4071 11.2 11.7378 11.808C12.0684 12.4053 12.6338 12.704 13.4338 12.704ZM23.9235 9.088H20.2115V14H18.4195V2.832H20.2115V7.584H23.9235V2.832H25.7155V14H23.9235V9.088ZM31.5973 4.336V14H29.8053V4.336H26.3013V2.832H35.1013V4.336H31.5973ZM41.927 14L41.079 11.024H37.527L36.679 14H34.855L38.119 2.832H40.567L43.831 14H41.927ZM39.367 4.64H39.239L37.863 9.536H40.743L39.367 4.64ZM44.3208 2.832H46.1128V7.6H47.8408L49.9688 2.832H51.8088L49.9208 7.056C49.7394 7.46133 49.5581 7.74933 49.3768 7.92C49.2061 8.09067 49.0034 8.19733 48.7688 8.24V8.336C49.0354 8.38933 49.2488 8.50133 49.4088 8.672C49.5794 8.84267 49.7554 9.14667 49.9368 9.584L51.1848 12.496H52.1608V14H51.0728C50.6781 14 50.3474 13.8987 50.0808 13.696C49.8141 13.4933 49.5741 13.152 49.3608 12.672L47.8248 9.104H46.1128V14H44.3208V2.832ZM57.4985 4.336V14H55.7065V4.336H52.2025V2.832H61.0025V4.336H57.4985ZM61.0602 2.832H62.6922V7.12H63.6362C64.6282 7.12 65.3962 7.424 65.9402 8.032C66.4842 8.62933 66.7562 9.472 66.7562 10.56C66.7562 11.648 66.4842 12.496 65.9402 13.104C65.3962 13.7013 64.6282 14 63.6362 14H61.0602V2.832ZM63.4922 12.56C63.9829 12.56 64.3669 12.4373 64.6442 12.192C64.9216 11.9467 65.0602 11.5627 65.0602 11.04V10.08C65.0602 9.55733 64.9216 9.17333 64.6442 8.928C64.3669 8.68267 63.9829 8.56 63.4922 8.56H62.6922V12.56H63.4922ZM67.7802 14V2.832H69.4122V14H67.7802Z" fill="white"/>
</svg>

