<svg width="907" height="285" viewBox="0 0 907 285" fill="none" xmlns="http://www.w3.org/2000/svg">
<path d="M862.33 238.635H851.007C851.007 215.638 851.779 213.041 859.07 201.543C863.788 194.124 865.332 190.971 865.332 183.182C865.332 177.433 863.788 171.869 858.984 171.869C853.581 171.869 850.922 179.473 850.922 193.382H836.34C836.34 167.418 843.974 146.461 859.413 146.461C871.336 146.461 879.913 160.927 879.913 182.44C879.913 197.277 876.568 206.365 870.564 213.598C864.56 220.831 862.33 225.096 862.33 238.635ZM863.273 282.033H850.235V253.843H863.273V282.033Z" fill="black"/>
<path d="M810.044 282.032H794.605V233.071L773.676 149.428H790.316L802.239 205.808H802.41L814.419 149.428H830.716L810.044 233.071V282.032Z" fill="black"/>
<path d="M745.605 282.032H729.051L752.382 149.428H767.907L791.409 282.032H774.512L770.566 254.398H749.551L745.605 282.032ZM760.016 180.029L753.068 228.99H767.135L760.187 180.029H760.016Z" fill="black"/>
<path d="M711.111 282.032H683.062V149.428H710.253C727.322 149.428 737.615 173.167 737.615 215.823C737.615 258.479 728.18 282.032 711.111 282.032ZM698.502 254.769H708.366C717.973 254.769 721.833 239.933 721.833 215.823C721.833 191.713 717.973 176.69 708.366 176.69H698.502V254.769Z" fill="black"/>
<path d="M653.591 285C634.12 285 623.227 255.697 623.227 215.638C623.227 175.764 634.12 146.461 653.591 146.461C672.89 146.461 683.955 175.764 683.955 215.638C683.955 255.697 672.89 285 653.591 285ZM653.591 257.737C664.742 257.737 668.173 238.82 668.173 215.638C668.173 192.641 664.742 173.724 653.591 173.724C642.354 173.724 639.009 192.641 639.009 215.638C639.009 238.82 642.354 257.737 653.591 257.737Z" fill="black"/>
<path d="M613.121 282.032H597.681V176.69H579.84V149.428H630.876V176.69H613.121V282.032Z" fill="black"/>
<path d="M535.752 284.999C517.225 284.999 510.105 267.195 510.105 234.183V149.428H525.545V234.183C525.545 251.431 528.976 257.737 535.752 257.737C542.528 257.737 545.959 251.431 545.959 234.183V149.428H561.399V234.183C561.399 267.195 554.28 284.999 535.752 284.999Z" fill="black"/>
<path d="M481.153 285C461.683 285 450.789 255.697 450.789 215.638C450.789 175.764 461.683 146.461 481.153 146.461C500.453 146.461 511.518 175.764 511.518 215.638C511.518 255.697 500.453 285 481.153 285ZM481.153 257.737C492.304 257.737 495.735 238.82 495.735 215.638C495.735 192.641 492.304 173.724 481.153 173.724C469.917 173.724 466.572 192.641 466.572 215.638C466.572 238.82 469.917 257.737 481.153 257.737Z" fill="black"/>
<path d="M440.388 282.032H424.949V233.071L404.02 149.428H420.66L432.583 205.808H432.754L444.763 149.428H461.06L440.388 233.071V282.032Z" fill="black"/>
<path d="M357.647 282.032H342.207V149.428H371.971C384.751 149.428 392.729 163.894 392.729 191.713C392.729 219.532 384.751 233.998 371.971 233.998H357.647V282.032ZM357.647 206.735H368.368C373.686 206.735 376.946 202.84 376.946 191.713C376.946 180.585 373.686 176.69 368.368 176.69H357.647V206.735Z" fill="black"/>
<path d="M344.329 282.032H301.613V149.428H317.053V254.769H344.329V282.032Z" fill="black"/>
<path d="M302.161 282.032H255.156V149.428H301.646V176.69H270.596V200.244H297.358V227.507H270.596V254.769H302.161V282.032Z" fill="black"/>
<path d="M217.022 282.032H201.582V149.428H217.022V201.357H238.036V149.428H253.476V282.032H238.036V228.619H217.022V282.032Z" fill="black"/>
<path d="M139.506 282.032H124.066V149.428H139.506L160.95 228.249H161.121V149.428H176.561V282.032H161.121L139.677 203.211H139.506V282.032Z" fill="black"/>
<path d="M82.2226 282.032H65.668L88.9988 149.428H104.524L128.026 282.032H111.129L107.183 254.398H86.1682L82.2226 282.032ZM96.6328 180.029L89.685 228.99H103.752L96.8043 180.029H96.6328Z" fill="black"/>
<path d="M46.6905 285C27.2196 285 17.3555 255.697 17.3555 216.194C17.3555 175.578 27.7342 146.461 47.1194 146.461C63.8455 146.461 72.7661 167.974 74.2243 198.761H58.4417C57.3266 184.295 54.5818 173.724 46.4332 173.724C36.226 173.724 33.1381 190.786 33.1381 215.638C33.1381 240.675 36.226 257.737 46.4332 257.737C54.6676 257.737 57.4124 247.166 58.4417 232.329H74.2243C72.8519 262.745 63.5882 285 46.6905 285Z" fill="black"/>
<path d="M907.001 135.572H859.996V2.96777H906.486V30.2305H875.436V53.784H902.197V81.0467H875.436V108.309H907.001V135.572Z" fill="black"/>
<path d="M813.16 135.572H797.72L782.109 2.96777H797.549L805.44 92.9162H805.612L815.133 2.96777H829.715L839.236 92.9162H839.407L847.298 2.96777H862.738L847.127 135.572H831.687L822.509 52.8567H822.338L813.16 135.572Z" fill="black"/>
<path d="M720.648 135.572H705.209L689.598 2.96777H705.037L712.928 92.9162H713.1L722.621 2.96777H737.203L746.724 92.9162H746.895L754.787 2.96777H770.226L754.615 135.572H739.176L729.998 52.8567H729.826L720.648 135.572Z" fill="black"/>
<path d="M665.931 138.539C646.46 138.539 635.566 109.236 635.566 69.1768C635.566 29.3028 646.46 0 665.931 0C685.23 0 696.295 29.3028 696.295 69.1768C696.295 109.236 685.23 138.539 665.931 138.539ZM665.931 111.276C677.082 111.276 680.513 92.3594 680.513 69.1768C680.513 46.1797 677.082 27.2627 665.931 27.2627C654.694 27.2627 651.349 46.1797 651.349 69.1768C651.349 92.3594 654.694 111.276 665.931 111.276Z" fill="black"/>
<path d="M600.002 135.572H584.562V2.96777H600.002V54.8968H621.017V2.96777H636.456V135.572H621.017V82.1595H600.002V135.572Z" fill="black"/>
<path d="M557.351 92.1744H550.489L546.629 31.8996V2.96777H561.211V31.8996L557.351 92.1744ZM560.524 135.572H547.487V107.382H560.524V135.572Z" fill="black"/>
<path d="M506.966 135.572H478.918V2.96777H506.109C523.178 2.96777 533.471 26.7067 533.471 69.3627C533.471 112.019 524.036 135.572 506.966 135.572ZM494.357 108.309H504.222C513.828 108.309 517.688 93.4726 517.688 69.3627C517.688 45.2528 513.828 30.2305 504.222 30.2305H494.357V108.309Z" fill="black"/>
<path d="M440.111 135.572H424.672V2.96777H440.111L461.555 81.7886H461.727V2.96777H477.166V135.572H461.727L440.283 56.7514H440.111V135.572Z" fill="black"/>
<path d="M425.22 135.572H378.215V2.96777H424.705V30.2305H393.654V53.784H420.416V81.0467H393.654V108.309H425.22V135.572Z" fill="black"/>
<path d="M376.518 135.572H361.078V2.96777H376.518V135.572Z" fill="black"/>
<path d="M326.037 135.572H310.598V2.96777H339.504C353.142 2.96777 361.376 16.6919 361.376 40.8018C361.376 59.3478 356.573 70.29 348.939 73.9992V74.3701C364.293 80.1194 358.717 131.492 362.234 133.718V135.572H346.194C343.192 130.008 348.768 89.3924 335.644 89.3924H326.037V135.572ZM326.037 62.1297H336.502C342.678 62.1297 345.937 57.3078 345.937 46.1801C345.937 35.0525 342.678 30.2305 336.502 30.2305H326.037V62.1297Z" fill="black"/>
<path d="M282.014 135.572H266.574V2.96777H312.207V30.2305H282.014V59.3478H306.631V86.6105H282.014V135.572Z" fill="black"/>
<path d="M206.075 138.539C186.604 138.539 175.711 109.236 175.711 69.1768C175.711 29.3028 186.604 0 206.075 0C225.375 0 236.44 29.3028 236.44 69.1768C236.44 109.236 225.375 138.539 206.075 138.539ZM206.075 111.276C217.226 111.276 220.657 92.3594 220.657 69.1768C220.657 46.1797 217.226 27.2627 206.075 27.2627C194.839 27.2627 191.494 46.1797 191.494 69.1768C191.494 92.3594 194.839 111.276 206.075 111.276Z" fill="black"/>
<path d="M183.341 135.572H140.625V2.96777H156.065V108.309H183.341V135.572Z" fill="black"/>
<path d="M142.751 135.572H100.035V2.96777H115.475V108.309H142.751V135.572Z" fill="black"/>
<path d="M100.579 135.572H53.5742V2.96777H100.064V30.2305H69.0137V53.784H95.7755V81.0467H69.0137V108.309H100.579V135.572Z" fill="black"/>
<path d="M15.4395 135.572H0V2.96777H15.4395V54.8968H36.4544V2.96777H51.8939V135.572H36.4544V82.1595H15.4395V135.572Z" fill="black"/>
</svg>

