<svg width="1166" height="329" viewBox="0 0 1166 329" fill="none" xmlns="http://www.w3.org/2000/svg">
<g filter="url(#filter0_d_24_34)">
<path d="M975.225 310.494C954.275 310.494 938.3 304.325 927.301 291.988C916.303 279.376 910.803 261.418 910.803 238.114V18.5063H954.013V241.404C954.013 251.274 955.846 258.402 959.512 262.789C963.44 267.175 968.94 269.369 976.01 269.369C983.081 269.369 988.45 267.175 992.116 262.789C996.044 258.402 998.008 251.274 998.008 241.404V18.5063H1039.65V238.114C1039.65 261.418 1034.15 279.376 1023.15 291.988C1012.15 304.325 996.175 310.494 975.225 310.494Z" fill="black"/>
</g>
<path d="M1032.4 18.5063H1097.63C1119.89 18.5063 1136.14 23.9896 1146.35 34.9563C1156.57 45.6488 1161.68 62.2359 1161.68 84.7175V96.2325C1161.68 111.038 1159.32 123.101 1154.6 132.423C1150.15 141.744 1143.21 148.461 1133.78 152.574V153.396C1155.26 161.073 1166 181.087 1166 213.439V238.114C1166 260.321 1160.37 277.32 1149.1 289.109C1138.1 300.624 1121.86 306.381 1100.38 306.381H1032.4V18.5063ZM1092.52 135.713C1101.16 135.713 1107.58 133.382 1111.77 128.721C1116.23 124.06 1118.45 116.247 1118.45 105.28V89.2413C1118.45 78.823 1116.62 71.2834 1112.95 66.6225C1109.55 61.9617 1104.05 59.6313 1096.45 59.6313H1075.62V135.713H1092.52ZM1100.38 265.256C1107.98 265.256 1113.61 263.2 1117.27 259.088C1120.94 254.701 1122.78 247.298 1122.78 236.88V211.794C1122.78 198.634 1120.55 189.586 1116.1 184.651C1111.9 179.442 1104.83 176.838 1094.88 176.838H1075.62V265.256H1100.38Z" fill="black"/>
<path d="M788.267 18.5063H831.491V135.713H877.858V18.5063H921.082V306.381H877.858V176.838H831.491V306.381H788.267V18.5063Z" fill="black"/>
<path d="M675.056 224.131H655.802L658.946 192.054H678.2L685.666 116.795H666.019L669.162 84.7175H688.809L695.489 18.5063H729.676L722.995 84.7175H750.894L757.575 18.5063H791.761L785.081 84.7175H805.121L801.977 116.795H781.937L774.471 192.054H794.511L791.368 224.131H771.328L763.076 306.381H728.89L737.141 224.131H709.242L700.991 306.381H666.804L675.056 224.131ZM740.285 192.054L747.751 116.795H719.852L712.386 192.054H740.285Z" fill="black"/>
<path d="M562.171 18.5063H680.054V59.6313H605.395V135.713H664.729V176.838H605.395V265.256H680.054V306.381H562.171V18.5063Z" fill="black"/>
<path d="M466.391 18.5063H509.615V265.256H580.738V306.381H466.391V18.5063Z" fill="black"/>
<path d="M396.345 59.6313H351.157V18.5063H484.758V59.6313H439.569V306.381H396.345V59.6313Z" fill="black"/>
<path d="M289.311 300.213C274.117 296.923 262.46 289.383 254.339 277.594C246.48 265.805 242.551 250.725 242.551 232.356V213.439H283.417V235.235C283.417 251.959 290.883 260.321 305.815 260.321C320.747 260.321 328.213 251.685 328.213 234.413C328.213 223.72 325.593 214.124 320.354 205.625C315.115 196.852 305.422 186.708 291.276 175.193C273.724 160.662 261.412 147.09 254.339 134.479C247.266 121.867 243.73 107.61 243.73 91.7088C243.73 73.8879 247.528 59.22 255.125 47.705C262.984 36.19 274.379 28.6504 289.311 25.0863V0H324.676V25.0863C339.87 28.3763 351.396 35.9158 359.255 47.705C367.114 59.22 371.044 74.1621 371.044 92.5313V100.756H330.177V89.6525C330.177 72.6542 322.973 64.155 308.565 64.155C294.157 64.155 286.954 72.38 286.954 88.83C286.954 98.7 289.573 107.885 294.812 116.384C300.052 124.609 309.744 134.616 323.89 146.405C341.442 161.21 353.754 175.055 360.827 187.941C367.9 200.553 371.436 215.084 371.436 231.534C371.436 250.177 367.376 265.53 359.255 277.594C351.396 289.383 339.87 296.923 324.676 300.213V329H289.311V300.213Z" fill="black"/>
<path d="M188.582 310.494C167.625 310.494 151.646 304.325 140.643 291.988C129.641 279.376 124.14 261.418 124.14 238.114V18.5063H167.363V241.404C167.363 251.274 169.197 258.402 172.865 262.789C176.794 267.175 182.295 269.369 189.368 269.369C196.441 269.369 201.812 267.175 205.479 262.789C209.408 258.402 211.373 251.274 211.373 241.404V18.5063H253.025V238.114C253.025 261.418 247.524 279.376 236.522 291.988C225.519 304.325 209.539 310.494 188.582 310.494Z" fill="black"/>
<path d="M0 18.5063H43.2238V135.713H89.5912V18.5063H132.815V306.381H89.5912V176.838H43.2238V306.381H0V18.5063Z" fill="black"/>
<defs>
<filter id="filter0_d_24_34" x="906.803" y="18.5063" width="136.843" height="299.987" filterUnits="userSpaceOnUse" color-interpolation-filters="sRGB">
<feFlood flood-opacity="0" result="BackgroundImageFix"/>
<feColorMatrix in="SourceAlpha" type="matrix" values="0 0 0 0 0 0 0 0 0 0 0 0 0 0 0 0 0 0 127 0" result="hardAlpha"/>
<feOffset dy="4"/>
<feGaussianBlur stdDeviation="2"/>
<feComposite in2="hardAlpha" operator="out"/>
<feColorMatrix type="matrix" values="0 0 0 0 0 0 0 0 0 0 0 0 0 0 0 0 0 0 0.25 0"/>
<feBlend mode="normal" in2="BackgroundImageFix" result="effect1_dropShadow_24_34"/>
<feBlend mode="normal" in="SourceGraphic" in2="effect1_dropShadow_24_34" result="shape"/>
</filter>
</defs>
</svg>
