<svg width="44" height="17" viewBox="0 0 44 17" fill="none" xmlns="http://www.w3.org/2000/svg">
<path d="M5.192 14.552C3.77333 14.552 2.71733 14.0507 2.024 13.048C1.34133 12.0453 1 10.6213 1 8.776C1 6.93067 1.34133 5.50667 2.024 4.504C2.71733 3.50133 3.77333 3 5.192 3C5.736 3 6.20533 3.07467 6.6 3.224C7.00533 3.36267 7.352 3.56 7.64 3.816C7.928 4.06133 8.168 4.35467 8.36 4.696C8.56267 5.02667 8.728 5.384 8.856 5.768L7.24 6.312C7.15467 6.056 7.05867 5.816 6.952 5.592C6.84533 5.368 6.712 5.176 6.552 5.016C6.392 4.856 6.2 4.728 5.976 4.632C5.76267 4.536 5.496 4.488 5.176 4.488C4.38667 4.488 3.81067 4.792 3.448 5.4C3.08533 5.99733 2.904 6.808 2.904 7.832V9.72C2.904 10.744 3.08533 11.56 3.448 12.168C3.81067 12.7653 4.38667 13.064 5.176 13.064C5.496 13.064 5.76267 13.016 5.976 12.92C6.2 12.824 6.392 12.696 6.552 12.536C6.712 12.376 6.84533 12.184 6.952 11.96C7.05867 11.736 7.15467 11.496 7.24 11.24L8.856 11.784C8.728 12.168 8.56267 12.5307 8.36 12.872C8.168 13.2027 7.928 13.496 7.64 13.752C7.352 13.9973 7.00533 14.1947 6.6 14.344C6.20533 14.4827 5.736 14.552 5.192 14.552Z" fill="white"/>
<path d="M10.4338 14.36V3.192H12.2257V12.856H17.3138V14.36H10.4338Z" fill="white"/>
<path d="M22.1395 14.552C21.4355 14.552 20.8222 14.424 20.2995 14.168C19.7875 13.9013 19.3608 13.5227 19.0195 13.032C18.6888 12.5413 18.4435 11.9387 18.2835 11.224C18.1235 10.5093 18.0435 9.69333 18.0435 8.776C18.0435 7.86933 18.1235 7.05867 18.2835 6.344C18.4435 5.61867 18.6888 5.01067 19.0195 4.52C19.3608 4.02933 19.7875 3.656 20.2995 3.4C20.8222 3.13333 21.4355 3 22.1395 3C22.8435 3 23.4515 3.13333 23.9635 3.4C24.4862 3.656 24.9128 4.02933 25.2435 4.52C25.5848 5.01067 25.8355 5.61867 25.9955 6.344C26.1555 7.05867 26.2355 7.86933 26.2355 8.776C26.2355 9.69333 26.1555 10.5093 25.9955 11.224C25.8355 11.9387 25.5848 12.5413 25.2435 13.032C24.9128 13.5227 24.4862 13.9013 23.9635 14.168C23.4515 14.424 22.8435 14.552 22.1395 14.552ZM22.1395 13.064C22.9395 13.064 23.5048 12.7653 23.8355 12.168C24.1662 11.56 24.3315 10.7387 24.3315 9.704V7.832C24.3315 6.808 24.1662 5.99733 23.8355 5.4C23.5048 4.792 22.9395 4.488 22.1395 4.488C21.3395 4.488 20.7742 4.792 20.4435 5.4C20.1128 5.99733 19.9475 6.808 19.9475 7.832V9.72C19.9475 10.744 20.1128 11.56 20.4435 12.168C20.7742 12.7653 21.3395 13.064 22.1395 13.064Z" fill="white"/>
<path d="M30.6772 14.552C29.7066 14.552 28.8906 14.3813 28.2292 14.04C27.5679 13.6987 27.0239 13.2453 26.5972 12.68L27.7493 11.576C28.1759 12.088 28.6293 12.4667 29.1093 12.712C29.5893 12.9467 30.1333 13.064 30.7413 13.064C31.4453 13.064 31.9839 12.904 32.3573 12.584C32.7413 12.264 32.9333 11.8053 32.9333 11.208C32.9333 10.728 32.7946 10.36 32.5173 10.104C32.2399 9.83733 31.7653 9.64533 31.0933 9.528L29.8773 9.336C29.3439 9.25067 28.8959 9.112 28.5333 8.92C28.1706 8.71733 27.8773 8.48267 27.6533 8.216C27.4293 7.93867 27.2639 7.63467 27.1573 7.304C27.0613 6.96267 27.0133 6.60533 27.0133 6.232C27.0133 5.176 27.3546 4.376 28.0373 3.832C28.7199 3.27733 29.6586 3 30.8533 3C31.7386 3 32.4906 3.144 33.1092 3.432C33.7386 3.70933 34.2452 4.104 34.6292 4.616L33.5093 5.736C33.1999 5.36267 32.8319 5.064 32.4053 4.84C31.9893 4.60533 31.4719 4.488 30.8533 4.488C30.1919 4.488 29.6853 4.632 29.3333 4.92C28.9919 5.19733 28.8213 5.608 28.8213 6.152C28.8213 6.61067 28.9546 6.97333 29.2213 7.24C29.4986 7.496 29.9839 7.68267 30.6772 7.8L31.8613 8.008C32.8639 8.18933 33.5946 8.55733 34.0532 9.112C34.5119 9.656 34.7413 10.3227 34.7413 11.112C34.7413 11.624 34.6506 12.0933 34.4692 12.52C34.2986 12.9467 34.0372 13.3093 33.6852 13.608C33.3439 13.9067 32.9173 14.1413 32.4053 14.312C31.9039 14.472 31.3279 14.552 30.6772 14.552Z" fill="white"/>
<path d="M35.983 14.36V3.192H42.975V4.696H37.775V7.944H42.783V9.448H37.775V12.856H42.975V14.36H35.983Z" fill="white"/>
</svg>

