<svg width="964" height="192" viewBox="0 0 964 192" fill="none" xmlns="http://www.w3.org/2000/svg">
<path d="M914.497 163.01H887.469V3.56641H904.907V52.8489H915.466C930.967 52.8489 940.751 74.4796 940.751 107.26C940.751 142.271 930.579 163.01 914.497 163.01ZM964.002 163.01H946.564V3.56641H964.002V163.01ZM904.907 85.6295V130.229H914.013C919.535 130.229 922.926 122.201 922.926 107.26C922.926 94.7724 919.826 85.6295 914.885 85.6295H904.907Z" fill="black"/>
<path d="M869.834 163.01H852.397V36.347H832.246V3.56641H889.888V36.347H869.834V163.01Z" fill="black"/>
<path d="M840.606 3.56641L812.996 82.2845L842.35 163.01H820.456L798.949 102.577H794.008V163.01H776.57V3.56641H794.008V69.7967H798.949L821.812 3.56641H840.606Z" fill="black"/>
<path d="M777.186 163.01H724.098V3.56641H776.605V36.347H741.536V64.6677H771.761V97.4484H741.536V130.229H777.186V163.01Z" fill="black"/>
<path d="M690.814 166.579C668.823 166.579 656.52 131.346 656.52 83.1781C656.52 35.2336 668.823 0 690.814 0C712.611 0 725.108 35.2336 725.108 83.1781C725.108 131.346 712.611 166.579 690.814 166.579ZM690.814 133.799C703.408 133.799 707.283 111.053 707.283 83.1781C707.283 55.5264 703.408 32.7806 690.814 32.7806C678.123 32.7806 674.345 55.5264 674.345 83.1781C674.345 111.053 678.123 133.799 690.814 133.799Z" fill="black"/>
<path d="M622.125 163.01H604.688V3.56641H638.304C652.739 3.56641 661.748 20.9602 661.748 54.4098C661.748 87.8595 652.739 105.253 638.304 105.253H622.125V163.01ZM622.125 72.4726H634.235C640.241 72.4726 643.923 67.7897 643.923 54.4098C643.923 41.03 640.241 36.347 634.235 36.347H622.125V72.4726Z" fill="black"/>
<path d="M562.559 163.01H545.121V3.56641H602.763V163.01H585.325V36.347H562.559V163.01Z" fill="black"/>
<path d="M536.983 163.01H483.895V3.56641H536.402V36.347H501.332V64.6677H531.558V97.4484H501.332V130.229H536.983V163.01Z" fill="black"/>
<path d="M437.887 163.01H420.449V3.56641H437.887V102.577H438.081L464.528 3.56641H481.966V163.01H464.528V63.9987H464.335L437.887 163.01Z" fill="black"/>
<path d="M377.379 163.01H359.941V3.56641H377.379V66.0057H401.114V3.56641H418.552V163.01H401.114V98.7864H377.379V163.01Z" fill="black"/>
<path d="M305.438 191.999H289.938V130.452H294.975C300.497 130.452 301.95 119.079 302.628 90.3124L304.566 3.56641H353.973V130.452H361.239V191.999H345.739V163.233H305.438V191.999ZM314.157 130.006V130.452H336.535V36.347H320.066L318.129 99.4553C317.644 115.065 316.385 123.762 314.157 130.006Z" fill="black"/>
<path d="M295.792 163.01H242.703V3.56641H295.211V36.347H260.141V64.6677H290.367V97.4484H260.141V130.229H295.792V163.01Z" fill="black"/>
<path d="M188.08 166.355C184.302 166.355 179.555 165.463 178.102 163.679V129.337C179.458 130.452 181.589 131.567 184.205 131.567C187.692 131.567 189.436 126.215 189.727 113.95L192.73 3.56641H240.781V163.01H223.343V36.347H207.843L205.615 118.633C204.646 155.874 196.896 166.355 188.08 166.355Z" fill="black"/>
<path d="M154.464 166.579C132.473 166.579 121.332 131.346 121.332 83.8471C121.332 35.0106 133.054 0 154.948 0C173.839 0 183.915 25.8677 185.562 62.8853H167.736C166.477 45.4915 163.377 32.7806 154.173 32.7806C142.645 32.7806 139.157 53.2964 139.157 83.1781C139.157 113.283 142.645 133.799 154.173 133.799C163.474 133.799 166.574 121.088 167.736 103.248H185.562C184.012 139.819 173.549 166.579 154.464 166.579Z" fill="black"/>
<path d="M90.9508 166.579C68.9596 166.579 56.6562 131.346 56.6562 83.1781C56.6562 35.2336 68.9596 0 90.9508 0C112.748 0 125.245 35.2336 125.245 83.1781C125.245 131.346 112.748 166.579 90.9508 166.579ZM90.9508 133.799C103.545 133.799 107.42 111.053 107.42 83.1781C107.42 55.5264 103.545 32.7806 90.9508 32.7806C78.2599 32.7806 74.4816 55.5264 74.4816 83.1781C74.4816 111.053 78.2599 133.799 90.9508 133.799Z" fill="black"/>
<path d="M17.4379 163.01H0V3.56641H57.6419V163.01H40.204V36.347H17.4379V163.01Z" fill="black"/>
</svg>

