<svg width="1122" height="285" viewBox="0 0 1122 285" fill="none" xmlns="http://www.w3.org/2000/svg">
<path d="M1118.03 238.944H1110.98L1107.01 179.07V150.33H1122V179.07L1118.03 238.944ZM1121.3 282.053H1107.89V254.05H1121.3V282.053Z" fill="black"/>
<path d="M1092.64 282.053H1076.77V177.412H1058.43V150.33H1110.89V177.412H1092.64V282.053Z" fill="black"/>
<path d="M1038.19 285C1018.17 285 1008.03 255.892 1008.03 216.651C1008.03 176.306 1018.7 147.382 1038.63 147.382C1055.82 147.382 1064.99 168.752 1066.49 199.334H1050.27C1049.12 184.964 1046.3 174.463 1037.92 174.463C1027.43 174.463 1024.26 191.412 1024.26 216.099C1024.26 240.969 1027.43 257.918 1037.92 257.918C1046.39 257.918 1049.21 247.417 1050.27 232.679H1066.49C1065.08 262.893 1055.56 285 1038.19 285Z" fill="black"/>
<path d="M1012.53 282.053H964.211V150.33H1012V177.412H980.082V200.808H1007.59V227.89H980.082V254.971H1012.53V282.053Z" fill="black"/>
<path d="M941.326 285C924.043 285 919.723 263.63 919.723 238.207V227.153H933.831V238.207C933.831 250.734 935.242 257.919 940.444 257.919C945.646 257.919 947.057 250.734 947.057 238.207V150.33H962.929V238.207C962.929 263.63 958.608 285 941.326 285Z" fill="black"/>
<path d="M893.823 285C873.808 285 862.609 255.892 862.609 216.099C862.609 176.49 873.808 147.382 893.823 147.382C913.663 147.382 925.038 176.49 925.038 216.099C925.038 255.892 913.663 285 893.823 285ZM893.823 257.918C905.286 257.918 908.813 239.127 908.813 216.099C908.813 193.254 905.286 174.463 893.823 174.463C882.272 174.463 878.834 193.254 878.834 216.099C878.834 239.127 882.272 257.918 893.823 257.918Z" fill="black"/>
<path d="M829.668 282.053H813.797V150.33H843.512C857.532 150.33 865.997 163.963 865.997 187.912C865.997 206.335 861.059 217.205 853.211 220.889V221.258C868.995 226.969 863.263 278 866.878 280.211V282.053H850.39C847.303 276.526 853.035 236.18 839.544 236.18H829.668V282.053ZM829.668 209.099H840.426C846.774 209.099 850.125 204.309 850.125 193.255C850.125 182.201 846.774 177.412 840.426 177.412H829.668V209.099Z" fill="black"/>
<path d="M779.848 282.053H763.977V150.33H794.573C807.712 150.33 815.912 164.7 815.912 192.334C815.912 219.968 807.712 234.338 794.573 234.338H779.848V282.053ZM779.848 207.256H790.87C796.337 207.256 799.688 203.388 799.688 192.334C799.688 181.28 796.337 177.412 790.87 177.412H779.848V207.256Z" fill="black"/>
<path d="M704.04 282.053H688.168V150.33H717.883C731.903 150.33 740.368 163.963 740.368 187.912C740.368 206.335 735.43 217.205 727.582 220.889V221.258C743.366 226.969 737.634 278 741.25 280.211V282.053H724.761C721.675 276.526 727.406 236.18 713.915 236.18H704.04V282.053ZM704.04 209.099H714.797C721.146 209.099 724.496 204.309 724.496 193.255C724.496 182.201 721.146 177.412 714.797 177.412H704.04V209.099Z" fill="black"/>
<path d="M660.564 285C641.518 285 634.199 267.315 634.199 234.522V150.33H650.071V234.522C650.071 251.655 653.598 257.919 660.564 257.919C667.529 257.919 671.056 251.655 671.056 234.522V150.33H686.928V234.522C686.928 267.315 679.609 285 660.564 285Z" fill="black"/>
<path d="M604.429 285C584.413 285 573.215 255.892 573.215 216.099C573.215 176.49 584.413 147.382 604.429 147.382C624.268 147.382 635.643 176.49 635.643 216.099C635.643 255.892 624.268 285 604.429 285ZM604.429 257.918C615.892 257.918 619.419 239.127 619.419 216.099C619.419 193.254 615.892 174.463 604.429 174.463C592.878 174.463 589.439 193.254 589.439 216.099C589.439 239.127 592.878 257.918 604.429 257.918Z" fill="black"/>
<path d="M562.527 282.053H546.655V233.417L525.141 150.33H542.247L554.503 206.335H554.679L567.024 150.33H583.777L562.527 233.417V282.053Z" fill="black"/>
<path d="M495.368 282.053H479.497V177.412H461.156V150.33H513.621V177.412H495.368V282.053Z" fill="black"/>
<path d="M437.525 285C418.479 285 411.16 267.315 411.16 234.522V150.33H427.032V234.522C427.032 251.655 430.559 257.919 437.525 257.919C444.49 257.919 448.017 251.655 448.017 234.522V150.33H463.889V234.522C463.889 267.315 456.57 285 437.525 285Z" fill="black"/>
<path d="M381.394 285C361.378 285 350.18 255.892 350.18 216.099C350.18 176.49 361.378 147.382 381.394 147.382C401.233 147.382 412.608 176.49 412.608 216.099C412.608 255.892 401.233 285 381.394 285ZM381.394 257.918C392.857 257.918 396.384 239.127 396.384 216.099C396.384 193.254 392.857 174.463 381.394 174.463C369.843 174.463 366.404 193.254 366.404 216.099C366.404 239.127 369.843 257.918 381.394 257.918Z" fill="black"/>
<path d="M332.24 282.053H300.762V150.33H331.359C344.497 150.33 351.374 161.015 351.374 183.491C351.374 199.703 346.789 207.809 341.587 211.494V211.862C348.2 214.257 353.843 223.468 353.843 243.181C353.843 271.183 345.29 282.053 332.24 282.053ZM316.633 203.572H327.214C331.623 203.572 335.15 201.361 335.15 190.492C335.15 179.622 331.623 177.412 327.214 177.412H316.633V203.572ZM316.633 254.971H327.655C334.268 254.971 337.619 251.655 337.619 239.312C337.619 226.969 334.268 223.837 327.655 223.837H316.633V254.971Z" fill="black"/>
<path d="M257.748 282.053H240.73L264.714 150.33H280.674L304.834 282.053H287.463L283.407 254.603H261.804L257.748 282.053ZM272.562 180.728L265.42 229.364H279.88L272.738 180.728H272.562Z" fill="black"/>
<path d="M225.773 282.053H177.453V150.33H225.244V177.412H193.325V200.808H220.835V227.89H193.325V254.971H225.773V282.053Z" fill="black"/>
<path d="M141.438 282.053H125.566V150.33H155.281C169.301 150.33 177.766 163.963 177.766 187.912C177.766 206.335 172.828 217.205 164.981 220.889V221.258C180.764 226.969 175.033 278 178.648 280.211V282.053H162.159C159.073 276.526 164.804 236.18 151.314 236.18H141.438V282.053ZM141.438 209.099H152.195C158.544 209.099 161.895 204.309 161.895 193.255C161.895 182.201 158.544 177.412 152.195 177.412H141.438V209.099Z" fill="black"/>
<path d="M95.2727 285C75.2569 285 64.0586 255.892 64.0586 216.099C64.0586 176.49 75.2569 147.382 95.2727 147.382C115.112 147.382 126.487 176.49 126.487 216.099C126.487 255.892 115.112 285 95.2727 285ZM95.2727 257.918C106.735 257.918 110.262 239.127 110.262 216.099C110.262 193.254 106.735 174.463 95.2727 174.463C83.7217 174.463 80.2829 193.254 80.2829 216.099C80.2829 239.127 83.7217 257.918 95.2727 257.918Z" fill="black"/>
<path d="M14.9898 282.053H0V150.33H19.3986L32.3603 234.338H32.5367L45.4985 150.33H64.897V282.053H49.9072V200.072H49.7309L38.0036 282.053H26.8935L15.1662 200.072H14.9898V282.053Z" fill="black"/>
<path d="M1027.66 137.618C1011.17 137.618 998.742 120.116 998.742 89.9031H1014.79C1014.79 105.194 1020.35 110.905 1027.49 110.905C1033.4 110.905 1036.39 105.931 1036.39 99.1144C1036.39 87.8766 1030.13 84.9289 1021.4 79.4021C1010.47 72.4014 1000.68 63.5585 1000.68 39.9774C1000.68 11.2379 1011.44 0 1025.02 0C1039.74 0 1051.29 16.212 1051.74 42.925H1035.69C1034.98 32.7925 1031.1 26.713 1025.02 26.713C1020.26 26.713 1016.91 30.0291 1016.91 37.5824C1016.91 46.4253 1020.43 49.373 1028.46 54.3471C1040.36 61.7162 1052.62 68.7169 1052.62 95.9826C1052.62 121.222 1043.45 137.618 1027.66 137.618Z" fill="black"/>
<path d="M974.669 137.619C955.623 137.619 948.305 119.933 948.305 87.1402V2.94824H964.176V87.1402C964.176 104.273 967.703 110.537 974.669 110.537C981.635 110.537 985.162 104.273 985.162 87.1402V2.94824H1001.03V87.1402C1001.03 119.933 993.715 137.619 974.669 137.619Z" fill="black"/>
<path d="M929.337 134.671H885.426V2.94824H901.297V107.59H929.337V134.671Z" fill="black"/>
<path d="M887.603 134.671H843.691V2.94824H859.563V107.59H887.603V134.671Z" fill="black"/>
<path d="M844.261 134.671H795.941V2.94824H843.732V30.0297H811.813V53.4266H839.324V80.5081H811.813V107.59H844.261V134.671Z" fill="black"/>
<path d="M779.892 134.671H764.02V30.0297H745.68V2.94824H798.144V30.0297H779.892V134.671Z" fill="black"/>
<path d="M723.913 91.5617H716.859L712.891 31.6877V2.94824H727.88V31.6877L723.913 91.5617ZM727.175 134.671H713.772V106.668H727.175V134.671Z" fill="black"/>
<path d="M684.81 134.671H668.938V30.0297H650.598V2.94824H703.062V30.0297H684.81V134.671Z" fill="black"/>
<path d="M656.074 134.671H607.754V2.94824H655.545V30.0297H623.625V53.4266H651.136V80.5081H623.625V107.59H656.074V134.671Z" fill="black"/>
<path d="M584.019 137.618C567.53 137.618 555.098 120.116 555.098 89.9031H571.146C571.146 105.194 576.701 110.905 583.843 110.905C589.751 110.905 592.749 105.931 592.749 99.1144C592.749 87.8766 586.488 84.9289 577.759 79.4021C566.825 72.4014 557.038 63.5585 557.038 39.9774C557.038 11.2379 567.795 0 581.374 0C596.099 0 607.65 16.212 608.091 42.925H592.043C591.338 32.7925 587.458 26.713 581.374 26.713C576.612 26.713 573.262 30.0291 573.262 37.5824C573.262 46.4253 576.789 49.373 584.813 54.3471C596.716 61.7162 608.973 68.7169 608.973 95.9826C608.973 121.222 599.803 137.618 584.019 137.618Z" fill="black"/>
<path d="M539.126 134.671H495.215V2.94824H511.086V107.59H539.126V134.671Z" fill="black"/>
<path d="M497.396 134.671H453.484V2.94824H469.356V107.59H497.396V134.671Z" fill="black"/>
<path d="M410.471 134.671H393.453L417.437 2.94824H433.397L457.557 134.671H440.186L436.13 107.221H414.527L410.471 134.671ZM425.284 33.3458L418.142 81.9819H432.603L425.461 33.3458H425.284Z" fill="black"/>
<path d="M378.496 134.671H330.176V2.94824H377.967V30.0297H346.047V53.4266H373.558V80.5081H346.047V107.59H378.496V134.671Z" fill="black"/>
<path d="M294.161 134.671H278.289V2.94824H308.004C322.024 2.94824 330.489 16.5811 330.489 40.5307C330.489 58.9534 325.551 69.8229 317.703 73.5074V73.8759C333.487 79.5869 327.755 130.618 331.371 132.829V134.671H314.882C311.796 129.144 317.527 88.7983 304.036 88.7983H294.161V134.671ZM294.161 61.7168H304.918C311.267 61.7168 314.617 56.9269 314.617 45.8733C314.617 34.8196 311.267 30.0297 304.918 30.0297H294.161V61.7168Z" fill="black"/>
<path d="M235.272 134.671H218.254L242.238 2.94824H258.197L282.357 134.671H264.987L260.931 107.221H239.328L235.272 134.671ZM250.085 33.3458L242.943 81.9819H257.404L250.262 33.3458H250.085Z" fill="black"/>
<path d="M203.301 134.671H154.98V2.94824H202.772V30.0297H170.852V53.4266H198.363V80.5081H170.852V107.59H203.301V134.671Z" fill="black"/>
<path d="M106.83 134.671H90.9581L74.9102 2.94824H90.7817L98.8938 92.2986H99.0702L108.858 2.94824H123.847L133.635 92.2986H133.811L141.923 2.94824H157.795L141.747 134.671H125.875L116.441 52.5055H116.264L106.83 134.671Z" fill="black"/>
</svg>

