<svg width="148" height="65" viewBox="0 0 148 65" fill="none" xmlns="http://www.w3.org/2000/svg">
<path d="M138.956 64.4816C132.98 64.4816 128.475 56.2811 128.475 42.1245H134.291C134.291 49.2891 136.304 51.9651 138.892 51.9651C141.033 51.9651 142.12 49.6344 142.12 46.4405C142.12 41.175 139.851 39.7938 136.687 37.2042C132.725 33.924 129.178 29.7806 129.178 18.7316C129.178 5.26556 133.076 0 137.998 0C143.334 0 147.521 7.59622 147.68 20.1127H141.864C141.609 15.3651 140.203 12.5165 137.998 12.5165C136.272 12.5165 135.058 14.0703 135.058 17.6094C135.058 21.7528 136.336 23.1339 139.244 25.4646C143.558 28.9174 148 32.1976 148 44.9731C148 56.799 144.676 64.4816 138.956 64.4816Z" fill="black"/>
<path d="M124.692 63.1021H118.94V14.072H112.293V1.38281H131.307V14.072H124.692V63.1021Z" fill="black"/>
<path d="M105.035 65.0011C97.7809 65.0011 94.106 51.3624 94.106 32.9761C94.106 14.0719 97.9727 0.519531 105.195 0.519531C111.426 0.519531 114.75 10.5327 115.293 24.862H109.413C108.998 18.129 107.975 13.2087 104.939 13.2087C101.136 13.2087 99.9859 21.1502 99.9859 32.7172C99.9859 44.3704 101.136 52.312 104.939 52.312C108.007 52.312 109.03 47.3917 109.413 40.486H115.293C114.782 54.6426 111.33 65.0011 105.035 65.0011Z" fill="black"/>
<path d="M80.2987 63.1021H74.1311L82.8232 1.38281H88.6073L97.3633 63.1021H91.0679L89.5979 50.2403H81.7686L80.2987 63.1021ZM85.6673 15.6257L83.0788 38.4144H88.3197L85.7312 15.6257H85.6673Z" fill="black"/>
<path d="M73.1051 63.1021H67.353V14.072H60.7061V1.38281H79.72V14.072H73.1051V63.1021Z" fill="black"/>
<path d="M47.6833 63.1021H41.9312V1.38281H47.6833L55.6723 38.0691H55.7362V1.38281H61.4884V63.1021H55.7362L47.7472 26.4158H47.6833V63.1021Z" fill="black"/>
<path d="M30.9624 64.4816C23.7083 64.4816 19.6499 50.8429 19.6499 32.1976C19.6499 13.6387 23.7083 0 30.9624 0C38.1526 0 42.2749 13.6387 42.2749 32.1976C42.2749 50.8429 38.1526 64.4816 30.9624 64.4816ZM30.9624 51.7924C35.1167 51.7924 36.395 42.9877 36.395 32.1976C36.395 21.4939 35.1167 12.6891 30.9624 12.6891C26.7761 12.6891 25.5299 21.4939 25.5299 32.1976C25.5299 42.9877 26.7761 51.7924 30.9624 51.7924Z" fill="black"/>
<path d="M10.929 64.4816C3.67497 64.4816 0 50.8429 0 32.4566C0 13.5524 3.86671 0 11.0888 0C17.3203 0 20.6437 10.0132 21.187 24.3424H15.307C14.8916 17.6094 13.869 12.6891 10.8332 12.6891C7.03037 12.6891 5.87995 20.6306 5.87995 32.1976C5.87995 43.8509 7.03037 51.7924 10.8332 51.7924C13.901 51.7924 14.9236 46.8721 15.307 39.9665H21.187C20.6757 54.1231 17.2244 64.4816 10.929 64.4816Z" fill="black"/>
</svg>

