<svg width="1110" height="326" viewBox="0 0 1110 326" fill="none" xmlns="http://www.w3.org/2000/svg">
<path d="M1110 322.636H1061.75V181.198H1109.47V210.277H1077.6V235.4H1105.07V264.479H1077.6V293.558H1110V322.636Z" fill="black"/>
<path d="M1064.75 181.198L1045.9 251.818L1065.8 322.636H1047.93L1033.67 269.028H1029.18V322.636H1013.33V269.028H1008.84L994.576 322.636H976.703L996.601 251.818L977.76 181.198H994.224L1008.84 239.949H1013.33V181.198H1029.18V239.949H1033.67L1048.28 181.198H1064.75Z" fill="black"/>
<path d="M940.699 322.636H924.852V181.198H940.699V269.028H940.875L964.911 181.198H980.758V322.636H964.911V234.806H964.735L940.699 322.636Z" fill="black"/>
<path d="M875.217 325.604C871.783 325.604 867.469 324.812 866.148 323.23V292.766C867.381 293.755 869.318 294.744 871.695 294.744C874.865 294.744 876.449 289.997 876.713 279.117L879.443 181.198H923.112V322.636H907.264V210.277H893.177L891.152 283.271C890.272 316.306 883.229 325.604 875.217 325.604Z" fill="black"/>
<path d="M848.999 322.636H823.555V181.198H866.343V210.277H839.402V230.85H849.879C864.846 230.85 872.858 248.851 872.858 275.754C872.858 305.229 864.494 322.636 848.999 322.636ZM839.402 259.929V293.558H848.559C853.841 293.558 856.658 287.425 856.658 275.754C856.658 266.852 854.193 259.929 849.351 259.929H839.402Z" fill="black"/>
<path d="M793.308 325.802C773.322 325.802 762.141 294.548 762.141 251.819C762.141 209.289 773.322 178.034 793.308 178.034C813.117 178.034 824.474 209.289 824.474 251.819C824.474 294.548 813.117 325.802 793.308 325.802ZM793.308 296.724C804.753 296.724 808.275 276.546 808.275 251.819C808.275 227.29 804.753 207.113 793.308 207.113C781.774 207.113 778.34 227.29 778.34 251.819C778.34 276.546 781.774 296.724 793.308 296.724Z" fill="black"/>
<path d="M726.496 322.636H710.648V181.198H763.033V322.636H747.186V210.277H726.496V322.636Z" fill="black"/>
<path d="M664.001 322.636H646.656V321.45C650.002 307.8 649.298 265.863 663.472 259.731V259.335C654.316 254.39 650.178 241.334 650.178 221.75C650.178 198.606 658.63 181.198 672.1 181.198H700.89V322.636H685.043V273.38H677.559C664.265 273.38 665.849 311.361 664.001 322.636ZM673.949 246.28H685.043V210.277H672.805C668.843 210.277 666.378 217.794 666.378 227.091C666.378 238.763 668.931 246.28 673.949 246.28Z" fill="black"/>
<path d="M624.134 325.802C604.148 325.802 594.023 294.548 594.023 252.413C594.023 209.091 604.677 178.034 624.574 178.034C641.742 178.034 650.899 200.981 652.395 233.818H636.196C635.051 218.389 632.234 207.113 623.87 207.113C613.393 207.113 610.223 225.312 610.223 251.819C610.223 278.525 613.393 296.724 623.87 296.724C632.322 296.724 635.139 285.448 636.196 269.623H652.395C650.987 302.065 641.478 325.802 624.134 325.802Z" fill="black"/>
<path d="M574.871 322.636H548.547V181.198H564.394V224.915H575.752C589.839 224.915 598.731 244.104 598.731 273.183C598.731 304.24 589.486 322.636 574.871 322.636ZM564.394 253.994V293.558H574.431C579.45 293.558 582.531 286.436 582.531 273.183C582.531 262.105 579.714 253.994 575.224 253.994H564.394Z" fill="black"/>
<path d="M532.52 322.636H516.672V210.277H498.359V181.198H550.744V210.277H532.52V322.636Z" fill="black"/>
<path d="M460.512 322.636H444.664V181.198H460.512V269.028H460.688L484.723 181.198H500.571V322.636H484.723V234.806H484.547L460.512 322.636Z" fill="black"/>
<path d="M393.037 322.636H378.07V181.198H397.44L410.382 271.402H410.558L423.5 181.198H442.869V322.636H427.902V234.608H427.726L416.016 322.636H404.923L393.214 234.608H393.037V322.636Z" fill="black"/>
<path d="M347.815 325.802C327.83 325.802 316.648 294.548 316.648 251.819C316.648 209.289 327.83 178.034 347.815 178.034C367.625 178.034 378.982 209.289 378.982 251.819C378.982 294.548 367.625 325.802 347.815 325.802ZM347.815 296.724C359.261 296.724 362.783 276.546 362.783 251.819C362.783 227.29 359.261 207.113 347.815 207.113C336.282 207.113 332.848 227.29 332.848 251.819C332.848 276.546 336.282 296.724 347.815 296.724Z" fill="black"/>
<path d="M327.399 181.198L302.307 251.027L328.984 322.636H309.086L289.541 269.028H285.051V322.636H269.203V181.198H285.051V239.949H289.541L310.319 181.198H327.399Z" fill="black"/>
<path d="M226.258 322.636H209.266L233.213 181.198H249.149L273.272 322.636H255.928L251.878 293.162H230.308L226.258 322.636ZM241.049 213.838L233.917 266.061H248.356L241.225 213.838H241.049Z" fill="black"/>
<path d="M175.84 322.636H159.992V181.198H175.84V236.587H197.41V181.198H213.258V322.636H197.41V265.666H175.84V322.636Z" fill="black"/>
<path d="M135.541 326C118.989 326 109.305 307.999 109.305 280.305H125.504C126.385 290.196 128.85 296.921 135.981 296.921C141.088 296.921 144.962 289.8 144.962 280.898C144.962 269.425 141.264 264.282 135.629 264.282H128.146V240.544H135.277C140.119 240.544 142.32 233.027 142.32 224.125C142.32 215.619 139.063 207.113 134.485 207.113C129.907 207.113 126.209 214.037 126.209 222.938H110.009C110.889 196.827 119.958 178.034 134.485 178.034C148.748 178.034 158.52 193.068 158.52 218.389C158.52 236.192 153.062 246.478 147.515 252.017V252.413C153.942 254.787 161.161 263.688 161.161 284.657C161.161 310.768 149.276 326 135.541 326Z" fill="black"/>
<path d="M82.6591 325.802C62.6735 325.802 51.4922 294.548 51.4922 251.819C51.4922 209.289 62.6735 178.034 82.6591 178.034C102.469 178.034 113.826 209.289 113.826 251.819C113.826 294.548 102.469 325.802 82.6591 325.802ZM82.6591 296.724C94.1045 296.724 97.6262 276.546 97.6262 251.819C97.6262 227.29 94.1045 207.113 82.6591 207.113C71.1256 207.113 67.6919 227.29 67.6919 251.819C67.6919 276.546 71.1256 296.724 82.6591 296.724Z" fill="black"/>
<path d="M15.8476 322.636H0V181.198H52.385V322.636H36.5375V210.277H15.8476V322.636Z" fill="black"/>
<path d="M1079.85 144.602H1053.52V3.16406H1069.37V46.8813H1080.73C1094.82 46.8813 1103.71 66.0694 1103.71 95.1483C1103.71 126.205 1094.46 144.602 1079.85 144.602ZM1069.37 75.9602V115.523H1079.41C1084.43 115.523 1087.51 108.402 1087.51 95.1483C1087.51 84.0707 1084.69 75.9602 1080.2 75.9602H1069.37Z" fill="black"/>
<path d="M1026.86 147.768C1006.87 147.768 996.75 116.513 996.75 74.3787C996.75 31.0571 1007.4 0 1027.3 0C1044.47 0 1053.63 22.9466 1055.12 55.784H1038.92C1037.78 40.3544 1034.96 29.0789 1026.6 29.0789C1016.12 29.0789 1012.95 47.2779 1012.95 73.7852C1012.95 100.49 1016.12 118.689 1026.6 118.689C1035.05 118.689 1037.87 107.414 1038.92 91.5886H1055.12C1053.71 124.03 1044.2 147.768 1026.86 147.768Z" fill="black"/>
<path d="M969.143 147.768C949.158 147.768 937.977 116.513 937.977 73.7852C937.977 31.2549 949.158 0 969.143 0C988.953 0 1000.31 31.2549 1000.31 73.7852C1000.31 116.513 988.953 147.768 969.143 147.768ZM969.143 118.689C980.589 118.689 984.111 98.5122 984.111 73.7852C984.111 49.2561 980.589 29.0789 969.143 29.0789C957.61 29.0789 954.176 49.2561 954.176 73.7852C954.176 98.5122 957.61 118.689 969.143 118.689Z" fill="black"/>
<path d="M890.975 147.569C887.541 147.569 883.227 146.778 881.906 145.196V114.732C883.139 115.721 885.076 116.71 887.453 116.71C890.622 116.71 892.207 111.963 892.471 101.083L895.201 3.16406H938.87V144.602H923.022V32.243H908.935L906.91 105.237C906.03 138.272 898.986 147.569 890.975 147.569Z" fill="black"/>
<path d="M842.5 144.602H825.508L849.455 3.16406H865.391L889.514 144.602H872.17L868.12 115.128H846.55L842.5 144.602ZM857.291 35.8036L850.16 88.027H864.599L857.467 35.8036H857.291Z" fill="black"/>
<path d="M822.692 144.602H806.844V32.243H788.531V3.16406H840.916V32.243H822.692V144.602Z" fill="black"/>
<path d="M768.321 147.768C748.336 147.768 738.211 116.513 738.211 74.3787C738.211 31.0571 748.864 0 768.761 0C785.93 0 795.086 22.9466 796.583 55.784H780.383C779.239 40.3544 776.421 29.0789 768.057 29.0789C757.58 29.0789 754.411 47.2779 754.411 73.7852C754.411 100.49 757.58 118.689 768.057 118.689C776.509 118.689 779.327 107.414 780.383 91.5886H796.583C795.174 124.03 785.666 147.768 768.321 147.768Z" fill="black"/>
<path d="M710.604 147.768C690.619 147.768 679.438 116.513 679.438 73.7852C679.438 31.2549 690.619 0 710.604 0C730.414 0 741.771 31.2549 741.771 73.7852C741.771 116.513 730.414 147.768 710.604 147.768ZM710.604 118.689C722.05 118.689 725.572 98.5122 725.572 73.7852C725.572 49.2561 722.05 29.0789 710.604 29.0789C699.071 29.0789 695.637 49.2561 695.637 73.7852C695.637 98.5122 699.071 118.689 710.604 118.689Z" fill="black"/>
<path d="M676.484 144.602H663.102V114.534H676.484V144.602Z" fill="black"/>
<path d="M623.23 144.602H607.383V3.16406H623.23V90.9942H623.406L647.442 3.16406H663.29V144.602H647.442V56.7721H647.266L623.23 144.602Z" fill="black"/>
<path d="M557.732 147.569C554.299 147.569 549.985 146.778 548.664 145.196V114.732C549.897 115.721 551.834 116.71 554.211 116.71C557.38 116.71 558.965 111.963 559.229 101.083L561.958 3.16406H605.627V144.602H589.78V32.243H575.693L573.668 105.237C572.788 138.272 565.744 147.569 557.732 147.569Z" fill="black"/>
<path d="M514.641 144.602H497.297V143.415C500.642 129.766 499.938 87.8292 514.113 81.6969V81.3012C504.957 76.3558 500.819 63.3 500.819 43.7163C500.819 20.5718 509.271 3.16406 522.741 3.16406H551.531V144.602H535.683V95.3461H528.2C514.905 95.3461 516.49 133.327 514.641 144.602ZM524.59 68.2454H535.683V32.243H523.445C519.483 32.243 517.018 39.76 517.018 49.0573C517.018 60.7284 519.572 68.2454 524.59 68.2454Z" fill="black"/>
<path d="M462.293 144.602H446.445V3.16406H462.293V58.5524H483.863V3.16406H499.711V144.602H483.863V87.6313H462.293V144.602Z" fill="black"/>
<path d="M416.198 147.768C396.213 147.768 385.031 116.513 385.031 73.7852C385.031 31.2549 396.213 0 416.198 0C436.008 0 447.365 31.2549 447.365 73.7852C447.365 116.513 436.008 147.768 416.198 147.768ZM416.198 118.689C427.644 118.689 431.165 98.5122 431.165 73.7852C431.165 49.2561 427.644 29.0789 416.198 29.0789C404.665 29.0789 401.231 49.2561 401.231 73.7852C401.231 98.5122 404.665 118.689 416.198 118.689Z" fill="black"/>
<path d="M349.387 144.602H333.539V3.16406H385.924V144.602H370.077V32.243H349.387V144.602Z" fill="black"/>
<path d="M298.687 144.602H283.368L293.052 102.27L272.891 3.16406H288.738L301.328 65.0804H301.504L315.327 3.16406H330.47L298.687 144.602Z" fill="black"/>
<path d="M275.707 144.602H259.86V83.4772H259.684C256.074 95.7418 249.735 103.654 243.22 103.654C232.567 103.654 225.523 86.6423 225.523 59.7393V3.16406H241.371V53.8049C241.371 66.2673 244.805 73.9821 250.263 73.9821C254.577 73.9821 257.659 68.4432 259.86 61.3219V3.16406H275.707V144.602Z" fill="black"/>
<path d="M190.187 144.602H173.195L197.143 3.16406H213.078L237.202 144.602H219.858L215.808 115.128H194.237L190.187 144.602ZM204.979 35.8036L197.847 88.027H212.286L205.155 35.8036H204.979Z" fill="black"/>
<path d="M129.384 170.318H115.297V115.721H119.875C124.893 115.721 126.214 105.633 126.83 80.1143L128.591 3.16406H173.493V115.721H180.096V170.318H166.009V144.8H129.384V170.318ZM137.307 115.326V115.721H157.645V32.243H142.678L140.917 88.2248C140.477 102.072 139.332 109.787 137.307 115.326Z" fill="black"/>
<path d="M75.9062 144.602H58.9141L82.8615 3.16406H98.7971L122.921 144.602H105.576L101.526 115.128H79.9561L75.9062 144.602ZM90.6973 35.8036L83.5658 88.027H98.0047L90.8733 35.8036H90.6973Z" fill="black"/>
<path d="M41.4631 147.966C24.9112 147.966 15.2266 129.965 15.2266 102.271H31.4263C32.3067 112.161 34.7719 118.887 41.9033 118.887C47.0098 118.887 50.8836 111.766 50.8836 102.864C50.8836 91.3908 47.1858 86.2476 41.5511 86.2476H34.0676V62.5097H41.199C46.0413 62.5097 48.2423 54.9927 48.2423 46.091C48.2423 37.585 44.9848 29.0789 40.4066 29.0789C35.8284 29.0789 32.1306 36.0024 32.1306 44.9041H15.9309C16.8113 18.7925 25.8797 0 40.4066 0C54.6694 0 64.4421 15.034 64.4421 40.3544C64.4421 58.1578 58.9835 68.4442 53.4368 73.983V74.3787C59.8639 76.7525 67.0834 85.6542 67.0834 106.623C67.0834 132.734 55.1977 147.966 41.4631 147.966Z" fill="black"/>
</svg>

