<svg width="728" height="251" viewBox="0 0 728 251" fill="none" xmlns="http://www.w3.org/2000/svg">
<path d="M677.421 251C646.317 251 626.844 202.614 626.844 125.668C626.844 48.3856 646.317 0 677.421 0C708.525 0 727.999 48.3856 727.999 125.668C727.999 202.614 708.525 251 677.421 251ZM677.421 226.807C701.763 226.807 716.098 188.502 716.098 125.668C716.098 62.834 701.763 24.1928 677.421 24.1928C653.079 24.1928 638.744 62.834 638.744 125.668C638.744 188.502 653.079 226.807 677.421 226.807ZM678.233 200.934C660.111 200.934 648.752 170.021 648.752 125.668C648.752 81.6506 659.57 50.0656 677.151 50.0656C693.784 50.0656 703.251 74.5944 704.603 107.523H687.158C686.617 96.0991 684.724 83.3307 677.556 83.3307C670.119 83.3307 666.602 98.7872 666.602 125.668C666.602 152.213 670.119 167.669 677.556 167.669C684.724 167.669 686.617 155.909 687.158 143.141H704.603C703.792 176.406 694.596 200.934 678.233 200.934Z" fill="black"/>
<path d="M628.941 245.145H557.137C557.137 196.139 567.664 175.328 587.91 137.735C598.033 118.938 605.456 103.498 605.456 82.3517C605.456 64.5619 601.947 53.8208 594.658 53.8208C585.885 53.8208 580.622 65.9045 580.622 97.7918H558.486C558.486 43.4155 570.094 7.83594 595.333 7.83594C615.444 7.83594 628.941 34.0171 628.941 78.3238C628.941 123.637 613.824 151.833 601.002 174.993C596.548 183.049 592.499 190.769 589.395 198.489V199.16H628.941V245.145Z" fill="black"/>
<path d="M509.678 245.791H485.332V5.22266H532.266C552.419 5.22266 564.998 31.4665 564.998 81.9355C564.998 132.405 552.419 158.648 532.266 158.648H509.678V245.791ZM509.678 109.189H526.585C534.971 109.189 540.111 102.123 540.111 81.9355C540.111 61.7479 534.971 54.6823 526.585 54.6823H509.678V109.189Z" fill="black"/>
<path d="M438.949 251C408.197 251 390.992 197.91 390.992 125.332C390.992 53.0897 408.197 0 438.949 0C469.43 0 486.906 53.0897 486.906 125.332C486.906 197.91 469.43 251 438.949 251ZM438.949 201.606C456.56 201.606 461.979 167.333 461.979 125.332C461.979 83.6667 456.56 49.3936 438.949 49.3936C421.202 49.3936 415.919 83.6667 415.919 125.332C415.919 167.333 421.202 201.606 438.949 201.606Z" fill="black"/>
<path d="M334.603 245.791H310.277V5.22266H334.603V99.4314H367.714V5.22266H392.04V245.791H367.714V148.891H334.603V245.791Z" fill="black"/>
<path d="M274.017 251C248.673 251 229.562 219.079 229.562 163.973H254.229C254.229 191.862 262.768 202.278 273.746 202.278C282.827 202.278 287.435 193.206 287.435 180.774C287.435 160.277 277.812 154.901 264.394 144.821C247.588 132.052 232.544 115.924 232.544 72.9143C232.544 20.4966 249.079 0 269.951 0C292.585 0 310.34 29.5689 311.018 78.2905H286.351C285.267 59.8099 279.303 48.7215 269.951 48.7215C262.633 48.7215 257.482 54.7697 257.482 68.5462C257.482 84.6747 262.904 90.0509 275.237 99.1232C293.534 112.564 312.373 125.332 312.373 175.062C312.373 221.095 298.278 251 274.017 251Z" fill="black"/>
<path d="M235.854 245.791H161.953V5.22266H235.045V54.6823H186.227V97.4127H228.302V146.872H186.227V196.332H235.854V245.791Z" fill="black"/>
<path d="M137.198 245.791H112.939V54.6823H84.9062V5.22266H165.096V54.6823H137.198V245.791Z" fill="black"/>
<path d="M88.0547 245.791H63.9453V5.22266H88.0547V245.791Z" fill="black"/>
<path d="M67.0871 245.791H0V5.22266H24.2484V196.332H67.0871V245.791Z" fill="black"/>
</svg>

