<svg width="573" height="216" viewBox="0 0 573 216" fill="none" xmlns="http://www.w3.org/2000/svg">
<path d="M453.479 213.765H442.73V113.934H456.641L465.935 177.602H466.062L475.356 113.934H489.267V213.765H478.518V151.632H478.391L469.982 213.765H462.015L453.606 151.632H453.479V213.765Z" fill="black"/>
<path d="M411.887 213.765H399.684L416.882 113.934H428.326L445.651 213.765H433.195L430.286 192.961H414.795L411.887 213.765ZM422.509 136.972L417.388 173.833H427.757L422.635 136.972H422.509Z" fill="black"/>
<path d="M404.196 213.765H369.547V113.934H403.817V134.458H380.928V152.191H400.655V172.716H380.928V193.24H404.196V213.765Z" fill="black"/>
<path d="M358.04 213.765H346.659V134.458H333.508V113.934H371.129V134.458H358.04V213.765Z" fill="black"/>
<path d="M294.979 213.765H283.598V113.934H304.906C314.959 113.934 321.029 124.266 321.029 142.417C321.029 156.379 317.488 164.617 311.861 167.41V167.689C323.179 172.017 319.069 210.694 321.661 212.369V213.765H309.837C307.624 209.577 311.734 178.999 302.06 178.999H294.979V213.765ZM294.979 158.474H302.693C307.245 158.474 309.648 154.844 309.648 146.466C309.648 138.089 307.245 134.458 302.693 134.458H294.979V158.474Z" fill="black"/>
<path d="M263.8 215.999C250.142 215.999 244.895 202.595 244.895 177.742V113.934H256.276V177.742C256.276 190.727 258.805 195.474 263.8 195.474C268.795 195.474 271.324 190.727 271.324 177.742V113.934H282.705V177.742C282.705 202.595 277.457 215.999 263.8 215.999Z" fill="black"/>
<path d="M223.555 215.999C209.202 215.999 201.172 193.938 201.172 163.779C201.172 133.76 209.202 111.699 223.555 111.699C237.781 111.699 245.938 133.76 245.938 163.779C245.938 193.938 237.781 215.999 223.555 215.999ZM223.555 195.474C231.774 195.474 234.304 181.232 234.304 163.779C234.304 146.466 231.774 132.224 223.555 132.224C215.272 132.224 212.806 146.466 212.806 163.779C212.806 181.232 215.272 195.474 223.555 195.474Z" fill="black"/>
<path d="M160.088 213.765H148.707V113.934H170.015C180.068 113.934 186.138 124.266 186.138 142.417C186.138 156.379 182.597 164.617 176.97 167.41V167.689C188.288 172.017 184.178 210.694 186.771 212.369V213.765H174.947C172.734 209.577 176.844 178.999 167.17 178.999H160.088V213.765ZM160.088 158.474H167.802C172.354 158.474 174.757 154.844 174.757 146.466C174.757 138.089 172.354 134.458 167.802 134.458H160.088V158.474Z" fill="black"/>
<path d="M126.981 215.999C112.628 215.999 104.598 193.938 104.598 163.779C104.598 133.76 112.628 111.699 126.981 111.699C141.207 111.699 149.363 133.76 149.363 163.779C149.363 193.938 141.207 215.999 126.981 215.999ZM126.981 195.474C135.2 195.474 137.729 181.232 137.729 163.779C137.729 146.466 135.2 132.224 126.981 132.224C118.698 132.224 116.232 146.466 116.232 163.779C116.232 181.232 118.698 195.474 126.981 195.474Z" fill="black"/>
<path d="M86.9631 213.765H75.582V113.934H109.22V134.458H86.9631V156.38H105.11V176.904H86.9631V213.765Z" fill="black"/>
<path d="M553.461 102.064H532.785V2.23242H552.829C565.411 2.23242 572.998 20.1044 572.998 52.2181C572.998 84.3318 566.043 102.064 553.461 102.064ZM544.166 81.5393H551.438C558.519 81.5393 561.364 70.3693 561.364 52.2181C561.364 34.0669 558.519 22.7573 551.438 22.7573H544.166V81.5393Z" fill="black"/>
<path d="M506.959 102.064H495.578V2.23242H516.886C526.939 2.23242 533.009 12.5646 533.009 30.7159C533.009 44.6783 529.469 52.9162 523.841 55.7087V55.9879C535.159 60.3163 531.049 98.9923 533.642 100.668V102.064H521.818C519.605 97.8753 523.715 67.2975 514.041 67.2975H506.959V102.064ZM506.959 46.7727H514.673C519.226 46.7727 521.628 43.1425 521.628 34.765C521.628 26.3875 519.226 22.7573 514.673 22.7573H506.959V46.7727Z" fill="black"/>
<path d="M473.856 104.3C459.503 104.3 451.473 82.239 451.473 52.08C451.473 22.0607 459.503 0 473.856 0C488.082 0 496.238 22.0607 496.238 52.08C496.238 82.239 488.082 104.3 473.856 104.3ZM473.856 83.7748C482.075 83.7748 484.604 69.5331 484.604 52.08C484.604 34.7666 482.075 20.5248 473.856 20.5248C465.573 20.5248 463.107 34.7666 463.107 52.08C463.107 69.5331 465.573 83.7748 473.856 83.7748Z" fill="black"/>
<path d="M419.834 102.064H408.453L396.945 2.23242H408.326L414.143 69.9504H414.27L421.288 2.23242H432.037L439.055 69.9504H439.182L444.999 2.23242H456.38L444.872 102.064H433.491L426.726 39.7915H426.599L419.834 102.064Z" fill="black"/>
<path d="M389.68 102.064H376.402L364.705 63.1088L360.026 75.1165V102.064H348.645V2.23242H360.026V44.818L376.212 2.23242H388.415L371.407 45.935L389.68 102.064Z" fill="black"/>
<path d="M329.495 104.3C315.142 104.3 307.871 82.239 307.871 52.4989C307.871 21.9211 315.522 0 329.811 0C342.141 0 348.717 16.1965 349.792 39.3742H338.158C337.336 28.4834 335.312 20.5248 329.306 20.5248C321.781 20.5248 319.505 33.3703 319.505 52.08C319.505 70.9294 321.781 83.7748 329.306 83.7748C335.375 83.7748 337.399 75.8162 338.158 64.6462H349.792C348.78 87.5447 341.951 104.3 329.495 104.3Z" fill="black"/>
<path d="M308.518 102.064H297.137V2.23242H308.518V102.064Z" fill="black"/>
<path d="M277.343 104.298C263.685 104.298 258.438 90.8941 258.438 66.0409V2.23242H269.819V66.0409C269.819 79.026 272.348 83.7733 277.343 83.7733C282.338 83.7733 284.867 79.026 284.867 66.0409V2.23242H296.248V66.0409C296.248 90.8941 291 104.298 277.343 104.298Z" fill="black"/>
<path d="M259.473 52.08C259.473 67.1595 257.449 80.1446 253.656 89.3598L258.398 99.9713L252.897 112.538L247.206 99.8317C244.298 102.764 240.884 104.3 237.09 104.3C222.737 104.3 214.707 82.239 214.707 52.08C214.707 22.0607 222.737 0 237.09 0C251.316 0 259.473 22.0607 259.473 52.08ZM237.09 83.7748C238.038 83.7748 238.924 83.6352 239.745 83.2163L234.371 71.2086L239.872 58.6424L246.068 72.4652C247.333 66.8802 247.839 59.7594 247.839 52.08C247.839 34.7666 245.31 20.5248 237.09 20.5248C228.807 20.5248 226.341 34.7666 226.341 52.08C226.341 69.5331 228.807 83.7748 237.09 83.7748Z" fill="black"/>
<path d="M170.523 102.064H158.32L175.518 2.23242H186.963L204.287 102.064H191.831L188.923 81.26H173.432L170.523 102.064ZM181.146 25.2705L176.024 62.1314H186.394L181.272 25.2705H181.146Z" fill="black"/>
<path d="M130.17 102.064H118.789V2.23242H140.729C150.15 2.23242 156.031 13.1231 156.031 34.0669C156.031 55.0106 150.15 65.9013 140.729 65.9013H130.17V102.064ZM130.17 45.3765H138.074C141.994 45.3765 144.397 42.4443 144.397 34.0669C144.397 25.6894 141.994 22.7573 138.074 22.7573H130.17V45.3765Z" fill="black"/>
<path d="M97.0625 104.3C82.7097 104.3 74.6797 82.239 74.6797 52.08C74.6797 22.0607 82.7097 0 97.0625 0C111.289 0 119.445 22.0607 119.445 52.08C119.445 82.239 111.289 104.3 97.0625 104.3ZM97.0625 83.7748C105.282 83.7748 107.811 69.5331 107.811 52.08C107.811 34.7666 105.282 20.5248 97.0625 20.5248C88.7796 20.5248 86.3137 34.7666 86.3137 52.08C86.3137 69.5331 88.7796 83.7748 97.0625 83.7748Z" fill="black"/>
<path d="M51.0608 102.064H39.6797V2.23242H60.9877C71.041 2.23242 77.1109 12.5646 77.1109 30.7159C77.1109 44.6783 73.5701 52.9162 67.9428 55.7087V55.9879C79.2607 60.3163 75.1508 98.9923 77.7432 100.668V102.064H65.9195C63.7065 97.8753 67.8163 67.2975 58.1424 67.2975H51.0608V102.064ZM51.0608 46.7727H58.7747C63.3271 46.7727 65.7298 43.1425 65.7298 34.765C65.7298 26.3875 63.3271 22.7573 58.7747 22.7573H51.0608V46.7727Z" fill="black"/>
<path d="M20.6757 102.064H0V2.23242H20.0434C32.6259 2.23242 40.2133 20.1044 40.2133 52.2181C40.2133 84.3318 33.2581 102.064 20.6757 102.064ZM11.3811 81.5393H18.6524C25.734 81.5393 28.5792 70.3693 28.5792 52.2181C28.5792 34.0669 25.734 22.7573 18.6524 22.7573H11.3811V81.5393Z" fill="black"/>
</svg>

