<svg width="125" height="65" viewBox="0 0 125 65" fill="none" xmlns="http://www.w3.org/2000/svg">
<path d="M116.781 63.6101H110.642V40.6382L102.32 1.39453H108.937L113.677 27.847H113.745L118.52 1.39453H125L116.781 40.6382V63.6101Z" fill="black"/>
<path d="M95.1405 65C87.3986 65 83.4766 51.2517 83.4766 32.7175C83.4766 13.6613 87.6033 0 95.311 0C101.961 0 105.508 10.0937 106.088 24.5382H99.8129C99.3695 17.751 98.2781 12.7912 95.0382 12.7912C90.9797 12.7912 89.7519 20.7965 89.7519 32.4565C89.7519 44.2035 90.9797 52.2088 95.0382 52.2088C98.3122 52.2088 99.4036 47.249 99.8129 40.2878H106.088C105.542 54.5582 101.859 65 95.1405 65Z" fill="black"/>
<path d="M69.0608 63.6101H62.9219V1.39453H69.0608L77.587 38.3758H77.6552V1.39453H83.7941V63.6101H77.6552L69.129 26.6288H69.0608V63.6101Z" fill="black"/>
<path d="M63.1505 63.6101H44.4609V1.39453H62.9458V14.1857H50.5998V25.2366H61.2406V38.0277H50.5998V50.8189H63.1505V63.6101Z" fill="black"/>
<path d="M32.2844 65C25.3611 65 21.2344 51.2517 21.2344 32.4565C21.2344 13.7483 25.3611 0 33.0347 0C39.7193 0 43.4367 10.0937 44.0165 22.0147H37.7412C37.2978 17.751 36.3088 12.7912 32.9324 12.7912C28.908 12.7912 27.5097 20.7965 27.5097 32.4565C27.5097 44.2035 28.908 52.2088 33.1711 52.2088C36.0018 52.2088 37.9799 47.8581 38.0481 41.8541H33.4099V30.5422H44.3917V63.6078H39.9921L39.3782 55.6894H39.31C38.1504 61.3454 35.8654 65 32.2844 65Z" fill="black"/>
<path d="M6.58226 63.6101H0L9.27655 1.39453H15.4496L24.7943 63.6101H18.0756L16.5068 50.6449H8.15109L6.58226 63.6101ZM12.3119 15.752L9.54939 38.7238H15.1426L12.3801 15.752H12.3119Z" fill="black"/>
</svg>

