<svg width="296" height="95" viewBox="0 0 296 95" fill="none" xmlns="http://www.w3.org/2000/svg">
<path d="M277.916 95C265.965 95 256.953 82.9183 256.953 62.0616H268.585C268.585 72.6171 272.611 76.5596 277.788 76.5596C282.07 76.5596 284.243 73.1258 284.243 68.4204C284.243 60.6627 279.705 58.6278 273.378 54.8126C265.453 49.9799 258.359 43.8755 258.359 27.5971C258.359 7.7577 266.156 0 275.999 0C286.672 0 295.044 11.1914 295.363 29.6319H283.732C283.22 22.6372 280.408 18.4404 275.999 18.4404C272.547 18.4404 270.119 20.7296 270.119 25.9438C270.119 32.0482 272.675 34.083 278.491 37.5167C287.119 42.6037 296.003 47.4364 296.003 66.2584C296.003 83.6814 289.356 95 277.916 95Z" fill="black"/>
<path d="M249.375 92.9675H237.872V20.7319H224.578V2.03711H262.605V20.7319H249.375V92.9675Z" fill="black"/>
<path d="M209.908 95C195.401 95 188.051 74.9063 188.051 47.8179C188.051 19.9665 195.784 0 210.228 0C222.69 0 229.337 14.7523 230.424 35.8635H218.664C217.833 25.9438 215.788 18.6948 209.717 18.6948C202.111 18.6948 199.81 30.3949 199.81 47.4364C199.81 64.6051 202.111 76.3052 209.717 76.3052C215.852 76.3052 217.897 69.0562 218.664 58.8822H230.424C229.401 79.739 222.499 95 209.908 95Z" fill="black"/>
<path d="M160.6 92.9675H148.266L165.649 2.03711H177.217L194.729 92.9675H182.138L179.198 74.0184H163.54L160.6 92.9675ZM171.337 23.021L166.161 56.5953H176.642L171.465 23.021H171.337Z" fill="black"/>
<path d="M146.219 92.9675H134.715V20.7319H121.422V2.03711H159.449V20.7319H146.219V92.9675Z" fill="black"/>
<path d="M95.3828 92.9675H83.8789V2.03711H95.3828L111.361 56.0866H111.488V2.03711H122.992V92.9675H111.488L95.5107 38.918H95.3828V92.9675Z" fill="black"/>
<path d="M61.9213 95C47.4135 95 39.2969 74.9063 39.2969 47.4364C39.2969 20.0937 47.4135 0 61.9213 0C76.3012 0 84.5457 20.0937 84.5457 47.4364C84.5457 74.9063 76.3012 95 61.9213 95ZM61.9213 76.3052C70.2297 76.3052 72.7861 63.3333 72.7861 47.4364C72.7861 31.6667 70.2297 18.6948 61.9213 18.6948C53.549 18.6948 51.0565 31.6667 51.0565 47.4364C51.0565 63.3333 53.549 76.3052 61.9213 76.3052Z" fill="black"/>
<path d="M21.8575 95C7.34974 95 0 74.9063 0 47.8179C0 19.9665 7.7332 0 22.177 0C34.6396 0 41.2863 14.7523 42.3728 35.8635H30.6132C29.7824 25.9438 27.7373 18.6948 21.6657 18.6948C14.0604 18.6948 11.7596 30.3949 11.7596 47.4364C11.7596 64.6051 14.0604 76.3052 21.6657 76.3052C27.8012 76.3052 29.8463 69.0562 30.6132 58.8822H42.3728C41.3503 79.739 34.4479 95 21.8575 95Z" fill="black"/>
</svg>

