<svg width="1366" height="385" viewBox="0 0 1366 385" fill="none" xmlns="http://www.w3.org/2000/svg">
<path d="M1292.5 385C1233.16 385 1196 310.783 1196 192.758C1196 74.2169 1233.16 0 1292.5 0C1351.84 0 1389 74.2169 1389 192.758C1389 310.783 1351.84 385 1292.5 385ZM1292.5 347.892C1338.94 347.892 1366.29 289.137 1366.29 192.758C1366.29 96.3789 1338.94 37.1084 1292.5 37.1084C1246.06 37.1084 1218.71 96.3789 1218.71 192.758C1218.71 289.137 1246.06 347.892 1292.5 347.892ZM1294.05 308.206C1259.47 308.206 1237.8 260.79 1237.8 192.758C1237.8 125.241 1258.44 76.7938 1291.98 76.7938C1323.72 76.7938 1341.78 114.418 1344.36 164.926H1311.08C1310.05 147.403 1306.43 127.818 1292.76 127.818C1278.57 127.818 1271.86 151.526 1271.86 192.758C1271.86 233.474 1278.57 257.182 1292.76 257.182C1306.43 257.182 1310.05 239.143 1311.08 219.558H1344.36C1342.81 270.582 1325.27 308.206 1294.05 308.206Z" fill="black"/>
<path d="M1200 376H1063C1063 300.832 1083.09 268.911 1121.71 211.247C1141.03 182.416 1155.19 158.733 1155.19 126.297C1155.19 99.0099 1148.5 82.5346 1134.59 82.5346C1117.85 82.5346 1107.81 101.069 1107.81 149.98H1065.58C1065.58 66.5742 1087.72 12 1135.88 12C1174.25 12 1200 52.1584 1200 120.119C1200 189.624 1171.16 232.871 1146.69 268.396C1138.2 280.752 1130.47 292.594 1124.55 304.436V305.465H1200V376Z" fill="black"/>
<path d="M972.452 377H926V8H1015.55C1054 8 1078 48.2546 1078 125.667C1078 203.08 1054 243.334 1015.55 243.334H972.452V377ZM972.452 167.47H1004.71C1020.71 167.47 1030.52 156.632 1030.52 125.667C1030.52 94.7021 1020.71 83.8643 1004.71 83.8643H972.452V167.47Z" fill="black"/>
<path d="M837.5 385C778.826 385 746 303.568 746 192.242C746 81.4324 778.826 0 837.5 0C895.657 0 929 81.4324 929 192.242C929 303.568 895.657 385 837.5 385ZM837.5 309.237C871.102 309.237 881.441 256.667 881.441 192.242C881.441 128.333 871.102 75.763 837.5 75.763C803.64 75.763 793.559 128.333 793.559 192.242C793.559 256.667 803.64 309.237 837.5 309.237Z" fill="black"/>
<path d="M638.413 377H592V8H638.413V152.503H701.587V8H748V377H701.587V228.368H638.413V377Z" fill="black"/>
<path d="M522.818 385C474.462 385 438 336.037 438 251.513H485.064C485.064 294.29 501.355 310.268 522.301 310.268C539.627 310.268 548.419 296.352 548.419 277.282C548.419 245.843 530.059 237.597 504.458 222.135C472.393 202.55 443.689 177.811 443.689 111.841C443.689 31.4391 475.237 0 515.061 0C558.245 0 592.121 45.3547 593.414 120.087H546.35C544.281 91.7403 532.903 74.7323 515.061 74.7323C501.097 74.7323 491.27 84.0094 491.27 105.141C491.27 129.88 501.614 138.126 525.146 152.041C560.056 172.657 596 192.242 596 268.521C596 339.13 569.106 385 522.818 385Z" fill="black"/>
<path d="M450 377H309V8H448.456V83.8643H355.314V149.407H435.591V225.271H355.314V301.136H450V377Z" fill="black"/>
<path d="M261.771 377H215.486V83.8643H162V8H315V83.8643H261.771V377Z" fill="black"/>
<path d="M168 377H122V8H168V377Z" fill="black"/>
<path d="M128 377H0V8H46.2651V301.136H128V377Z" fill="black"/>
</svg>

