<svg width="140" height="65" viewBox="0 0 140 65" fill="none" xmlns="http://www.w3.org/2000/svg">
<path d="M125.36 63.6644H118.477V63.1301C119.804 56.9863 119.525 38.1096 125.15 35.3493V35.1712C121.516 32.9452 119.874 27.0685 119.874 18.2534C119.874 7.83562 123.228 0 128.574 0H140V63.6644H133.711V41.4931H130.741C125.465 41.4931 126.094 58.589 125.36 63.6644ZM129.308 29.2945H133.711V13.089H128.854C127.282 13.089 126.303 16.4726 126.303 20.6575C126.303 25.911 127.316 29.2945 129.308 29.2945Z" fill="black"/>
<path d="M103.087 63.6644H96.3438L105.848 0H112.172L121.745 63.6644H114.862L113.255 50.3973H104.694L103.087 63.6644ZM108.957 14.6918L106.127 38.1986H111.857L109.027 14.6918H108.957Z" fill="black"/>
<path d="M83.0783 63.6644H76.7891V0H83.0783V24.9315H91.6387V0H97.928V63.6644H91.6387V38.0205H83.0783V63.6644Z" fill="black"/>
<path d="M68.6378 63.6644H56.1641V0H68.2884C73.4945 0 76.2198 5.16438 76.2198 16.0274C76.2198 23.863 74.4029 27.7808 72.3414 29.5616V29.7397C74.962 30.8973 77.1981 35.3493 77.1981 44.8767C77.1981 58.411 73.8089 63.6644 68.6378 63.6644ZM62.4533 25.7329H66.6462C68.3932 25.7329 69.7908 24.6644 69.7908 19.411C69.7908 14.1575 68.3932 13.089 66.6462 13.089H62.4533V25.7329ZM62.4533 50.5753H66.8209C69.4414 50.5753 70.7691 48.9726 70.7691 43.0068C70.7691 37.0411 69.4414 35.5274 66.8209 35.5274H62.4533V50.5753Z" fill="black"/>
<path d="M39.1107 63.6644H32.3672L41.871 0H48.1952L57.7688 63.6644H50.8856L49.2783 50.3973H40.7179L39.1107 63.6644ZM44.9806 14.6918L42.1505 38.1986H47.8807L45.0505 14.6918H44.9806Z" fill="black"/>
<path d="M13.7473 65C12.3846 65 10.6725 64.6438 10.1484 63.9315V50.2192C10.6376 50.6644 11.4063 51.1096 12.3497 51.1096C13.6075 51.1096 14.2365 48.9726 14.3413 44.0753L15.4244 0H32.7548V63.6644H26.4656V13.089H20.8751L20.0715 45.9452C19.7221 60.8151 16.9269 65 13.7473 65Z" fill="black"/>
<path d="M6.28926 63.6644H0V0H16.2822V13.089H6.28926V63.6644Z" fill="black"/>
</svg>

