<svg width="131" height="17" viewBox="0 0 131 17" fill="none" xmlns="http://www.w3.org/2000/svg">
<path d="M4.08 14.552C3.10933 14.552 2.29333 14.3813 1.632 14.04C0.970667 13.6987 0.426667 13.2453 0 12.68L1.152 11.576C1.57867 12.088 2.032 12.4667 2.512 12.712C2.992 12.9467 3.536 13.064 4.144 13.064C4.848 13.064 5.38667 12.904 5.76 12.584C6.144 12.264 6.336 11.8053 6.336 11.208C6.336 10.728 6.19733 10.36 5.92 10.104C5.64267 9.83733 5.168 9.64533 4.496 9.528L3.28 9.336C2.74667 9.25067 2.29867 9.112 1.936 8.92C1.57333 8.71733 1.28 8.48267 1.056 8.216C0.832 7.93867 0.666667 7.63467 0.56 7.304C0.464 6.96267 0.416 6.60533 0.416 6.232C0.416 5.176 0.757333 4.376 1.44 3.832C2.12267 3.27733 3.06133 3 4.256 3C5.14133 3 5.89333 3.144 6.512 3.432C7.14133 3.70933 7.648 4.104 8.032 4.616L6.912 5.736C6.60267 5.36267 6.23467 5.064 5.808 4.84C5.392 4.60533 4.87467 4.488 4.256 4.488C3.59467 4.488 3.088 4.632 2.736 4.92C2.39467 5.19733 2.224 5.608 2.224 6.152C2.224 6.61067 2.35733 6.97333 2.624 7.24C2.90133 7.496 3.38667 7.68267 4.08 7.8L5.264 8.008C6.26667 8.18933 6.99733 8.55733 7.456 9.112C7.91467 9.656 8.144 10.3227 8.144 11.112C8.144 11.624 8.05333 12.0933 7.872 12.52C7.70133 12.9467 7.44 13.3093 7.088 13.608C6.74667 13.9067 6.32 14.1413 5.808 14.312C5.30667 14.472 4.73067 14.552 4.08 14.552Z" fill="white"/>
<path d="M14.6658 9.448H10.9538V14.36H9.16175V3.192H10.9538V7.944H14.6658V3.192H16.4578V14.36H14.6658V9.448Z" fill="white"/>
<path d="M24.0355 14.36L23.1875 11.384H19.6355L18.7875 14.36H16.9635L20.2275 3.192H22.6755L25.9395 14.36H24.0355ZM21.4755 5H21.3475L19.9715 9.896H22.8515L21.4755 5Z" fill="white"/>
<path d="M28.3973 14.36H26.6213V3.192H30.7973C31.8639 3.192 32.6746 3.49067 33.2293 4.088C33.7946 4.68533 34.0773 5.50667 34.0773 6.552C34.0773 7.40533 33.8693 8.10933 33.4533 8.664C33.0373 9.21867 32.4399 9.56 31.6613 9.688L34.2373 14.36H32.2533L29.8853 9.848H28.3973V14.36ZM30.5413 8.408C31.6506 8.408 32.2052 7.90133 32.2052 6.888V6.2C32.2052 5.18667 31.6506 4.68 30.5413 4.68H28.3973V8.408H30.5413Z" fill="white"/>
<path d="M35.287 14.36V3.192H42.279V4.696H37.079V7.944H42.087V9.448H37.079V12.856H42.279V14.36H35.287Z" fill="white"/>
<path d="M55.0825 14.36V10.152L51.3705 3.192H53.3705L54.7945 5.976L55.9465 8.36H56.0425L57.2105 5.976L58.6345 3.192H60.5865L56.8745 10.152V14.36H55.0825Z" fill="white"/>
<path d="M64.6123 14.552C63.9083 14.552 63.2949 14.424 62.7722 14.168C62.2602 13.9013 61.8336 13.5227 61.4922 13.032C61.1616 12.5413 60.9162 11.9387 60.7562 11.224C60.5962 10.5093 60.5163 9.69333 60.5163 8.776C60.5163 7.86933 60.5962 7.05867 60.7562 6.344C60.9162 5.61867 61.1616 5.01067 61.4922 4.52C61.8336 4.02933 62.2602 3.656 62.7722 3.4C63.2949 3.13333 63.9083 3 64.6123 3C65.3163 3 65.9242 3.13333 66.4362 3.4C66.9589 3.656 67.3856 4.02933 67.7162 4.52C68.0576 5.01067 68.3082 5.61867 68.4682 6.344C68.6282 7.05867 68.7083 7.86933 68.7083 8.776C68.7083 9.69333 68.6282 10.5093 68.4682 11.224C68.3082 11.9387 68.0576 12.5413 67.7162 13.032C67.3856 13.5227 66.9589 13.9013 66.4362 14.168C65.9242 14.424 65.3163 14.552 64.6123 14.552ZM64.6123 13.064C65.4123 13.064 65.9776 12.7653 66.3083 12.168C66.6389 11.56 66.8043 10.7387 66.8043 9.704V7.832C66.8043 6.808 66.6389 5.99733 66.3083 5.4C65.9776 4.792 65.4123 4.488 64.6123 4.488C63.8123 4.488 63.2469 4.792 62.9162 5.4C62.5856 5.99733 62.4202 6.808 62.4202 7.832V9.72C62.4202 10.744 62.5856 11.56 62.9162 12.168C63.2469 12.7653 63.8123 13.064 64.6123 13.064Z" fill="white"/>
<path d="M71.342 3.192V10.056C71.342 10.5147 71.3527 10.9307 71.374 11.304C71.406 11.6773 71.486 11.9973 71.614 12.264C71.742 12.52 71.934 12.7173 72.19 12.856C72.446 12.9947 72.798 13.064 73.246 13.064C73.694 13.064 74.046 12.9947 74.302 12.856C74.558 12.7173 74.75 12.52 74.878 12.264C75.006 11.9973 75.0807 11.6773 75.102 11.304C75.134 10.9307 75.15 10.5147 75.15 10.056V3.192H76.942V9.736C76.942 10.536 76.894 11.24 76.798 11.848C76.7127 12.4453 76.5367 12.9467 76.27 13.352C76.0033 13.7467 75.6247 14.0453 75.134 14.248C74.654 14.4507 74.0247 14.552 73.246 14.552C72.4673 14.552 71.8327 14.4507 71.342 14.248C70.862 14.0453 70.4887 13.7467 70.222 13.352C69.9553 12.9467 69.774 12.4453 69.678 11.848C69.5927 11.24 69.55 10.536 69.55 9.736V3.192H71.342Z" fill="white"/>
<path d="M80.1998 14.36H78.4238V3.192H82.5998C83.6664 3.192 84.4771 3.49067 85.0318 4.088C85.5971 4.68533 85.8798 5.50667 85.8798 6.552C85.8798 7.40533 85.6718 8.10933 85.2558 8.664C84.8398 9.21867 84.2424 9.56 83.4638 9.688L86.0397 14.36H84.0557L81.6878 9.848H80.1998V14.36ZM82.3438 8.408C83.4531 8.408 84.0078 7.90133 84.0078 6.888V6.2C84.0078 5.18667 83.4531 4.68 82.3438 4.68H80.1998V8.408H82.3438Z" fill="white"/>
<path d="M95.6273 14.36V13H98.2513V4.552H95.6273V3.192H102.667V4.552H100.043V13H102.667V14.36H95.6273Z" fill="white"/>
<path d="M104.293 3.192H107.621C109.05 3.192 110.106 3.66667 110.789 4.616C111.482 5.56533 111.829 6.952 111.829 8.776C111.829 10.6 111.482 11.9867 110.789 12.936C110.106 13.8853 109.05 14.36 107.621 14.36H104.293V3.192ZM107.509 12.888C108.33 12.888 108.938 12.616 109.333 12.072C109.738 11.5173 109.941 10.728 109.941 9.704V7.848C109.941 6.824 109.738 6.04 109.333 5.496C108.938 4.94133 108.33 4.664 107.509 4.664H106.069V12.888H107.509Z" fill="white"/>
<path d="M112.991 14.36V3.192H119.983V4.696H114.783V7.944H119.791V9.448H114.783V12.856H119.983V14.36H112.991Z" fill="white"/>
<path d="M127.64 14.36L126.792 11.384H123.241L122.392 14.36H120.568L123.832 3.192H126.28L129.544 14.36H127.64ZM125.08 5H124.952L123.576 9.896H126.456L125.08 5Z" fill="white"/>
</svg>

