<svg width="184" height="95" viewBox="0 0 184 95" fill="none" xmlns="http://www.w3.org/2000/svg">
<path d="M184.002 92.9675H148.805V2.03711H183.617V20.7319H160.366V36.8832H180.405V55.5779H160.366V74.2727H184.002V92.9675Z" fill="black"/>
<path d="M122.569 92.9675H111.008V2.03711H132.653C142.865 2.03711 149.031 11.4481 149.031 27.9809C149.031 40.6984 145.434 48.2018 139.718 50.7453V50.9996C151.215 54.9421 147.04 90.1696 149.673 91.6957V92.9675H137.663C135.415 89.1522 139.589 61.3008 129.763 61.3008H122.569V92.9675ZM122.569 42.6061H130.405C135.029 42.6061 137.47 39.2995 137.47 31.669C137.47 24.0384 135.029 20.7319 130.405 20.7319H122.569V42.6061Z" fill="black"/>
<path d="M88.9361 95C74.3562 95 66.1992 74.9063 66.1992 47.4364C66.1992 20.0937 74.3562 0 88.9361 0C103.388 0 111.673 20.0937 111.673 47.4364C111.673 74.9063 103.388 95 88.9361 95ZM88.9361 76.3052C97.2858 76.3052 99.8549 63.3333 99.8549 47.4364C99.8549 31.6667 97.2858 18.6948 88.9361 18.6948C80.5222 18.6948 78.0173 31.6667 78.0173 47.4364C78.0173 63.3333 80.5222 76.3052 88.9361 76.3052Z" fill="black"/>
<path d="M58.6316 92.9675H47.0705V20.7319H33.7109V2.03711H71.9269V20.7319H58.6316V92.9675Z" fill="black"/>
<path d="M21.0669 95C9.05622 95 0 82.9183 0 62.0616H11.6896C11.6896 72.6171 15.736 76.5596 20.9385 76.5596C25.2418 76.5596 27.4256 73.1258 27.4256 68.4204C27.4256 60.6627 22.8653 58.6278 16.5067 54.8126C8.54239 49.9799 1.41303 43.8755 1.41303 27.5971C1.41303 7.7577 9.2489 0 19.1401 0C29.8662 0 38.2802 11.1914 38.6013 29.6319H26.9117C26.3979 22.6372 23.5719 18.4404 19.1401 18.4404C15.6718 18.4404 13.2311 20.7296 13.2311 25.9438C13.2311 32.0482 15.8002 34.083 21.645 37.5167C30.3158 42.6037 39.2436 47.4364 39.2436 66.2584C39.2436 83.6814 32.5638 95 21.0669 95Z" fill="black"/>
</svg>

