<svg width="36" height="16" viewBox="0 0 36 16" fill="none" xmlns="http://www.w3.org/2000/svg">
<path d="M7.12048 8.65663L7.16848 5.29663H7.04048L4.80048 11.0406L2.56048 5.29663H2.43248L2.48048 8.65663V14.0006H0.896484V2.83263H3.08848L4.80048 7.26463H4.91248L6.64048 2.83263H8.70448V14.0006H7.12048V8.65663Z" fill="white"/>
<path d="M10.0102 14.0006V2.83263H17.0022V4.33663H11.8022V7.58463H16.8102V9.08863H11.8022V12.4966H17.0022V14.0006H10.0102Z" fill="white"/>
<path d="M23.924 9.08863H20.212V14.0006H18.42V2.83263H20.212V7.58463H23.924V2.83263H25.716V14.0006H23.924V9.08863Z" fill="white"/>
<path d="M32.0937 14.1926C31.6137 14.1926 31.1977 14.118 30.8457 13.9686C30.5044 13.8086 30.2164 13.5366 29.9817 13.1526C29.7577 12.7686 29.5817 12.246 29.4537 11.5846C29.3364 10.9233 29.2671 10.086 29.2457 9.07263H28.1577V14.0006H26.5257V2.83263H28.1577V7.61663H29.2457C29.2777 6.63529 29.3524 5.82463 29.4697 5.18463C29.5977 4.54463 29.7791 4.03796 30.0137 3.66463C30.2484 3.28063 30.5364 3.01396 30.8777 2.86462C31.2191 2.71529 31.6244 2.64062 32.0937 2.64062C32.5951 2.64062 33.0217 2.72596 33.3737 2.89663C33.7364 3.06729 34.0351 3.37129 34.2697 3.80863C34.5044 4.23529 34.6751 4.82196 34.7817 5.56863C34.8884 6.31529 34.9417 7.26463 34.9417 8.41663C34.9417 9.56863 34.8884 10.518 34.7817 11.2646C34.6751 12.0113 34.5044 12.6033 34.2697 13.0406C34.0351 13.4673 33.7364 13.766 33.3737 13.9366C33.0217 14.1073 32.5951 14.1926 32.0937 14.1926ZM32.0937 12.7526C32.2857 12.7526 32.4511 12.7206 32.5897 12.6566C32.7391 12.582 32.8617 12.4486 32.9577 12.2566C33.0537 12.0646 33.1231 11.7926 33.1657 11.4406C33.2191 11.0886 33.2457 10.63 33.2457 10.0646V6.76863C33.2457 6.20329 33.2191 5.74463 33.1657 5.39262C33.1231 5.04062 33.0537 4.76862 32.9577 4.57662C32.8617 4.38462 32.7391 4.25662 32.5897 4.19263C32.4511 4.11796 32.2857 4.08063 32.0937 4.08063C31.9017 4.08063 31.7311 4.11796 31.5817 4.19263C31.4431 4.25662 31.3257 4.38462 31.2297 4.57662C31.1337 4.76862 31.0591 5.04062 31.0057 5.39262C30.9631 5.74463 30.9417 6.20329 30.9417 6.76863V10.0646C30.9417 10.63 30.9631 11.0886 31.0057 11.4406C31.0591 11.7926 31.1337 12.0646 31.2297 12.2566C31.3257 12.4486 31.4431 12.582 31.5817 12.6566C31.7311 12.7206 31.9017 12.7526 32.0937 12.7526Z" fill="white"/>
</svg>

