<svg width="76" height="65" viewBox="0 0 76 65" fill="none" xmlns="http://www.w3.org/2000/svg">
<path d="M76.0003 65H70.3308V36.9091H70.2678C68.9764 42.5455 66.7086 46.1818 64.3778 46.1818C60.5667 46.1818 58.0469 38.3636 58.0469 26V0H63.7164V23.2727C63.7164 29 64.9448 32.5455 66.8976 32.5455C68.441 32.5455 69.5434 30 70.3308 26.7273V0H76.0003V65Z" fill="black"/>
<path d="M46.5523 65H40.8828V0H51.8123C56.5054 0 59.4347 7.09091 59.4347 20.7273C59.4347 34.3636 56.5054 41.4545 51.8123 41.4545H46.5523V65ZM46.5523 28.0909H50.4895C52.4423 28.0909 53.6392 26.1818 53.6392 20.7273C53.6392 15.2727 52.4423 13.3636 50.4895 13.3636H46.5523V28.0909Z" fill="black"/>
<path d="M41.0886 65H23.8281V0H40.8996V13.3636H29.4976V24.9091H39.3247V38.2727H29.4976V51.6364H41.0886V65Z" fill="black"/>
<path d="M5.35452 65H0V0H6.92938L11.5595 41.4545H11.6225L16.2526 0H23.1819V65H17.8274V24.5455H17.7644L13.5753 65H9.60665L5.41752 24.5455H5.35452V65Z" fill="black"/>
</svg>

