<svg width="725" height="202" viewBox="0 0 725 202" fill="none" xmlns="http://www.w3.org/2000/svg">
<path d="M712.307 169.209H704.134C704.134 153.032 704.691 151.205 709.954 143.117C713.359 137.898 714.474 135.68 714.474 130.201C714.474 126.157 713.359 122.243 709.892 122.243C705.992 122.243 704.072 127.592 704.072 137.376H693.547C693.547 119.111 699.057 104.369 710.202 104.369C718.808 104.369 724.999 114.545 724.999 129.679C724.999 140.116 722.584 146.509 718.251 151.597C713.917 156.685 712.307 159.686 712.307 169.209ZM712.988 199.738H703.577V179.907H712.988V199.738Z" fill="black"/>
<path d="M682.71 199.738H671.566V125.635H658.688V106.457H695.526V125.635H682.71V199.738Z" fill="black"/>
<path d="M660.062 199.738H626.133V106.457H659.69V125.635H637.277V142.204H656.594V161.382H637.277V180.56H660.062V199.738Z" fill="black"/>
<path d="M607.583 201.826C595.448 201.826 592.414 186.692 592.414 168.688V160.86H602.32V168.688C602.32 177.56 603.311 182.648 606.964 182.648C610.617 182.648 611.607 177.56 611.607 168.688V106.457H622.752V168.688C622.752 186.692 619.718 201.826 607.583 201.826Z" fill="black"/>
<path d="M574.355 199.738H554.109V106.457H573.736C586.057 106.457 593.487 123.156 593.487 153.163C593.487 183.17 586.676 199.738 574.355 199.738ZM565.254 180.56H572.374C579.308 180.56 582.095 170.123 582.095 153.163C582.095 136.203 579.308 125.635 572.374 125.635H565.254V180.56Z" fill="black"/>
<path d="M532.254 201.826C518.881 201.826 513.742 189.301 513.742 166.079V106.457H524.887V166.079C524.887 178.212 527.363 182.648 532.254 182.648C537.146 182.648 539.622 178.212 539.622 166.079V106.457H550.767V166.079C550.767 189.301 545.628 201.826 532.254 201.826Z" fill="black"/>
<path d="M497.181 199.738H475.078V106.457H496.562C505.787 106.457 510.617 114.024 510.617 129.94C510.617 141.421 507.397 147.162 503.744 149.771V150.032C508.388 151.728 512.35 158.251 512.35 172.211C512.35 192.041 506.345 199.738 497.181 199.738ZM486.223 144.161H493.652C496.748 144.161 499.225 142.595 499.225 134.898C499.225 127.201 496.748 125.635 493.652 125.635H486.223V144.161ZM486.223 180.56H493.962C498.605 180.56 500.958 178.212 500.958 169.471C500.958 160.73 498.605 158.512 493.962 158.512H486.223V180.56Z" fill="black"/>
<path d="M439.234 199.738H428.09V106.457H448.955C458.799 106.457 464.743 116.111 464.743 133.072C464.743 146.118 461.276 153.815 455.765 156.425V156.685C466.848 160.73 462.824 196.868 465.362 198.434V199.738H453.784C451.617 195.824 455.642 167.253 446.169 167.253H439.234V199.738ZM439.234 148.075H446.788C451.246 148.075 453.598 144.683 453.598 136.855C453.598 129.027 451.246 125.635 446.788 125.635H439.234V148.075Z" fill="black"/>
<path d="M406.235 201.826C392.861 201.826 387.723 189.301 387.723 166.079V106.457H398.867V166.079C398.867 178.212 401.344 182.648 406.235 182.648C411.126 182.648 413.603 178.212 413.603 166.079V106.457H424.747V166.079C424.747 189.301 419.608 201.826 406.235 201.826Z" fill="black"/>
<path d="M364.347 201.825C350.293 201.825 342.43 181.212 342.43 153.032C342.43 124.982 350.293 104.369 364.347 104.369C378.278 104.369 386.265 124.982 386.265 153.032C386.265 181.212 378.278 201.825 364.347 201.825ZM364.347 182.647C372.396 182.647 374.873 169.34 374.873 153.032C374.873 136.855 372.396 123.547 364.347 123.547C356.237 123.547 353.822 136.855 353.822 153.032C353.822 169.34 356.237 182.647 364.347 182.647Z" fill="black"/>
<path d="M332.443 199.738H321.298V165.296L306.191 106.457H318.203L326.809 146.118H326.933L335.601 106.457H347.364L332.443 165.296V199.738Z" fill="black"/>
<path d="M284.562 201.825C272.984 201.825 264.254 189.431 264.254 168.035H275.522C275.522 178.864 279.423 182.908 284.438 182.908C288.586 182.908 290.691 179.386 290.691 174.558C290.691 166.6 286.295 164.513 280.166 160.599C272.488 155.641 265.616 149.379 265.616 132.68C265.616 112.327 273.17 104.369 282.704 104.369C293.044 104.369 301.155 115.85 301.464 134.767H290.196C289.701 127.592 286.976 123.286 282.704 123.286C279.361 123.286 277.008 125.635 277.008 130.984C277.008 137.246 279.485 139.333 285.119 142.856C293.477 148.074 302.083 153.032 302.083 172.341C302.083 190.214 295.644 201.825 284.562 201.825Z" fill="black"/>
<path d="M255.543 148.075V138.942C258.143 138.029 260.001 134.637 260.001 126.287H255.543V106.457H264.954V126.287C264.954 138.029 261.611 146.248 255.543 148.075Z" fill="black"/>
<path d="M242.98 199.738H231.835V125.635H218.957V106.457H255.796V125.635H242.98V199.738Z" fill="black"/>
<path d="M194.379 199.738H182.43L199.27 106.457H210.477L227.441 199.738H215.244L212.396 180.299H197.227L194.379 199.738ZM204.781 127.983L199.766 162.426H209.92L204.904 127.983H204.781Z" fill="black"/>
<path d="M156.449 199.738H145.305V106.457H156.449V142.987H171.618V106.457H182.763V199.738H171.618V162.165H156.449V199.738Z" fill="black"/>
<path d="M109.022 199.738H97.8777L86.6094 106.457H97.7539L103.45 169.732H103.574L110.446 106.457H120.972L127.844 169.732H127.968L133.664 106.457H144.809L133.54 199.738H122.396L115.771 141.552H115.647L109.022 199.738Z" fill="black"/>
<path d="M59.5191 201.825C45.4646 201.825 37.6016 181.212 37.6016 153.032C37.6016 124.982 45.4646 104.369 59.5191 104.369C73.4498 104.369 81.4367 124.982 81.4367 153.032C81.4367 181.212 73.4498 201.825 59.5191 201.825ZM59.5191 182.647C67.568 182.647 70.0445 169.34 70.0445 153.032C70.0445 136.855 67.568 123.547 59.5191 123.547C51.4084 123.547 48.9938 136.855 48.9938 153.032C48.9938 169.34 51.4084 182.647 59.5191 182.647Z" fill="black"/>
<path d="M20.3078 201.825C8.72988 201.825 0 189.431 0 168.035H11.2684C11.2684 178.864 15.1689 182.908 20.184 182.908C24.3322 182.908 26.4373 179.386 26.4373 174.558C26.4373 166.6 22.0414 164.513 15.9119 160.599C8.23457 155.641 1.36211 149.379 1.36211 132.68C1.36211 112.327 8.91562 104.369 18.4504 104.369C28.79 104.369 36.9008 115.85 37.2103 134.767H25.942C25.4467 127.592 22.7225 123.286 18.4504 123.286C15.107 123.286 12.7543 125.635 12.7543 130.984C12.7543 137.246 15.2309 139.333 20.865 142.856C29.2234 148.074 37.8295 153.032 37.8295 172.341C37.8295 190.214 31.3904 201.825 20.3078 201.825Z" fill="black"/>
<path d="M674.583 95.3675H665.172V75.5371H674.583V95.3675Z" fill="black"/>
<path d="M657.295 95.3673H646.15V60.9249L631.043 2.08594H643.054L651.66 41.7468H651.784L660.452 2.08594H672.216L657.295 60.9249V95.3673Z" fill="black"/>
<path d="M633.163 95.3673H599.234V2.08594H632.792V21.2641H610.379V37.8329H629.696V57.011H610.379V76.1891H633.163V95.3673Z" fill="black"/>
<path d="M568.746 95.3673H557.602V2.08594H568.746L584.225 57.5329H584.348V2.08594H595.493V95.3673H584.348L568.87 39.9203H568.746V95.3673Z" fill="black"/>
<path d="M533.855 97.4561C519.801 97.4561 511.938 76.8429 511.938 48.6628C511.938 20.6132 519.801 0 533.855 0C547.786 0 555.773 20.6132 555.773 48.6628C555.773 76.8429 547.786 97.4561 533.855 97.4561ZM533.855 78.278C541.904 78.278 544.38 64.9708 544.38 48.6628C544.38 32.4854 541.904 19.1781 533.855 19.1781C525.744 19.1781 523.33 32.4854 523.33 48.6628C523.33 64.9708 525.744 78.278 533.855 78.278Z" fill="black"/>
<path d="M475.006 95.3673H464.48V2.08594H478.102L487.203 61.5772H487.327L496.428 2.08594H510.049V95.3673H499.524V37.3111H499.4L491.165 95.3673H483.364L475.13 37.3111H475.006V95.3673Z" fill="black"/>
<path d="M444.234 95.3673H433.089V21.2641H420.211V2.08594H457.05V21.2641H444.234V95.3673Z" fill="black"/>
<path d="M401.137 97.4547C387.764 97.4547 382.625 84.9302 382.625 61.7077V2.08594H393.77V61.7077C393.77 73.8408 396.246 78.2766 401.137 78.2766C406.028 78.2766 408.505 73.8408 408.505 61.7077V2.08594H419.65V61.7077C419.65 84.9302 414.511 97.4547 401.137 97.4547Z" fill="black"/>
<path d="M359.25 97.4561C345.195 97.4561 337.332 76.8429 337.332 48.6628C337.332 20.6132 345.195 0 359.25 0C373.18 0 381.167 20.6132 381.167 48.6628C381.167 76.8429 373.18 97.4561 359.25 97.4561ZM359.25 78.278C367.298 78.278 369.775 64.9708 369.775 48.6628C369.775 32.4854 367.298 19.1781 359.25 19.1781C351.139 19.1781 348.724 32.4854 348.724 48.6628C348.724 64.9708 351.139 78.278 359.25 78.278Z" fill="black"/>
<path d="M322.263 95.3673H300.16V2.08594H321.644C330.87 2.08594 335.699 9.65282 335.699 25.5693C335.699 37.0501 332.479 42.7905 328.826 45.3998V45.6607C333.47 47.3567 337.432 53.8799 337.432 67.8395C337.432 87.6699 331.427 95.3673 322.263 95.3673ZM311.305 39.7899H318.734C321.83 39.7899 324.307 38.2243 324.307 30.527C324.307 22.8296 321.83 21.2641 318.734 21.2641H311.305V39.7899ZM311.305 76.1891H319.044C323.687 76.1891 326.04 73.8408 326.04 65.0998C326.04 56.3587 323.687 54.1408 319.044 54.1408H311.305V76.1891Z" fill="black"/>
<path d="M267.477 95.3673H255.527L272.368 2.08594H283.574L300.539 95.3673H288.342L285.494 75.9282H270.325L267.477 95.3673ZM277.878 23.6124L272.863 58.0547H283.017L278.002 23.6124H277.878Z" fill="black"/>
<path d="M255.835 95.3673H242.833L231.379 58.968L226.797 70.1878V95.3673H215.652V2.08594H226.797V41.8773L242.647 2.08594H254.596L237.941 42.921L255.835 95.3673Z" fill="black"/>
<path d="M196.499 97.4561C184.921 97.4561 176.191 85.0621 176.191 63.6661H187.46C187.46 74.4946 191.36 78.539 196.375 78.539C200.524 78.539 202.629 75.0164 202.629 70.1893C202.629 62.231 198.233 60.1436 192.103 56.2297C184.426 51.2721 177.554 45.0099 177.554 28.3106C177.554 7.95826 185.107 0 194.642 0C204.981 0 213.092 11.4808 213.402 30.398H202.133C201.638 23.2225 198.914 18.9172 194.642 18.9172C191.298 18.9172 188.946 21.2655 188.946 26.6145C188.946 32.8768 191.422 34.9642 197.056 38.4867C205.415 43.7052 214.021 48.6628 214.021 67.9714C214.021 85.8449 207.582 97.4561 196.499 97.4561Z" fill="black"/>
<path d="M146.961 95.3673H135.012L151.852 2.08594H163.059L180.023 95.3673H167.826L164.978 75.9282H149.809L146.961 95.3673ZM157.363 23.6124L152.348 58.0547H162.502L157.487 23.6124H157.363Z" fill="black"/>
<path d="M130.749 95.3673H96.8203V2.08594H130.378V21.2641H107.965V37.8329H127.282V57.011H107.965V76.1891H130.749V95.3673Z" fill="black"/>
<path d="M60.5418 95.3673H49.3973L38.1289 2.08594H49.2734L54.9695 65.3607H55.0933L61.9658 2.08594H72.4912L79.3637 65.3607H79.4875L85.1836 2.08594H96.3281L85.0597 95.3673H73.9152L67.2904 37.1806H67.1666L60.5418 95.3673Z" fill="black"/>
</svg>

