<svg width="312" height="173" viewBox="0 0 312 173" fill="none" xmlns="http://www.w3.org/2000/svg">
<path d="M232.682 172.13H216.531V133.293H232.505V141.278H221.836V148.176H231.031V156.161H221.836V164.146H232.682V172.13Z" fill="black"/>
<path d="M207.611 173C200.92 173 197.531 164.418 197.531 152.848C197.531 140.953 201.097 132.425 207.758 132.425C213.505 132.425 216.57 138.726 217.071 147.743H211.648C211.265 143.506 210.322 140.41 207.522 140.41C204.015 140.41 202.954 145.407 202.954 152.685C202.954 160.018 204.015 165.016 207.522 165.016C210.351 165.016 211.295 161.92 211.648 157.574H217.071C216.6 166.482 213.417 173 207.611 173Z" fill="black"/>
<path d="M185.086 172.13H179.781V133.293H185.086L192.454 156.378H192.513V133.293H197.818V172.13H192.513L185.145 149.045H185.086V172.13Z" fill="black"/>
<path d="M179.963 172.13H163.812V133.293H179.786V141.278H169.117V148.176H178.313V156.161H169.117V164.146H179.963V172.13Z" fill="black"/>
<path d="M163.235 172.13H157.93V133.293H163.235V172.13Z" fill="black"/>
<path d="M145.883 172.13H140.578V133.293H150.51C155.196 133.293 158.025 137.313 158.025 144.374C158.025 149.806 156.375 153.01 153.752 154.097V154.205C159.027 155.889 157.112 170.935 158.32 171.587V172.13H152.809C151.777 170.501 153.693 158.605 149.184 158.605H145.883V172.13ZM145.883 150.62H149.479C151.601 150.62 152.72 149.208 152.72 145.949C152.72 142.69 151.601 141.278 149.479 141.278H145.883V150.62Z" fill="black"/>
<path d="M140.776 172.13H124.625V133.293H140.599V141.278H129.93V148.176H139.125V156.161H129.93V164.146H140.776V172.13Z" fill="black"/>
<path d="M113.274 172.13H107.969V133.293H118.195C122.587 133.293 125.328 137.53 125.328 145.678C125.328 153.825 122.587 158.062 118.195 158.062H113.274V172.13ZM113.274 150.077H116.958C118.785 150.077 119.905 148.937 119.905 145.678C119.905 142.418 118.785 141.278 116.958 141.278H113.274V150.077Z" fill="black"/>
<path d="M95.1209 172.13H89.2266L96.2114 152.304L89.816 133.293H95.4156L99.2765 145.134H99.3354L103.226 133.293H108.825L102.43 152.196L109.415 172.13H103.52L99.3354 159.529H99.2765L95.1209 172.13Z" fill="black"/>
<path d="M91.4474 172.13H75.2969V133.293H91.2706V141.278H80.6018V148.176H89.797V156.161H80.6018V164.146H91.4474V172.13Z" fill="black"/>
<path d="M305.961 26.9961H302.071C302.071 20.2607 302.336 19.5002 304.841 16.1325C306.462 13.9598 306.993 13.0364 306.993 10.755C306.993 9.07113 306.462 7.44159 304.812 7.44159C302.955 7.44159 302.041 9.66863 302.041 13.7425H297.031C297.031 6.13795 299.654 0 304.959 0C309.056 0 312.003 4.23681 312.003 10.5377C312.003 14.8832 310.853 17.5448 308.79 19.6632C306.727 21.7816 305.961 23.0309 305.961 26.9961ZM306.285 39.7066H301.806V31.4502H306.285V39.7066Z" fill="black"/>
<path d="M290.487 40.5757C284.976 40.5757 280.82 35.4154 280.82 26.5073H286.184C286.184 31.0157 288.041 32.6995 290.428 32.6995C292.403 32.6995 293.405 31.2329 293.405 29.2232C293.405 25.9098 291.312 25.0407 288.395 23.4111C284.74 21.347 281.469 18.7398 281.469 11.787C281.469 3.31341 285.064 0 289.603 0C294.525 0 298.385 4.78 298.533 12.6561H293.169C292.933 9.66863 291.636 7.87613 289.603 7.87613C288.011 7.87613 286.891 8.85386 286.891 11.0809C286.891 13.6882 288.07 14.5573 290.752 16.0239C294.731 18.1966 298.828 20.2607 298.828 28.2998C298.828 35.7414 295.763 40.5757 290.487 40.5757Z" fill="black"/>
<path d="M272.765 40.5747C266.399 40.5747 263.953 35.3602 263.953 25.6916V0.868164H269.258V25.6916C269.258 30.7432 270.437 32.59 272.765 32.59C275.093 32.59 276.272 30.7432 276.272 25.6916V0.868164H281.577V25.6916C281.577 35.3602 279.131 40.5747 272.765 40.5747Z" fill="black"/>
<path d="M243.039 39.7056H237.734V0.868164H243.039V16.0772H250.26V0.868164H255.565V39.7056H250.26V24.062H243.039V39.7056Z" fill="black"/>
<path d="M232.365 39.7056H227.06V8.85293H220.93V0.868164H238.465V8.85293H232.365V39.7056Z" fill="black"/>
<path d="M221.672 39.7056H216.367V0.868164H221.672V39.7056Z" fill="black"/>
<path d="M200.278 39.7056H194.973L189.609 0.868164H194.914L197.626 27.2125H197.685L200.956 0.868164H205.966L209.238 27.2125H209.297L212.008 0.868164H217.313L211.949 39.7056H206.644L203.491 15.4798H203.432L200.278 39.7056Z" fill="black"/>
<path d="M186.221 39.7056H180.032L174.58 24.5509L172.399 29.2222V39.7056H167.094V0.868164H172.399V17.4352L179.943 0.868164H185.632L177.704 17.8697L186.221 39.7056Z" fill="black"/>
<path d="M155.055 39.7056H149.75V0.868164H159.682C164.368 0.868164 167.197 4.88771 167.197 11.9491C167.197 17.3809 165.547 20.5857 162.924 21.672V21.7807C168.199 23.4645 166.284 38.5107 167.492 39.1625V39.7056H161.981C160.949 38.0761 162.865 26.1804 158.356 26.1804H155.055V39.7056ZM155.055 18.1957H158.65C160.772 18.1957 161.892 16.7834 161.892 13.5243C161.892 10.2652 160.772 8.85293 158.65 8.85293H155.055V18.1957Z" fill="black"/>
<path d="M139.628 40.5757C132.938 40.5757 129.195 31.9934 129.195 20.2607C129.195 8.58227 132.938 0 139.628 0C146.259 0 150.061 8.58227 150.061 20.2607C150.061 31.9934 146.259 40.5757 139.628 40.5757ZM139.628 32.5909C143.46 32.5909 144.639 27.0504 144.639 20.2607C144.639 13.5252 143.46 7.98477 139.628 7.98477C135.768 7.98477 134.618 13.5252 134.618 20.2607C134.618 27.0504 135.768 32.5909 139.628 32.5909Z" fill="black"/>
<path d="M114.45 39.7056H109.145L103.781 0.868164H109.086L111.798 27.2125H111.857L115.128 0.868164H120.138L123.409 27.2125H123.468L126.18 0.868164H131.485L126.121 39.7056H120.816L117.662 15.4798H117.604L114.45 39.7056Z" fill="black"/>
<path d="M84.5474 39.7056H78.8594L86.8757 0.868164H92.2101L100.285 39.7056H94.4794L93.1237 31.6122H85.9031L84.5474 39.7056ZM89.4987 9.83066L87.1115 24.1707H91.9448L89.5576 9.83066H89.4987Z" fill="black"/>
<path d="M67.4377 39.7056H62.1328V0.868164H67.4377L74.8057 23.9534H74.8646V0.868164H80.1695V39.7056H74.8646L67.4967 16.6204H67.4377V39.7056Z" fill="black"/>
<path d="M48.8049 39.7056H43.5V0.868164H48.8049L56.1729 23.9534H56.2318V0.868164H61.5367V39.7056H56.2318L48.8639 16.6204H48.8049V39.7056Z" fill="black"/>
<path d="M29.1256 39.7056H23.4375L31.4538 0.868164H36.7882L44.8635 39.7056H39.0575L37.7018 31.6122H30.4813L29.1256 39.7056ZM34.0768 9.83066L31.6896 24.1707H36.523L34.1358 9.83066H34.0768Z" fill="black"/>
<path d="M10.6688 39.7056H5.36386L0 0.868164H5.30492L8.01632 27.2125H8.07527L11.3466 0.868164H16.3568L19.6282 27.2125H19.6871L22.3986 0.868164H27.7035L22.3396 39.7056H17.0347L13.8812 15.4798H13.8223L10.6688 39.7056Z" fill="black"/>
<path d="M302.99 83.2701H297.685V52.4174H291.555V44.4326H309.09V52.4174H302.99V83.2701Z" fill="black"/>
<path d="M283.656 84.1392C277.29 84.1392 274.844 78.9247 274.844 69.256V44.4326H280.149V69.256C280.149 74.3076 281.328 76.1544 283.656 76.1544C285.984 76.1544 287.163 74.3076 287.163 69.256V44.4326H292.468V69.256C292.468 78.9247 290.022 84.1392 283.656 84.1392Z" fill="black"/>
<path d="M264.902 84.1401C258.212 84.1401 254.469 75.5578 254.469 63.8251C254.469 52.1467 258.212 43.5645 264.902 43.5645C271.533 43.5645 275.335 52.1467 275.335 63.8251C275.335 75.5578 271.533 84.1401 264.902 84.1401ZM264.902 76.1553C268.733 76.1553 269.912 70.6149 269.912 63.8251C269.912 57.0897 268.733 51.5492 264.902 51.5492C261.041 51.5492 259.892 57.0897 259.892 63.8251C259.892 70.6149 261.041 76.1553 264.902 76.1553Z" fill="black"/>
<path d="M248.467 83.2701H237.945V44.4326H248.172C252.563 44.4326 254.862 47.5831 254.862 54.2099C254.862 58.9899 253.33 61.3799 251.591 62.4662V62.5749C253.801 63.281 255.687 65.9969 255.687 71.809C255.687 80.0653 252.829 83.2701 248.467 83.2701ZM243.25 60.1306H246.787C248.26 60.1306 249.439 59.4787 249.439 56.274C249.439 53.0692 248.26 52.4174 246.787 52.4174H243.25V60.1306ZM243.25 75.2853H246.934C249.145 75.2853 250.265 74.3076 250.265 70.6683C250.265 67.029 249.145 66.1056 246.934 66.1056H243.25V75.2853Z" fill="black"/>
<path d="M223.571 83.2701H217.883L225.899 44.4326H231.234L239.309 83.2701H233.503L232.147 75.1767H224.927L223.571 83.2701ZM228.522 53.3951L226.135 67.7351H230.968L228.581 53.3951H228.522Z" fill="black"/>
<path d="M204.76 84.1401C199.249 84.1401 195.094 78.9799 195.094 70.0717H200.458C200.458 74.5801 202.314 76.264 204.702 76.264C206.676 76.264 207.678 74.7974 207.678 72.7876C207.678 69.4742 205.586 68.6051 202.668 66.9756C199.014 64.9115 195.742 62.3042 195.742 55.3515C195.742 46.8779 199.338 43.5645 203.876 43.5645C208.798 43.5645 212.659 48.3444 212.806 56.2206H207.442C207.207 53.2331 205.91 51.4406 203.876 51.4406C202.285 51.4406 201.165 52.4183 201.165 54.6454C201.165 57.2526 202.344 58.1217 205.026 59.5883C209.004 61.761 213.101 63.8251 213.101 71.8642C213.101 79.3058 210.036 84.1401 204.76 84.1401Z" fill="black"/>
<path d="M197.693 83.2701H183.016V44.4326H188.321V75.2853H197.693V83.2701Z" fill="black"/>
<path d="M182.43 83.2701H177.125V44.4326H182.43V83.2701Z" fill="black"/>
<path d="M162.751 83.2701H157.062L165.079 44.4326H170.413L178.488 83.2701H172.683L171.327 75.1767H164.106L162.751 83.2701ZM167.702 53.3951L165.315 67.7351H170.148L167.761 53.3951H167.702Z" fill="black"/>
<path d="M156.115 83.2701H150.81V52.4174H144.68V44.4326H162.215V52.4174H156.115V83.2701Z" fill="black"/>
<path d="M146.518 83.2701H130.367V44.4326H146.341V52.4174H135.672V59.3158H144.867V67.3006H135.672V75.2853H146.518V83.2701Z" fill="black"/>
<path d="M121.504 83.2701H111.867V44.4326H121.21C127.075 44.4326 130.611 51.3853 130.611 63.8785C130.611 76.3717 127.369 83.2701 121.504 83.2701ZM117.172 75.2853H120.561C123.862 75.2853 125.188 70.9399 125.188 63.8785C125.188 56.8172 123.862 52.4174 120.561 52.4174H117.172V75.2853Z" fill="black"/>
<path d="M95.9402 84.1401C90.429 84.1401 86.2734 78.9799 86.2734 70.0717H91.6373C91.6373 74.5801 93.494 76.264 95.8812 76.264C97.8558 76.264 98.8579 74.7974 98.8579 72.7876C98.8579 69.4742 96.7654 68.6051 93.8477 66.9756C90.1932 64.9115 86.9218 62.3042 86.9218 55.3515C86.9218 46.8779 90.5174 43.5645 95.056 43.5645C99.9778 43.5645 103.839 48.3444 103.986 56.2206H98.6221C98.3863 53.2331 97.0896 51.4406 95.056 51.4406C93.4645 51.4406 92.3446 52.4183 92.3446 54.6454C92.3446 57.2526 93.5235 58.1217 96.2054 59.5883C100.184 61.761 104.281 63.8251 104.281 71.8642C104.281 79.3058 101.216 84.1401 95.9402 84.1401Z" fill="black"/>
<path d="M78.2183 84.1392C71.8524 84.1392 69.4062 78.9247 69.4062 69.256V44.4326H74.7112V69.256C74.7112 74.3076 75.89 76.1544 78.2183 76.1544C80.5466 76.1544 81.7255 74.3076 81.7255 69.256V44.4326H87.0304V69.256C87.0304 78.9247 84.5842 84.1392 78.2183 84.1392Z" fill="black"/>
<path d="M61.7833 83.2701H45.6328V44.4326H61.6065V52.4174H50.9377V59.3158H60.1329V67.3006H50.9377V75.2853H61.7833V83.2701Z" fill="black"/>
<path d="M39.7936 83.2701H34.194L27.1797 44.4326H32.9856L36.9643 71.646H37.0233L41.0314 44.4326H46.6311L39.7936 83.2701Z" fill="black"/>
<path d="M28.2815 83.2701H22.9766V44.4326H28.2815V83.2701Z" fill="black"/>
<path d="M12.4551 84.1401C6.47234 84.1401 2.90625 75.5578 2.90625 63.8251C2.90625 52.1467 6.47233 43.5645 13.1035 43.5645C18.88 43.5645 22.0924 49.8654 22.5934 57.3069H17.1706C16.7875 54.6454 15.9328 51.5492 13.0151 51.5492C9.5374 51.5492 8.32906 56.5465 8.32906 63.8251C8.32906 71.1581 9.5374 76.1553 13.2214 76.1553C15.6675 76.1553 17.3769 73.4394 17.4358 69.6915H13.4277V62.6301H22.9176V83.271H19.1157L18.5852 78.3281H18.5263C17.5243 81.8588 15.5496 84.1401 12.4551 84.1401Z" fill="black"/>
<path d="M297.244 126.834H291.055L285.603 111.679L283.422 116.35V126.834H278.117V87.9961H283.422V104.563L290.967 87.9961H296.655L288.727 104.998L297.244 126.834Z" fill="black"/>
<path d="M266.086 126.834H260.781V87.9961H270.713C275.399 87.9961 278.229 92.0156 278.229 99.077C278.229 104.509 276.578 107.714 273.955 108.8V108.909C279.231 110.592 277.315 125.639 278.523 126.29V126.834H273.012C271.981 125.204 273.896 113.308 269.387 113.308H266.086V126.834ZM266.086 105.324H269.682C271.804 105.324 272.924 103.911 272.924 100.652C272.924 97.3931 271.804 95.9809 269.682 95.9809H266.086V105.324Z" fill="black"/>
<path d="M250.652 127.704C243.962 127.704 240.219 119.121 240.219 107.389C240.219 95.7102 243.962 87.1279 250.652 87.1279C257.283 87.1279 261.085 95.7102 261.085 107.389C261.085 119.121 257.283 127.704 250.652 127.704ZM250.652 119.719C254.483 119.719 255.662 114.178 255.662 107.389C255.662 100.653 254.483 95.1127 250.652 95.1127C246.791 95.1127 245.642 100.653 245.642 107.389C245.642 114.178 246.791 119.719 250.652 119.719Z" fill="black"/>
<path d="M225.466 126.834H220.161L214.797 87.9961H220.102L222.813 114.34H222.872L226.144 87.9961H231.154L234.425 114.34H234.484L237.195 87.9961H242.5L237.136 126.834H231.832L228.678 102.608H228.619L225.466 126.834Z" fill="black"/>
<path d="M197.016 126.834H191.711V87.9961H201.643C206.329 87.9961 209.158 92.0156 209.158 99.077C209.158 104.509 207.508 107.714 204.885 108.8V108.909C210.16 110.592 208.245 125.639 209.453 126.29V126.834H203.942C202.91 125.204 204.826 113.308 200.317 113.308H197.016V126.834ZM197.016 105.324H200.611C202.733 105.324 203.853 103.911 203.853 100.652C203.853 97.3931 202.733 95.9809 200.611 95.9809H197.016V105.324Z" fill="black"/>
<path d="M182.492 127.703C176.126 127.703 173.68 122.488 173.68 112.819V87.9961H178.985V112.819C178.985 117.871 180.163 119.718 182.492 119.718C184.82 119.718 185.999 117.871 185.999 112.819V87.9961H191.304V112.819C191.304 122.488 188.858 127.703 182.492 127.703Z" fill="black"/>
<path d="M163.73 127.704C157.04 127.704 153.297 119.121 153.297 107.389C153.297 95.7102 157.04 87.1279 163.73 87.1279C170.361 87.1279 174.163 95.7102 174.163 107.389C174.163 119.121 170.361 127.704 163.73 127.704ZM163.73 119.719C167.561 119.719 168.74 114.178 168.74 107.389C168.74 100.653 167.561 95.1127 163.73 95.1127C159.869 95.1127 158.72 100.653 158.72 107.389C158.72 114.178 159.869 119.719 163.73 119.719Z" fill="black"/>
<path d="M149.723 126.834H144.418V112.494L137.227 87.9961H142.944L147.041 104.509H147.1L151.226 87.9961H156.825L149.723 112.494V126.834Z" fill="black"/>
<path d="M123.028 126.834H113.391V87.9961H122.733C128.598 87.9961 132.135 94.9488 132.135 107.442C132.135 119.935 128.893 126.834 123.028 126.834ZM118.696 118.849H122.085C125.386 118.849 126.712 114.503 126.712 107.442C126.712 100.381 125.386 95.9809 122.085 95.9809H118.696V118.849Z" fill="black"/>
<path d="M100.063 126.834H94.7578V87.9961H100.063L107.431 111.081H107.49V87.9961H112.795V126.834H107.49L100.122 103.748H100.063V126.834Z" fill="black"/>
<path d="M80.3834 126.834H74.6953L82.7116 87.9961H88.046L96.1213 126.834H90.3154L88.9597 118.74H81.7391L80.3834 126.834ZM85.3346 96.9586L82.9474 111.299H87.7808L85.3936 96.9586H85.3346Z" fill="black"/>
<path d="M60.023 129.435C53.6571 129.435 51.2109 124.221 51.2109 114.552V89.7285H56.5159V114.552C56.5159 119.604 57.6947 121.45 60.023 121.45C62.3513 121.45 63.5301 119.604 63.5301 114.552V89.7285H68.835V114.552C68.835 124.221 66.3889 129.435 60.023 129.435Z" fill="black"/>
<path d="M41.2611 129.436C34.571 129.436 30.8281 120.854 30.8281 109.121C30.8281 97.4426 34.571 88.8604 41.2611 88.8604C47.8923 88.8604 51.6942 97.4426 51.6942 109.121C51.6942 120.854 47.8923 129.436 41.2611 129.436ZM41.2611 121.451C45.0925 121.451 46.2713 115.911 46.2713 109.121C46.2713 102.386 45.0925 96.8451 41.2611 96.8451C37.4003 96.8451 36.2509 102.386 36.2509 109.121C36.2509 115.911 37.4003 121.451 41.2611 121.451Z" fill="black"/>
<path d="M27.2539 128.566H21.9489V114.226L14.7578 89.7285H20.4753L24.5719 106.241H24.6309L28.7569 89.7285H34.3565L27.2539 114.226V128.566Z" fill="black"/>
</svg>

