<svg width="140" height="16" viewBox="0 0 140 16" fill="none" xmlns="http://www.w3.org/2000/svg">
<path d="M1.728 14V2.832H3.52V12.496H8.608V14H1.728ZM9.91375 14V12.64H12.5378V4.192H9.91375V2.832H16.9538V4.192H14.3298V12.64H16.9538V14H9.91375ZM22.9635 4.336V14H21.1715V4.336H17.6675V2.832H26.4675V4.336H22.9635ZM27.2773 14V2.832H34.2693V4.336H29.0693V7.584H34.0773V9.088H29.0693V12.496H34.2693V14H27.2773ZM39.239 14.192C38.2683 14.192 37.4523 14.0213 36.791 13.68C36.1297 13.3387 35.5857 12.8853 35.159 12.32L36.311 11.216C36.7377 11.728 37.191 12.1067 37.671 12.352C38.151 12.5867 38.695 12.704 39.303 12.704C40.007 12.704 40.5457 12.544 40.919 12.224C41.303 11.904 41.495 11.4453 41.495 10.848C41.495 10.368 41.3563 10 41.079 9.744C40.8017 9.47733 40.327 9.28533 39.655 9.168L38.439 8.976C37.9057 8.89067 37.4577 8.752 37.095 8.56C36.7323 8.35733 36.439 8.12267 36.215 7.856C35.991 7.57867 35.8257 7.27467 35.719 6.944C35.623 6.60267 35.575 6.24533 35.575 5.872C35.575 4.816 35.9163 4.016 36.599 3.472C37.2817 2.91733 38.2203 2.64 39.415 2.64C40.3003 2.64 41.0523 2.784 41.671 3.072C42.3003 3.34933 42.807 3.744 43.191 4.256L42.071 5.376C41.7617 5.00267 41.3937 4.704 40.967 4.48C40.551 4.24533 40.0337 4.128 39.415 4.128C38.7537 4.128 38.247 4.272 37.895 4.56C37.5537 4.83733 37.383 5.248 37.383 5.792C37.383 6.25067 37.5163 6.61333 37.783 6.88C38.0603 7.136 38.5457 7.32267 39.239 7.44L40.423 7.648C41.4257 7.82933 42.1563 8.19733 42.615 8.752C43.0737 9.296 43.303 9.96267 43.303 10.752C43.303 11.264 43.2123 11.7333 43.031 12.16C42.8603 12.5867 42.599 12.9493 42.247 13.248C41.9057 13.5467 41.479 13.7813 40.967 13.952C40.4657 14.112 39.8897 14.192 39.239 14.192ZM49.8248 9.088H46.1128V14H44.3208V2.832H46.1128V7.584H49.8248V2.832H51.6168V14H49.8248V9.088ZM56.6025 14.192C55.8985 14.192 55.2852 14.064 54.7625 13.808C54.2505 13.5413 53.8238 13.1627 53.4825 12.672C53.1518 12.1813 52.9065 11.5787 52.7465 10.864C52.5865 10.1493 52.5065 9.33333 52.5065 8.416C52.5065 7.50933 52.5865 6.69867 52.7465 5.984C52.9065 5.25867 53.1518 4.65067 53.4825 4.16C53.8238 3.66933 54.2505 3.296 54.7625 3.04C55.2852 2.77333 55.8985 2.64 56.6025 2.64C57.3065 2.64 57.9145 2.77333 58.4265 3.04C58.9492 3.296 59.3758 3.66933 59.7065 4.16C60.0478 4.65067 60.2985 5.25867 60.4585 5.984C60.6185 6.69867 60.6985 7.50933 60.6985 8.416C60.6985 9.33333 60.6185 10.1493 60.4585 10.864C60.2985 11.5787 60.0478 12.1813 59.7065 12.672C59.3758 13.1627 58.9492 13.5413 58.4265 13.808C57.9145 14.064 57.3065 14.192 56.6025 14.192ZM56.6025 12.704C57.4025 12.704 57.9678 12.4053 58.2985 11.808C58.6292 11.2 58.7945 10.3787 58.7945 9.344V7.472C58.7945 6.448 58.6292 5.63733 58.2985 5.04C57.9678 4.432 57.4025 4.128 56.6025 4.128C55.8025 4.128 55.2372 4.432 54.9065 5.04C54.5758 5.63733 54.4105 6.448 54.4105 7.472V9.36C54.4105 10.384 54.5758 11.2 54.9065 11.808C55.2372 12.4053 55.8025 12.704 56.6025 12.704ZM61.7802 14V2.832H65.9562C67.0229 2.832 67.8336 3.13067 68.3882 3.728C68.9536 4.32533 69.2362 5.14667 69.2362 6.192C69.2362 7.23733 68.9536 8.05867 68.3882 8.656C67.8336 9.25333 67.0229 9.552 65.9562 9.552H63.5722V14H61.7802ZM63.5722 8.064H65.6842C66.7936 8.064 67.3482 7.552 67.3482 6.528V5.84C67.3482 4.82667 66.7936 4.32 65.6842 4.32H63.5722V8.064ZM77.79 14H70.078V12.288L73.726 9.104C74.302 8.592 74.7447 8.10667 75.054 7.648C75.374 7.18933 75.534 6.704 75.534 6.192V6.016C75.534 5.42933 75.374 4.98133 75.054 4.672C74.734 4.352 74.27 4.192 73.662 4.192C73.0433 4.192 72.5633 4.35733 72.222 4.688C71.8913 5.01867 71.6513 5.44 71.502 5.952L69.934 5.36C70.0407 5.008 70.1953 4.672 70.398 4.352C70.6007 4.02133 70.8567 3.728 71.166 3.472C71.486 3.216 71.8593 3.01333 72.286 2.864C72.7233 2.71467 73.2247 2.64 73.79 2.64C74.366 2.64 74.878 2.72533 75.326 2.896C75.7847 3.056 76.1687 3.28 76.478 3.568C76.7873 3.856 77.022 4.20267 77.182 4.608C77.342 5.00267 77.422 5.44 77.422 5.92C77.422 6.368 77.3527 6.784 77.214 7.168C77.086 7.54133 76.8993 7.904 76.654 8.256C76.4193 8.59733 76.1367 8.928 75.806 9.248C75.4753 9.568 75.1127 9.888 74.718 10.208L72.014 12.48H77.79V14ZM82.5038 13.712C81.8318 13.712 81.2024 13.5893 80.6158 13.344C80.0398 13.0987 79.5331 12.7467 79.0958 12.288C78.6691 11.8293 78.3278 11.2747 78.0718 10.624C77.8264 9.97333 77.7038 9.23733 77.7038 8.416C77.7038 7.60533 77.8264 6.87467 78.0718 6.224C78.3278 5.56267 78.6691 5.00267 79.0958 4.544C79.5331 4.08533 80.0398 3.73333 80.6158 3.488C81.2024 3.24267 81.8318 3.12 82.5038 3.12C83.1758 3.12 83.7998 3.24267 84.3758 3.488C84.9624 3.73333 85.4691 4.08533 85.8958 4.544C86.3331 5.00267 86.6744 5.56267 86.9198 6.224C87.1758 6.87467 87.3038 7.60533 87.3038 8.416C87.3038 9.23733 87.1758 9.97333 86.9198 10.624C86.6744 11.2747 86.3331 11.8293 85.8958 12.288C85.4691 12.7467 84.9624 13.0987 84.3758 13.344C83.7998 13.5893 83.1758 13.712 82.5038 13.712ZM82.5038 12.832C83.0478 12.832 83.5491 12.7307 84.0078 12.528C84.4771 12.3253 84.8771 12.048 85.2078 11.696C85.5491 11.3333 85.8158 10.912 86.0078 10.432C86.1998 9.952 86.2958 9.44 86.2958 8.896V7.936C86.2958 7.392 86.1998 6.88 86.0078 6.4C85.8158 5.92 85.5491 5.504 85.2078 5.152C84.8771 4.78933 84.4771 4.50667 84.0078 4.304C83.5491 4.10133 83.0478 4 82.5038 4C81.9598 4 81.4531 4.10133 80.9838 4.304C80.5251 4.50667 80.1251 4.78933 79.7838 5.152C79.4531 5.504 79.1918 5.92 78.9998 6.4C78.8078 6.88 78.7118 7.392 78.7118 7.936V8.896C78.7118 9.44 78.8078 9.952 78.9998 10.432C79.1918 10.912 79.4531 11.3333 79.7838 11.696C80.1251 12.048 80.5251 12.3253 80.9838 12.528C81.4531 12.7307 81.9598 12.832 82.5038 12.832ZM82.6158 11.392C81.7838 11.392 81.1278 11.1253 80.6478 10.592C80.1784 10.048 79.9438 9.32267 79.9438 8.416C79.9438 7.50933 80.1838 6.78933 80.6638 6.256C81.1544 5.712 81.8051 5.44 82.6158 5.44C83.1918 5.44 83.6558 5.57333 84.0078 5.84C84.3598 6.10667 84.6264 6.45333 84.8078 6.88L83.7518 7.44C83.6344 7.184 83.4851 6.98133 83.3038 6.832C83.1331 6.68267 82.9091 6.608 82.6318 6.608C82.2584 6.608 81.9651 6.73067 81.7518 6.976C81.5384 7.21067 81.4318 7.52533 81.4318 7.92V8.928C81.4318 9.312 81.5331 9.62667 81.7358 9.872C81.9491 10.1067 82.2531 10.224 82.6478 10.224C82.9571 10.224 83.2024 10.144 83.3838 9.984C83.5758 9.824 83.7358 9.62133 83.8638 9.376L84.9038 9.952C84.7224 10.3573 84.4451 10.6987 84.0718 10.976C83.7091 11.2533 83.2238 11.392 82.6158 11.392ZM98.0913 14H96.3153V2.832H100.491C101.558 2.832 102.369 3.13067 102.923 3.728C103.489 4.32533 103.771 5.14667 103.771 6.192C103.771 7.04533 103.563 7.74933 103.147 8.304C102.731 8.85867 102.134 9.2 101.355 9.328L103.931 14H101.947L99.5793 9.488H98.0913V14ZM100.235 8.048C101.345 8.048 101.899 7.54133 101.899 6.528V5.84C101.899 4.82667 101.345 4.32 100.235 4.32H98.0913V8.048H100.235ZM110.997 14L110.149 11.024H106.597L105.749 14H103.925L107.189 2.832H109.637L112.901 14H110.997ZM108.437 4.64H108.309L106.933 9.536H109.813L108.437 4.64ZM113.551 2.832H116.879C118.308 2.832 119.364 3.30667 120.047 4.256C120.74 5.20533 121.087 6.592 121.087 8.416C121.087 10.24 120.74 11.6267 120.047 12.576C119.364 13.5253 118.308 14 116.879 14H113.551V2.832ZM116.767 12.528C117.588 12.528 118.196 12.256 118.591 11.712C118.996 11.1573 119.199 10.368 119.199 9.344V7.488C119.199 6.464 118.996 5.68 118.591 5.136C118.196 4.58133 117.588 4.304 116.767 4.304H115.327V12.528H116.767ZM122.152 14V12.64H124.776V4.192H122.152V2.832H129.192V4.192H126.568V12.64H129.192V14H122.152ZM134.306 14.192C133.602 14.192 132.989 14.064 132.466 13.808C131.954 13.5413 131.528 13.1627 131.186 12.672C130.856 12.1813 130.61 11.5787 130.45 10.864C130.29 10.1493 130.21 9.33333 130.21 8.416C130.21 7.50933 130.29 6.69867 130.45 5.984C130.61 5.25867 130.856 4.65067 131.186 4.16C131.528 3.66933 131.954 3.296 132.466 3.04C132.989 2.77333 133.602 2.64 134.306 2.64C135.01 2.64 135.618 2.77333 136.13 3.04C136.653 3.296 137.08 3.66933 137.41 4.16C137.752 4.65067 138.002 5.25867 138.162 5.984C138.322 6.69867 138.402 7.50933 138.402 8.416C138.402 9.33333 138.322 10.1493 138.162 10.864C138.002 11.5787 137.752 12.1813 137.41 12.672C137.08 13.1627 136.653 13.5413 136.13 13.808C135.618 14.064 135.01 14.192 134.306 14.192ZM134.306 12.704C135.106 12.704 135.672 12.4053 136.002 11.808C136.333 11.2 136.498 10.3787 136.498 9.344V7.472C136.498 6.448 136.333 5.63733 136.002 5.04C135.672 4.432 135.106 4.128 134.306 4.128C133.506 4.128 132.941 4.432 132.61 5.04C132.28 5.63733 132.114 6.448 132.114 7.472V9.36C132.114 10.384 132.28 11.2 132.61 11.808C132.941 12.4053 133.506 12.704 134.306 12.704Z" fill="white"/>
</svg>

