<svg width="156" height="65" viewBox="0 0 156 65" fill="none" xmlns="http://www.w3.org/2000/svg">
<path d="M138.855 63.6091H129.93V1.39355H135.688V20.6238H139.174C144.293 20.6238 147.523 29.0642 147.523 41.8554C147.523 55.5167 144.165 63.6091 138.855 63.6091ZM155.201 63.6091H149.443V1.39355H155.201V63.6091ZM135.688 33.415V50.8179H138.695C140.518 50.8179 141.638 47.6854 141.638 41.8554C141.638 36.9826 140.614 33.415 138.982 33.415H135.688Z" fill="black"/>
<path d="M124.107 63.6091H118.349V14.1847H111.695V1.39355H130.729V14.1847H124.107V63.6091Z" fill="black"/>
<path d="M114.457 1.39355L105.34 32.1098L115.033 63.6091H107.803L100.702 40.0281H99.0705V63.6091H93.3125V1.39355H99.0705V27.2369H100.702L108.251 1.39355H114.457Z" fill="black"/>
<path d="M77.7754 63.2155H71.6016L80.3025 1H86.0924L94.8573 63.2155H88.5555L87.0841 50.2503H79.2469L77.7754 63.2155ZM83.1495 15.3574L80.5584 38.3293H85.8045L83.2134 15.3574H83.1495Z" fill="black"/>
<path d="M70.5132 63.6091H64.7552V14.1847H58.1016V1.39355H77.1348V14.1847H70.5132V63.6091Z" fill="black"/>
<path d="M45.3126 63.6091H39.5547V1.39355H45.3126V25.7577H53.1499V1.39355H58.9078V63.6091H53.1499V38.5488H45.3126V63.6091Z" fill="black"/>
<path d="M28.5662 65C21.3047 65 17.2422 51.2517 17.2422 32.4565C17.2422 13.7483 21.3047 0 28.5662 0C35.7636 0 39.8902 13.7483 39.8902 32.4565C39.8902 51.2517 35.7636 65 28.5662 65ZM28.5662 52.2088C32.7247 52.2088 34.0042 43.3333 34.0042 32.4565C34.0042 21.6667 32.7247 12.7912 28.5662 12.7912C24.3757 12.7912 23.1281 21.6667 23.1281 32.4565C23.1281 43.3333 24.3757 52.2088 28.5662 52.2088Z" fill="black"/>
<path d="M21.1445 1.39355L12.0277 32.1098L21.7203 63.6091H14.4909L7.38938 40.0281H5.75796V63.6091H0V1.39355H5.75796V27.2369H7.38938L14.9387 1.39355H21.1445Z" fill="black"/>
</svg>

