<svg width="45" height="17" viewBox="0 0 45 17" fill="none" xmlns="http://www.w3.org/2000/svg">
<path d="M5.08 14.552C4.10933 14.552 3.29333 14.3813 2.632 14.04C1.97067 13.6987 1.42667 13.2453 1 12.68L2.152 11.576C2.57867 12.088 3.032 12.4667 3.512 12.712C3.992 12.9467 4.536 13.064 5.144 13.064C5.848 13.064 6.38667 12.904 6.76 12.584C7.144 12.264 7.336 11.8053 7.336 11.208C7.336 10.728 7.19733 10.36 6.92 10.104C6.64267 9.83733 6.168 9.64533 5.496 9.528L4.28 9.336C3.74667 9.25067 3.29867 9.112 2.936 8.92C2.57333 8.71733 2.28 8.48267 2.056 8.216C1.832 7.93867 1.66667 7.63467 1.56 7.304C1.464 6.96267 1.416 6.60533 1.416 6.232C1.416 5.176 1.75733 4.376 2.44 3.832C3.12267 3.27733 4.06133 3 5.256 3C6.14133 3 6.89333 3.144 7.512 3.432C8.14133 3.70933 8.648 4.104 9.032 4.616L7.912 5.736C7.60267 5.36267 7.23467 5.064 6.808 4.84C6.392 4.60533 5.87467 4.488 5.256 4.488C4.59467 4.488 4.088 4.632 3.736 4.92C3.39467 5.19733 3.224 5.608 3.224 6.152C3.224 6.61067 3.35733 6.97333 3.624 7.24C3.90133 7.496 4.38667 7.68267 5.08 7.8L6.264 8.008C7.26667 8.18933 7.99733 8.55733 8.456 9.112C8.91467 9.656 9.144 10.3227 9.144 11.112C9.144 11.624 9.05333 12.0933 8.872 12.52C8.70133 12.9467 8.44 13.3093 8.088 13.608C7.74667 13.9067 7.32 14.1413 6.808 14.312C6.30667 14.472 5.73067 14.552 5.08 14.552Z" fill="white"/>
<path d="M14.7058 4.696V14.36H12.9138V4.696H9.40975V3.192H18.2098V4.696H14.7058Z" fill="white"/>
<path d="M22.4435 14.552C21.7395 14.552 21.1262 14.424 20.6035 14.168C20.0915 13.9013 19.6648 13.5227 19.3235 13.032C18.9928 12.5413 18.7475 11.9387 18.5875 11.224C18.4275 10.5093 18.3475 9.69333 18.3475 8.776C18.3475 7.86933 18.4275 7.05867 18.5875 6.344C18.7475 5.61867 18.9928 5.01067 19.3235 4.52C19.6648 4.02933 20.0915 3.656 20.6035 3.4C21.1262 3.13333 21.7395 3 22.4435 3C23.1475 3 23.7555 3.13333 24.2675 3.4C24.7902 3.656 25.2168 4.02933 25.5475 4.52C25.8888 5.01067 26.1395 5.61867 26.2995 6.344C26.4595 7.05867 26.5395 7.86933 26.5395 8.776C26.5395 9.69333 26.4595 10.5093 26.2995 11.224C26.1395 11.9387 25.8888 12.5413 25.5475 13.032C25.2168 13.5227 24.7902 13.9013 24.2675 14.168C23.7555 14.424 23.1475 14.552 22.4435 14.552ZM22.4435 13.064C23.2435 13.064 23.8088 12.7653 24.1395 12.168C24.4702 11.56 24.6355 10.7387 24.6355 9.704V7.832C24.6355 6.808 24.4702 5.99733 24.1395 5.4C23.8088 4.792 23.2435 4.488 22.4435 4.488C21.6435 4.488 21.0782 4.792 20.7475 5.4C20.4168 5.99733 20.2515 6.808 20.2515 7.832V9.72C20.2515 10.744 20.4168 11.56 20.7475 12.168C21.0782 12.7653 21.6435 13.064 22.4435 13.064Z" fill="white"/>
<path d="M29.3973 14.36H27.6213V3.192H31.7973C32.8639 3.192 33.6746 3.49067 34.2293 4.088C34.7946 4.68533 35.0773 5.50667 35.0773 6.552C35.0773 7.40533 34.8693 8.10933 34.4533 8.664C34.0373 9.21867 33.4399 9.56 32.6613 9.688L35.2373 14.36H33.2533L30.8853 9.848H29.3973V14.36ZM31.5413 8.408C32.6506 8.408 33.2052 7.90133 33.2052 6.888V6.2C33.2052 5.18667 32.6506 4.68 31.5413 4.68H29.3973V8.408H31.5413Z" fill="white"/>
<path d="M36.287 14.36V3.192H43.279V4.696H38.079V7.944H43.087V9.448H38.079V12.856H43.279V14.36H36.287Z" fill="white"/>
</svg>

