<svg width="140" height="18" viewBox="0 0 140 18" fill="none" xmlns="http://www.w3.org/2000/svg">
<path d="M1.184 3.93552H8.416V15.1035H6.624V5.43952H2.976V15.1035H1.184V3.93552ZM13.4338 15.2955C12.7298 15.2955 12.1164 15.1675 11.5938 14.9115C11.0818 14.6448 10.6551 14.2662 10.3138 13.7755C9.98308 13.2848 9.73775 12.6822 9.57775 11.9675C9.41775 11.2528 9.33775 10.4368 9.33775 9.51952C9.33775 8.61285 9.41775 7.80218 9.57775 7.08751C9.73775 6.36218 9.98308 5.75418 10.3138 5.26352C10.6551 4.77285 11.0818 4.39952 11.5938 4.14351C12.1164 3.87685 12.7298 3.74352 13.4338 3.74352C14.1378 3.74352 14.7458 3.87685 15.2578 4.14351C15.7804 4.39952 16.2071 4.77285 16.5378 5.26352C16.8791 5.75418 17.1298 6.36218 17.2898 7.08751C17.4498 7.80218 17.5298 8.61285 17.5298 9.51952C17.5298 10.4368 17.4498 11.2528 17.2898 11.9675C17.1298 12.6822 16.8791 13.2848 16.5378 13.7755C16.2071 14.2662 15.7804 14.6448 15.2578 14.9115C14.7458 15.1675 14.1378 15.2955 13.4338 15.2955ZM13.4338 13.8075C14.2338 13.8075 14.7991 13.5088 15.1298 12.9115C15.4604 12.3035 15.6258 11.4822 15.6258 10.4475V8.57552C15.6258 7.55152 15.4604 6.74085 15.1298 6.14352C14.7991 5.53552 14.2338 5.23151 13.4338 5.23151C12.6338 5.23151 12.0684 5.53552 11.7378 6.14352C11.4071 6.74085 11.2418 7.55152 11.2418 8.57552V10.4635C11.2418 11.4875 11.4071 12.3035 11.7378 12.9115C12.0684 13.5088 12.6338 13.8075 13.4338 13.8075ZM17.4755 13.5995H18.3555C18.5688 13.3115 18.7608 12.9755 18.9315 12.5915C19.1022 12.2075 19.2462 11.7542 19.3635 11.2315C19.4915 10.6982 19.5875 10.0955 19.6515 9.42352C19.7155 8.75152 19.7475 7.98352 19.7475 7.11952V3.93552H25.3315V13.5995H26.5315V17.5035H24.8835V15.1035H19.1395V17.5035H17.4755V13.5995ZM23.5715 5.43952H21.3955V7.32752C21.3955 8.97018 21.2888 10.2928 21.0755 11.2955C20.8728 12.2875 20.6008 13.0555 20.2595 13.5995H23.5715V5.43952ZM27.2773 15.1035V3.93552H34.2693V5.43952H29.0693V8.68752H34.0773V10.1915H29.0693V13.5995H34.2693V15.1035H27.2773ZM41.271 5.43952H38.711V7.42352C38.711 8.46885 38.679 9.37552 38.615 10.1435C38.551 10.9115 38.455 11.5728 38.327 12.1275C38.199 12.6715 38.039 13.1248 37.847 13.4875C37.6657 13.8395 37.4577 14.1328 37.223 14.3675C36.9457 14.6342 36.647 14.8262 36.327 14.9435C36.007 15.0502 35.6123 15.1035 35.143 15.1035H34.663V13.5995H35.751C35.9643 13.3862 36.151 13.1195 36.311 12.7995C36.471 12.4795 36.599 12.0742 36.695 11.5835C36.8017 11.0928 36.8817 10.4955 36.935 9.79152C36.9883 9.07685 37.015 8.21818 37.015 7.21552V3.93552H43.063V15.1035H41.271V5.43952ZM44.2728 3.93552H46.0328V8.92752L45.8088 12.0795H45.9208L49.9688 3.93552H51.6648V15.1035H49.9048V10.1115L50.1288 6.95952H50.0168L45.9688 15.1035H44.2728V3.93552ZM57.4985 5.43952V15.1035H55.7065V5.43952H52.2025V3.93552H61.0025V5.43952H57.4985ZM61.7482 3.93552H63.5402V8.22352H66.0042C67.0282 8.22352 67.8229 8.52218 68.3882 9.11952C68.9642 9.71685 69.2522 10.5648 69.2522 11.6635C69.2522 12.7515 68.9642 13.5995 68.3882 14.2075C67.8229 14.8048 67.0282 15.1035 66.0042 15.1035H61.7482V3.93552ZM65.7962 13.6315C66.2869 13.6315 66.6709 13.5088 66.9482 13.2635C67.2256 13.0075 67.3642 12.6235 67.3642 12.1115V11.2155C67.3642 10.7035 67.2256 10.3248 66.9482 10.0795C66.6709 9.82352 66.2869 9.69552 65.7962 9.69552H63.5402V13.6315H65.7962ZM74.19 15.2955C72.7713 15.2955 71.7153 14.7942 71.022 13.7915C70.3393 12.7888 69.998 11.3648 69.998 9.51952C69.998 7.67418 70.3393 6.25018 71.022 5.24751C71.7153 4.24485 72.7713 3.74352 74.19 3.74352C74.734 3.74352 75.2033 3.81818 75.598 3.96751C76.0033 4.10618 76.35 4.30352 76.638 4.55951C76.926 4.80485 77.166 5.09818 77.358 5.43952C77.5607 5.77018 77.726 6.12752 77.854 6.51152L76.238 7.05552C76.1527 6.79952 76.0567 6.55952 75.95 6.33552C75.8433 6.11152 75.71 5.91952 75.55 5.75951C75.39 5.59951 75.198 5.47152 74.974 5.37551C74.7607 5.27951 74.494 5.23151 74.174 5.23151C73.3847 5.23151 72.8087 5.53552 72.446 6.14352C72.0833 6.74085 71.902 7.55152 71.902 8.57552V10.4635C71.902 11.4875 72.0833 12.3035 72.446 12.9115C72.8087 13.5088 73.3847 13.8075 74.174 13.8075C74.494 13.8075 74.7607 13.7595 74.974 13.6635C75.198 13.5675 75.39 13.4395 75.55 13.2795C75.71 13.1195 75.8433 12.9275 75.95 12.7035C76.0567 12.4795 76.1527 12.2395 76.238 11.9835L77.854 12.5275C77.726 12.9115 77.5607 13.2742 77.358 13.6155C77.166 13.9462 76.926 14.2395 76.638 14.4955C76.35 14.7408 76.0033 14.9382 75.598 15.0875C75.2033 15.2262 74.734 15.2955 74.19 15.2955ZM78.2798 13.5995H79.2558L80.3758 11.3435C80.5358 11.0235 80.7011 10.7942 80.8718 10.6555C81.0531 10.5062 81.2718 10.4102 81.5278 10.3675V10.2715C80.5891 10.2182 79.8851 9.92485 79.4158 9.39152C78.9464 8.85818 78.7118 8.13818 78.7118 7.23152C78.7118 6.22885 78.9944 5.42885 79.5598 4.83152C80.1251 4.23418 80.9251 3.93552 81.9598 3.93552H86.0558V15.1035H84.2638V10.5275H82.7598L81.0958 13.8715C80.8611 14.3408 80.6104 14.6662 80.3438 14.8475C80.0878 15.0182 79.7731 15.1035 79.3998 15.1035H78.2798V13.5995ZM84.2638 5.40752H82.1678C81.6664 5.40752 81.2771 5.53552 80.9998 5.79152C80.7331 6.03685 80.5998 6.41552 80.5998 6.92752V7.55152C80.5998 8.06352 80.7331 8.44752 80.9998 8.70352C81.2771 8.94885 81.6664 9.07152 82.1678 9.07152H84.2638V5.40752ZM96.0753 3.93552H97.8353V8.92752L97.6113 12.0795H97.7233L101.771 3.93552H103.467V15.1035H101.707V10.1115L101.931 6.95952H101.819L97.7713 15.1035H96.0753V3.93552ZM103.813 13.5995H104.693C104.906 13.3115 105.098 12.9755 105.269 12.5915C105.44 12.2075 105.584 11.7542 105.701 11.2315C105.829 10.6982 105.925 10.0955 105.989 9.42352C106.053 8.75152 106.085 7.98352 106.085 7.11952V3.93552H111.669V13.5995H112.869V17.5035H111.221V15.1035H105.477V17.5035H103.813V13.5995ZM109.909 5.43952H107.733V7.32752C107.733 8.97018 107.626 10.2928 107.413 11.2955C107.21 12.2875 106.938 13.0555 106.597 13.5995H109.909V5.43952ZM113.615 15.1035V3.93552H120.607V5.43952H115.407V8.68752H120.415V10.1915H115.407V13.5995H120.607V15.1035H113.615ZM122.248 15.1035V3.93552H129.24V5.43952H124.04V8.68752H129.048V10.1915H124.04V13.5995H129.24V15.1035H122.248ZM130.61 3.93552H132.37V8.92752L132.146 12.0795H132.258L136.306 3.93552H138.002V15.1035H136.242V10.1115L136.466 6.95952H136.354L132.306 15.1035H130.61V3.93552ZM134.306 3.03952C133.688 3.03952 133.186 2.90618 132.802 2.63951C132.418 2.36218 132.104 1.95151 131.858 1.40751L131.458 0.511515L132.914 -0.00048542L133.49 1.69551C133.586 1.73818 133.714 1.77018 133.874 1.79152C134.034 1.80218 134.178 1.80752 134.306 1.80752C134.434 1.80752 134.578 1.80218 134.738 1.79152C134.898 1.77018 135.026 1.73818 135.122 1.69551L135.698 -0.00048542L137.154 0.511515L136.754 1.40751C136.509 1.95151 136.194 2.36218 135.81 2.63951C135.426 2.90618 134.925 3.03952 134.306 3.03952Z" fill="white"/>
</svg>

