<svg width="35" height="17" viewBox="0 0 35 17" fill="none" xmlns="http://www.w3.org/2000/svg">
<path d="M7.224 8.824L7.272 5.464H7.144L4.904 11.208L2.664 5.464H2.536L2.584 8.824V14.168H1V3H3.192L4.904 7.432H5.016L6.744 3H8.808V14.168H7.224V8.824Z" fill="white"/>
<path d="M10.1138 14.168V3H17.1057V4.504H11.9058V7.752H16.9138V9.256H11.9058V12.664H17.1057V14.168H10.1138Z" fill="white"/>
<path d="M20.2355 5.576H20.0915V14.168H18.5235V3H20.8275L24.1075 11.592H24.2515V3H25.8195V14.168H23.5155L20.2355 5.576Z" fill="white"/>
<path d="M28.9013 3V9.864C28.9013 10.3227 28.9119 10.7387 28.9333 11.112C28.9653 11.4853 29.0453 11.8053 29.1733 12.072C29.3013 12.328 29.4933 12.5253 29.7493 12.664C30.0053 12.8027 30.3573 12.872 30.8053 12.872C31.2533 12.872 31.6053 12.8027 31.8613 12.664C32.1173 12.5253 32.3093 12.328 32.4373 12.072C32.5653 11.8053 32.6399 11.4853 32.6613 11.112C32.6933 10.7387 32.7093 10.3227 32.7093 9.864V3H34.5013V9.544C34.5013 10.344 34.4533 11.048 34.3573 11.656C34.2719 12.2533 34.0959 12.7547 33.8293 13.16C33.5626 13.5547 33.1839 13.8533 32.6933 14.056C32.2133 14.2587 31.5839 14.36 30.8053 14.36C30.0266 14.36 29.3919 14.2587 28.9013 14.056C28.4213 13.8533 28.0479 13.5547 27.7812 13.16C27.5146 12.7547 27.3333 12.2533 27.2373 11.656C27.1519 11.048 27.1093 10.344 27.1093 9.544V3H28.9013Z" fill="white"/>
</svg>

