<svg width="310" height="270" viewBox="0 0 310 270" fill="none" xmlns="http://www.w3.org/2000/svg">
<path d="M309.999 264.217H250.699V5.7832H309.35V58.9157H270.177V104.819H303.939V157.952H270.177V211.084H309.999V264.217Z" fill="black"/>
<path d="M206.498 264.217H187.02V5.7832H223.487C240.692 5.7832 251.081 32.5302 251.081 79.5182C251.081 115.663 245.021 136.988 235.39 144.217V144.94C254.76 156.145 247.726 256.265 252.163 260.603V264.217H231.927C228.14 253.374 235.174 174.217 218.617 174.217H206.498V264.217ZM206.498 121.084H219.699C227.491 121.084 231.603 111.687 231.603 90.0001C231.603 68.3133 227.491 58.9157 219.699 58.9157H206.498V121.084Z" fill="black"/>
<path d="M149.842 270C125.278 270 111.535 212.892 111.535 134.819C111.535 57.1084 125.278 0 149.842 0C174.19 0 188.149 57.1084 188.149 134.819C188.149 212.892 174.19 270 149.842 270ZM149.842 216.867C163.909 216.867 168.238 180 168.238 134.819C168.238 90 163.909 53.1325 149.842 53.1325C135.666 53.1325 131.446 90 131.446 134.819C131.446 180 135.666 216.867 149.842 216.867Z" fill="black"/>
<path d="M98.7829 264.217H79.3048V58.9157H56.7969V5.7832H121.183V58.9157H98.7829V264.217Z" fill="black"/>
<path d="M35.4933 270C15.2578 270 0 235.663 0 176.386H19.6945C19.6945 206.386 26.5118 217.59 35.2769 217.59C42.5271 217.59 46.2063 207.831 46.2063 194.458C46.2063 172.41 38.5233 166.627 27.8103 155.783C14.3921 142.048 2.38065 124.699 2.38065 78.4337C2.38065 22.0482 15.5824 0 32.247 0C50.3183 0 64.494 31.8072 65.0351 84.2169H45.3406C44.4749 64.3373 39.7136 52.4096 32.247 52.4096C26.4036 52.4096 22.2916 58.9157 22.2916 73.7349C22.2916 91.0843 26.62 96.8675 36.4672 106.627C51.0758 121.084 66.1172 134.819 66.1172 188.313C66.1172 237.831 54.8632 270 35.4933 270Z" fill="black"/>
</svg>

