<svg width="665" height="231" viewBox="0 0 665 231" fill="none" xmlns="http://www.w3.org/2000/svg">
<path d="M641.941 183.251H633.861C633.861 166.985 634.412 165.149 639.615 157.016C642.982 151.769 644.083 149.539 644.083 144.029C644.083 139.963 642.982 136.028 639.554 136.028C635.698 136.028 633.8 141.406 633.8 151.244H623.395C623.395 132.88 628.842 118.057 639.86 118.057C648.368 118.057 654.489 128.288 654.489 143.505C654.489 153.999 652.102 160.426 647.817 165.542C643.533 170.658 641.941 173.675 641.941 183.251ZM642.614 213.946H633.31V194.008H642.614V213.946Z" fill="black"/>
<path d="M599.371 213.947H587.312V213.16C589.638 204.109 589.149 176.3 599.004 172.233V171.971C592.638 168.691 589.761 160.034 589.761 147.047C589.761 131.7 595.637 120.156 605.002 120.156H625.018V213.947H614V181.284H608.797C599.554 181.284 600.656 206.47 599.371 213.947ZM606.288 163.313H614V139.439H605.492C602.737 139.439 601.024 144.424 601.024 150.589C601.024 158.328 602.799 163.313 606.288 163.313Z" fill="black"/>
<path d="M562.975 213.947H551.957V120.156H562.975V156.886H577.971V120.156H588.989V213.947H577.971V176.168H562.975V213.947Z" fill="black"/>
<path d="M517.524 231H507.73V194.795H510.913C514.402 194.795 515.321 188.105 515.749 171.184L516.973 120.156H548.19V194.795H552.781V231H542.987V214.078H517.524V231ZM523.033 194.533V194.795H537.172V139.439H526.767L525.543 176.562C525.237 185.744 524.441 190.86 523.033 194.533Z" fill="black"/>
<path d="M491.137 216.045C477.242 216.045 469.469 195.319 469.469 166.985C469.469 138.782 477.242 118.057 491.137 118.057C504.909 118.057 512.805 138.782 512.805 166.985C512.805 195.319 504.909 216.045 491.137 216.045ZM491.137 196.762C499.094 196.762 501.543 183.382 501.543 166.985C501.543 150.719 499.094 137.34 491.137 137.34C483.119 137.34 480.731 150.719 480.731 166.985C480.731 183.382 483.119 196.762 491.137 196.762Z" fill="black"/>
<path d="M457.307 213.947H446.289V120.156H474.813V139.439H457.307V213.947Z" fill="black"/>
<path d="M446.676 213.947H413.133V120.156H446.309V139.439H424.151V156.098H443.248V175.381H424.151V194.664H446.676V213.947Z" fill="black"/>
<path d="M394.594 216.045C380.699 216.045 373.66 195.319 373.66 167.379C373.66 138.651 381.067 118.057 394.9 118.057C406.836 118.057 413.202 133.273 414.242 155.048H402.98C402.184 144.817 400.225 137.34 394.41 137.34C387.126 137.34 384.923 149.408 384.923 166.985C384.923 184.694 387.126 196.762 394.41 196.762C400.286 196.762 402.245 189.285 402.98 178.791H414.242C413.263 200.304 406.652 216.045 394.594 216.045Z" fill="black"/>
<path d="M334.07 213.947H323.664V120.156H337.13L346.128 179.973H346.251L355.248 120.156H368.715V213.947H358.309V155.574H358.186L350.045 213.947H342.333L334.192 155.574H334.07V213.947Z" fill="black"/>
<path d="M293.806 213.947H281.992L298.641 120.156H309.72L326.492 213.947H314.433L311.618 194.402H296.621L293.806 213.947ZM304.089 141.8L299.131 176.431H309.169L304.211 141.8H304.089Z" fill="black"/>
<path d="M272.696 213.947H250.844V120.156H272.084C281.204 120.156 285.978 127.764 285.978 143.768C285.978 155.311 282.795 161.083 279.184 163.707V163.969C283.775 165.674 287.692 172.233 287.692 186.269C287.692 206.208 281.755 213.947 272.696 213.947ZM261.862 158.066H269.207C272.267 158.066 274.716 156.492 274.716 148.753C274.716 141.013 272.267 139.439 269.207 139.439H261.862V158.066ZM261.862 194.664H269.513C274.103 194.664 276.429 192.303 276.429 183.514C276.429 174.725 274.103 172.495 269.513 172.495H261.862V194.664Z" fill="black"/>
<path d="M231.712 213.947H213.41V120.156H224.428V149.146H232.324C242.118 149.146 248.3 161.87 248.3 181.153C248.3 201.748 241.873 213.947 231.712 213.947ZM224.428 168.429V194.664H231.406C234.895 194.664 237.037 189.942 237.037 181.153C237.037 173.807 235.078 168.429 231.957 168.429H224.428Z" fill="black"/>
<path d="M212.194 213.947H201.177V173.414H201.054C198.545 181.547 194.137 186.794 189.608 186.794C182.201 186.794 177.305 175.513 177.305 157.673V120.156H188.322V153.737C188.322 162.001 190.71 167.117 194.505 167.117C197.504 167.117 199.646 163.444 201.177 158.722V120.156H212.194V213.947Z" fill="black"/>
<path d="M157.801 216.045C143.906 216.045 136.133 195.319 136.133 166.985C136.133 138.782 143.906 118.057 157.801 118.057C171.573 118.057 179.469 138.782 179.469 166.985C179.469 195.319 171.573 216.045 157.801 216.045ZM157.801 196.762C165.758 196.762 168.207 183.382 168.207 166.985C168.207 150.719 165.758 137.34 157.801 137.34C149.783 137.34 147.395 150.719 147.395 166.985C147.395 183.382 149.783 196.762 157.801 196.762Z" fill="black"/>
<path d="M102.066 213.947H91.6602V120.156H105.126L114.124 179.973H114.247L123.244 120.156H136.711V213.947H126.305V155.574H126.183L118.042 213.947H110.329L102.188 155.574H102.066V213.947Z" fill="black"/>
<path d="M70.6331 216.045C56.7385 216.045 48.9648 195.319 48.9648 166.985C48.9648 138.782 56.7385 118.057 70.6331 118.057C84.4054 118.057 92.3014 138.782 92.3014 166.985C92.3014 195.319 84.4054 216.045 70.6331 216.045ZM70.6331 196.762C78.5904 196.762 81.0388 183.382 81.0388 166.985C81.0388 150.719 78.5904 137.34 70.6331 137.34C62.6146 137.34 60.2275 150.719 60.2275 166.985C60.2275 183.382 62.6146 196.762 70.6331 196.762Z" fill="black"/>
<path d="M24.1818 213.947H13.1641V120.156H49.5839V213.947H38.5662V139.439H24.1818V213.947Z" fill="black"/>
<path d="M630.355 95.8905H619.949V2.09961H633.415L642.413 61.9159H642.536L651.533 2.09961H665V95.8905H654.594V37.5171H654.472L646.331 95.8905H638.618L630.477 37.5171H630.355V95.8905Z" fill="black"/>
<path d="M620.344 95.8905H586.801V2.09961H619.977V21.3825H597.819V38.0418H616.916V57.3247H597.819V76.6076H620.344V95.8905Z" fill="black"/>
<path d="M588.882 2.09961L575.783 48.9295L589.616 95.8905H577.191L567.275 60.3418H564.153V95.8905H553.135V60.3418H550.013L540.097 95.8905H527.672L541.505 48.9295L528.406 2.09961H539.853L550.013 41.0589H553.135V2.09961H564.153V41.0589H567.275L577.435 2.09961H588.882Z" fill="black"/>
<path d="M513.254 97.9885C499.36 97.9885 491.586 77.2627 491.586 48.9287C491.586 20.7258 499.36 0 513.254 0C527.026 0 534.923 20.7258 534.923 48.9287C534.923 77.2627 527.026 97.9885 513.254 97.9885ZM513.254 78.7056C521.212 78.7056 523.66 65.3257 523.66 48.9287C523.66 32.6628 521.212 19.2829 513.254 19.2829C505.236 19.2829 502.849 32.6628 502.849 48.9287C502.849 65.3257 505.236 78.7056 513.254 78.7056Z" fill="black"/>
<path d="M457.523 95.8905H447.117V2.09961H460.583L469.581 61.9159H469.704L478.701 2.09961H492.168V95.8905H481.762V37.5171H481.64L473.499 95.8905H465.786L457.645 37.5171H457.523V95.8905Z" fill="black"/>
<path d="M409.07 95.8905H391.992V2.09961H403.01V31.0895H409.682C419.475 31.0895 425.658 43.8136 425.658 63.0965C425.658 83.6911 419.231 95.8905 409.07 95.8905ZM440.348 95.8905H429.33V2.09961H440.348V95.8905ZM403.01 50.3724V76.6076H408.764C412.253 76.6076 414.395 71.8853 414.395 63.0965C414.395 55.7506 412.436 50.3724 409.315 50.3724H403.01Z" fill="black"/>
<path d="M356.097 95.8905H345.691V2.09961H359.158L368.155 61.9159H368.278L377.276 2.09961H390.742V95.8905H380.336V37.5171H380.214L372.073 95.8905H364.36L356.22 37.5171H356.097V95.8905Z" fill="black"/>
<path d="M343.995 2.09961L326.55 48.4048L345.097 95.8905H331.263L317.675 60.3418H314.553V95.8905H303.535V2.09961H314.553V41.0589H317.675L332.12 2.09961H343.995Z" fill="black"/>
<path d="M273.677 95.8905H261.863L278.512 2.09961H289.591L306.363 95.8905H294.305L291.489 76.3453H276.492L273.677 95.8905ZM283.96 23.7437L279.002 58.3741H289.04L284.082 23.7437H283.96Z" fill="black"/>
<path d="M268.37 2.09961L250.925 48.4048L269.472 95.8905H255.638L242.05 60.3418H238.928V95.8905H227.91V2.09961H238.928V41.0589H242.05L256.495 2.09961H268.37Z" fill="black"/>
<path d="M219.561 65.1953H214.665L211.91 22.5631V2.09961H222.316V22.5631L219.561 65.1953ZM221.826 95.8905H212.522V75.9517H221.826V95.8905Z" fill="black"/>
<path d="M201.933 95.8905H190.915V21.3825H178.184V2.09961H214.603V21.3825H201.933V95.8905Z" fill="black"/>
<path d="M181.984 95.8905H148.441V2.09961H181.617V21.3825H159.459V38.0418H178.557V57.3247H159.459V76.6076H181.984V95.8905Z" fill="black"/>
<path d="M134.153 95.8905H112.301V2.09961H133.541C142.661 2.09961 147.435 9.70783 147.435 25.7113C147.435 37.2548 144.252 43.0265 140.641 45.6501V45.9124C145.232 47.6177 149.149 54.1765 149.149 68.2123C149.149 88.1511 143.212 95.8905 134.153 95.8905ZM123.319 40.0095H130.664C133.724 40.0095 136.173 38.4354 136.173 30.696C136.173 22.9566 133.724 21.3825 130.664 21.3825H123.319V40.0095ZM123.319 76.6076H130.97C135.561 76.6076 137.887 74.2464 137.887 65.4576C137.887 56.6688 135.561 54.4389 130.97 54.4389H123.319V76.6076Z" fill="black"/>
<path d="M83.2365 95.8905H72.2188V2.09961H83.2365V60.3418H83.3589L100.069 2.09961H111.087V95.8905H100.069V37.6483H99.9468L83.2365 95.8905Z" fill="black"/>
<path d="M48.6545 95.8905H37.6367V2.09961H58.8765C67.9968 2.09961 73.6893 12.3313 73.6893 32.0078C73.6893 51.6842 67.9968 61.9159 58.8765 61.9159H48.6545V95.8905ZM48.6545 42.633H56.3057C60.1007 42.633 62.4267 39.8783 62.4267 32.0078C62.4267 24.1372 60.1007 21.3825 56.3057 21.3825H48.6545V42.633Z" fill="black"/>
<path d="M11.0178 95.8905H0V2.09961H36.4199V95.8905H25.4021V21.3825H11.0178V95.8905Z" fill="black"/>
</svg>

