<svg width="1158" height="384" viewBox="0 0 1158 384" fill="none" xmlns="http://www.w3.org/2000/svg">
<path d="M1158 381.382H1109.49V264.398H1157.47V288.45H1125.42V309.228H1153.04V333.28H1125.42V357.331H1158V381.382Z" fill="black"/>
<path d="M1082.69 384C1062.6 384 1052.42 358.149 1052.42 323.3C1052.42 287.469 1063.13 261.781 1083.14 261.781C1100.39 261.781 1109.6 280.76 1111.1 307.92H1094.82C1093.67 295.158 1090.84 285.832 1082.43 285.832C1071.89 285.832 1068.71 300.885 1068.71 322.809C1068.71 344.897 1071.89 359.949 1082.43 359.949C1090.92 359.949 1093.76 350.623 1094.82 337.534H1111.1C1109.69 364.367 1100.13 384 1082.69 384Z" fill="black"/>
<path d="M1015.04 381.382H999.109V264.398H1015.04L1037.17 333.934H1037.35V264.398H1053.28V381.382H1037.35L1015.22 311.846H1015.04V381.382Z" fill="black"/>
<path d="M999.668 381.382H951.164V264.398H999.137V288.45H967.096V309.228H994.712V333.28H967.096V357.331H999.668V381.382Z" fill="black"/>
<path d="M949.416 381.382H933.484V264.398H949.416V381.382Z" fill="black"/>
<path d="M897.323 381.382H881.391V264.398H911.219C925.292 264.398 933.789 276.506 933.789 297.776C933.789 314.137 928.833 323.79 920.955 327.062V327.389C936.799 332.461 931.045 377.782 934.674 379.746V381.382H918.123C915.025 376.473 920.778 340.642 907.236 340.642H897.323V381.382ZM897.323 316.591H908.121C914.494 316.591 917.857 312.337 917.857 302.52C917.857 292.704 914.494 288.45 908.121 288.45H897.323V316.591Z" fill="black"/>
<path d="M881.957 381.382H833.453V264.398H881.426V288.45H849.385V309.228H877.001V333.28H849.385V357.331H881.957V381.382Z" fill="black"/>
<path d="M799.373 381.382H783.441V264.398H814.155C827.343 264.398 835.575 277.16 835.575 301.702C835.575 326.244 827.343 339.006 814.155 339.006H799.373V381.382ZM799.373 314.955H810.437C815.925 314.955 819.288 311.519 819.288 301.702C819.288 291.885 815.925 288.45 810.437 288.45H799.373V314.955Z" fill="black"/>
<path d="M744.851 381.382H727.148L748.126 321.663L728.919 264.398H745.736L757.331 300.066H757.508L769.191 264.398H786.008L766.802 321.336L787.779 381.382H770.076L757.508 343.424H757.331L744.851 381.382Z" fill="black"/>
<path d="M733.824 381.382H685.32V264.398H733.293V288.45H701.252V309.228H728.868V333.28H701.252V357.331H733.824V381.382Z" fill="black"/>
<path d="M668.393 381.382H649.806L633.431 335.734L626.881 349.804V381.382H610.949V264.398H626.881V314.3L649.54 264.398H666.623L642.813 315.609L668.393 381.382Z" fill="black"/>
<path d="M574.795 381.382H558.863V264.398H588.692C602.765 264.398 611.262 276.506 611.262 297.776C611.262 314.137 606.305 323.79 598.428 327.062V327.389C614.271 332.461 608.518 377.782 612.147 379.746V381.382H595.595C592.498 376.473 598.251 340.642 584.709 340.642H574.795V381.382ZM574.795 316.591H585.594C591.967 316.591 595.33 312.337 595.33 302.52C595.33 292.704 591.967 288.45 585.594 288.45H574.795V316.591Z" fill="black"/>
<path d="M528.45 384C508.358 384 497.117 358.149 497.117 322.809C497.117 287.632 508.358 261.781 528.45 261.781C548.365 261.781 559.783 287.632 559.783 322.809C559.783 358.149 548.365 384 528.45 384ZM528.45 359.949C539.957 359.949 543.497 343.261 543.497 322.809C543.497 302.521 539.957 285.832 528.45 285.832C516.855 285.832 513.403 302.521 513.403 322.809C513.403 343.261 516.855 359.949 528.45 359.949Z" fill="black"/>
<path d="M452.826 381.382H436.894L420.785 264.398H436.717L444.86 343.751H445.037L454.862 264.398H469.909L479.734 343.751H479.911L488.054 264.398H503.986L487.877 381.382H471.945L462.474 308.41H462.297L452.826 381.382Z" fill="black"/>
<path d="M367.381 381.382H351.449V264.398H381.278C395.351 264.398 403.848 276.506 403.848 297.776C403.848 314.137 398.891 323.79 391.014 327.062V327.389C406.857 332.461 401.104 377.782 404.733 379.746V381.382H388.181C385.084 376.473 390.837 340.642 377.295 340.642H367.381V381.382ZM367.381 316.591H378.18C384.552 316.591 387.916 312.337 387.916 302.52C387.916 292.704 384.552 288.45 378.18 288.45H367.381V316.591Z" fill="black"/>
<path d="M323.738 384C304.62 384 297.273 368.293 297.273 339.17V264.398H313.205V339.17C313.205 354.386 316.746 359.948 323.738 359.948C330.731 359.948 334.271 354.386 334.271 339.17V264.398H350.203V339.17C350.203 368.293 342.857 384 323.738 384Z" fill="black"/>
<path d="M267.395 384C247.303 384 236.062 358.149 236.062 322.809C236.062 287.632 247.303 261.781 267.395 261.781C287.311 261.781 298.729 287.632 298.729 322.809C298.729 358.149 287.311 384 267.395 384ZM267.395 359.949C278.902 359.949 282.442 343.261 282.442 322.809C282.442 302.521 278.902 285.832 267.395 285.832C255.801 285.832 252.349 302.521 252.349 322.809C252.349 343.261 255.801 359.949 267.395 359.949Z" fill="black"/>
<path d="M225.333 381.382H209.401V338.188L187.805 264.398H204.976L217.279 314.137H217.456L229.848 264.398H246.665L225.333 338.188V381.382Z" fill="black"/>
<path d="M145.181 381.382H116.238V264.398H144.296C161.91 264.398 172.531 285.341 172.531 322.972C172.531 360.603 162.795 381.382 145.181 381.382ZM132.17 357.331H142.349C152.262 357.331 156.245 344.242 156.245 322.972C156.245 301.702 152.262 288.45 142.349 288.45H132.17V357.331Z" fill="black"/>
<path d="M76.1937 381.382H60.2617V264.398H76.1937L98.3216 333.934H98.4986V264.398H114.431V381.382H98.4986L76.3708 311.846H76.1937V381.382Z" fill="black"/>
<path d="M17.0827 381.382H0L24.0751 264.398H40.0956L64.3477 381.382H46.911L42.8395 357.003H21.1542L17.0827 381.382ZM31.9526 291.395L24.7832 334.588H39.299L32.1296 291.395H31.9526Z" fill="black"/>
<path d="M1095.93 253.109C1076.82 253.109 1069.47 237.402 1069.47 208.279V133.508H1085.4V208.279C1085.4 223.495 1088.94 229.058 1095.93 229.058C1102.93 229.058 1106.47 223.495 1106.47 208.279V133.508H1122.4V208.279C1122.4 237.402 1115.05 253.109 1095.93 253.109Z" fill="black"/>
<path d="M1039.59 253.11C1019.5 253.11 1008.26 227.259 1008.26 191.918C1008.26 156.741 1019.5 130.891 1039.59 130.891C1059.51 130.891 1070.92 156.741 1070.92 191.918C1070.92 227.259 1059.51 253.11 1039.59 253.11ZM1039.59 229.058C1051.1 229.058 1054.64 212.37 1054.64 191.918C1054.64 171.63 1051.1 154.942 1039.59 154.942C1028 154.942 1024.54 171.63 1024.54 191.918C1024.54 212.37 1028 229.058 1039.59 229.058Z" fill="black"/>
<path d="M997.529 250.491H981.597V207.297L960 133.508H977.171L989.474 183.246H989.651L1002.04 133.508H1018.86L997.529 207.297V250.491Z" fill="black"/>
<path d="M930.12 250.491H914.188V157.559H895.777V133.508H948.442V157.559H930.12V250.491Z" fill="black"/>
<path d="M872.051 253.109C852.932 253.109 845.586 237.402 845.586 208.279V133.508H861.518V208.279C861.518 223.495 865.058 229.058 872.051 229.058C879.043 229.058 882.584 223.495 882.584 208.279V133.508H898.516V208.279C898.516 237.402 891.169 253.109 872.051 253.109Z" fill="black"/>
<path d="M815.708 253.11C795.616 253.11 784.375 227.259 784.375 191.918C784.375 156.741 795.616 130.891 815.708 130.891C835.623 130.891 847.041 156.741 847.041 191.918C847.041 227.259 835.623 253.11 815.708 253.11ZM815.708 229.058C827.214 229.058 830.755 212.37 830.755 191.918C830.755 171.63 827.214 154.942 815.708 154.942C804.113 154.942 800.661 171.63 800.661 191.918C800.661 212.37 804.113 229.058 815.708 229.058Z" fill="black"/>
<path d="M766.368 250.491H734.77V133.508H765.483C778.671 133.508 785.575 142.997 785.575 162.958C785.575 177.356 780.972 184.555 775.75 187.827V188.155C782.389 190.282 788.053 198.462 788.053 215.969C788.053 240.838 779.468 250.491 766.368 250.491ZM750.702 180.792H761.323C765.748 180.792 769.289 178.829 769.289 169.175C769.289 159.522 765.748 157.559 761.323 157.559H750.702V180.792ZM750.702 226.44H761.765C768.404 226.44 771.767 223.495 771.767 212.533C771.767 201.571 768.404 198.789 761.765 198.789H750.702V226.44Z" fill="black"/>
<path d="M691.594 250.491H674.512L698.587 133.508H714.607L738.859 250.491H721.423L717.351 226.113H695.666L691.594 250.491ZM706.464 160.504L699.295 203.698H713.811L706.641 160.504H706.464Z" fill="black"/>
<path d="M635.098 253.11C618.546 253.11 606.066 237.566 606.066 210.734H622.175C622.175 224.314 627.752 229.386 634.921 229.386C640.851 229.386 643.861 224.968 643.861 218.914C643.861 208.934 637.576 206.316 628.814 201.408C617.838 195.191 608.014 187.337 608.014 166.395C608.014 140.871 618.812 130.891 632.443 130.891C647.224 130.891 658.819 145.289 659.262 169.012H643.153C642.445 160.014 638.55 154.615 632.443 154.615C627.663 154.615 624.3 157.56 624.3 164.268C624.3 172.121 627.84 174.739 635.895 179.156C647.844 185.701 660.147 191.918 660.147 216.133C660.147 238.548 650.942 253.11 635.098 253.11Z" fill="black"/>
<path d="M613.875 250.491H569.797V133.508H585.729V226.44H613.875V250.491Z" fill="black"/>
<path d="M568.041 250.491H552.109V133.508H568.041V250.491Z" fill="black"/>
<path d="M508.934 250.491H491.852L515.927 133.508H531.947L556.199 250.491H538.763L534.691 226.113H513.006L508.934 250.491ZM523.804 160.504L516.635 203.698H531.151L523.981 160.504H523.804Z" fill="black"/>
<path d="M489.014 250.491H473.082V157.559H454.672V133.508H507.336V157.559H489.014V250.491Z" fill="black"/>
<path d="M460.172 250.491H411.668V133.508H459.641V157.559H427.6V178.338H455.216V202.389H427.6V226.44H460.172V250.491Z" fill="black"/>
<path d="M385.068 250.491H356.125V133.508H384.183C401.797 133.508 412.418 154.45 412.418 192.081C412.418 229.712 402.682 250.491 385.068 250.491ZM372.057 226.44H382.236C392.149 226.44 396.132 213.351 396.132 192.081C396.132 170.812 392.149 157.559 382.236 157.559H372.057V226.44Z" fill="black"/>
<path d="M308.286 253.11C291.734 253.11 279.254 237.566 279.254 210.734H295.363C295.363 224.314 300.939 229.386 308.109 229.386C314.039 229.386 317.048 224.968 317.048 218.914C317.048 208.934 310.764 206.316 302.001 201.408C291.026 195.191 281.201 187.337 281.201 166.395C281.201 140.871 292 130.891 305.63 130.891C320.412 130.891 332.007 145.289 332.449 169.012H316.34C315.632 160.014 311.738 154.615 305.63 154.615C300.851 154.615 297.487 157.56 297.487 164.268C297.487 172.121 301.028 174.739 309.082 179.156C321.031 185.701 333.334 191.918 333.334 216.133C333.334 238.548 324.129 253.11 308.286 253.11Z" fill="black"/>
<path d="M255.082 253.109C235.964 253.109 228.617 237.402 228.617 208.279V133.508H244.549V208.279C244.549 223.495 248.09 229.058 255.082 229.058C262.074 229.058 265.615 223.495 265.615 208.279V133.508H281.547V208.279C281.547 237.402 274.2 253.109 255.082 253.109Z" fill="black"/>
<path d="M205.703 250.491H157.199V133.508H205.172V157.559H173.131V178.338H200.747V202.389H173.131V226.44H205.703V250.491Z" fill="black"/>
<path d="M139.676 250.491H122.859L101.793 133.508H119.23L131.179 215.478H131.356L143.393 133.508H160.21L139.676 250.491Z" fill="black"/>
<path d="M105.088 250.491H89.1562V133.508H105.088V250.491Z" fill="black"/>
<path d="M57.5605 253.11C39.5927 253.11 28.8828 227.259 28.8828 191.918C28.8828 156.741 39.5927 130.891 59.5077 130.891C76.8559 130.891 86.5037 149.87 88.0083 172.285H71.7223C70.5716 164.268 68.0048 154.942 59.2422 154.942C48.7979 154.942 45.1689 169.994 45.1689 191.918C45.1689 214.006 48.7978 229.058 59.8618 229.058C67.2082 229.058 72.3419 220.878 72.5189 209.589H60.4813V188.319H88.982V250.492H77.564L75.9708 235.603H75.7938C72.7844 246.238 66.8542 253.11 57.5605 253.11Z" fill="black"/>
<path d="M1030.68 81.3157H1018.99C1018.99 61.0277 1019.79 58.7371 1027.31 48.5931C1032.18 42.0486 1033.78 39.2671 1033.78 32.3954C1033.78 27.3234 1032.18 22.415 1027.23 22.415C1021.65 22.415 1018.91 29.1231 1018.91 41.3941H1003.86C1003.86 18.4883 1011.74 0 1027.67 0C1039.97 0 1048.82 12.7618 1048.82 31.7409C1048.82 44.83 1045.37 52.847 1039.18 59.2279C1032.98 65.6089 1030.68 69.372 1030.68 81.3157ZM1031.65 119.601H1018.2V94.732H1031.65V119.601Z" fill="black"/>
<path d="M984.196 122.219C967.644 122.219 955.164 106.676 955.164 79.8432H971.273C971.273 93.4231 976.849 98.4951 984.019 98.4951C989.949 98.4951 992.958 94.0775 992.958 88.0239C992.958 78.0435 986.674 75.4257 977.911 70.5173C966.936 64.3 957.111 56.4465 957.111 35.504C957.111 9.9804 967.91 0 981.54 0C996.322 0 1007.92 14.398 1008.36 38.1219H992.25C991.542 29.1231 987.648 23.7239 981.54 23.7239C976.761 23.7239 973.397 26.6689 973.397 33.3771C973.397 41.2305 976.938 43.8483 984.992 48.2659C996.941 54.8104 1009.24 61.0277 1009.24 85.2424C1009.24 107.657 1000.04 122.219 984.196 122.219Z" fill="black"/>
<path d="M930.996 122.218C911.878 122.218 904.531 106.512 904.531 77.3884V2.61719H920.463V77.3884C920.463 92.6044 924.004 98.1672 930.996 98.1672C937.989 98.1672 941.529 92.6044 941.529 77.3884V2.61719H957.461V77.3884C957.461 106.512 950.115 122.218 930.996 122.218Z" fill="black"/>
<path d="M841.694 119.601H825.762V2.61719H841.694V48.4289H863.379V2.61719H879.311V119.601H863.379V72.48H841.694V119.601Z" fill="black"/>
<path d="M809.651 119.601H793.719V26.6683H775.309V2.61719H827.973V26.6683H809.651V119.601Z" fill="black"/>
<path d="M777.541 119.601H761.609V2.61719H777.541V119.601Z" fill="black"/>
<path d="M713.275 119.601H697.343L681.234 2.61719H697.166L705.309 81.9696H705.486L715.311 2.61719H730.358L740.183 81.9696H740.36L748.503 2.61719H764.435L748.326 119.601H732.394L722.923 46.6291H722.746L713.275 119.601Z" fill="black"/>
<path d="M671.073 119.601H652.485L636.111 73.9525L629.561 88.0232V119.601H613.629V2.61719H629.561V52.5192L652.22 2.61719H669.303L645.493 53.8281L671.073 119.601Z" fill="black"/>
<path d="M577.475 119.601H561.543V2.61719H591.371C605.445 2.61719 613.942 14.7246 613.942 35.9943C613.942 52.3556 608.985 62.0088 601.108 65.281V65.6082C616.951 70.6803 611.198 116.001 614.827 117.964V119.601H598.275C595.177 114.692 600.93 78.8609 587.388 78.8609H577.475V119.601ZM577.475 54.8098H588.273C594.646 54.8098 598.01 50.5558 598.01 40.739C598.01 30.9223 594.646 26.6683 588.273 26.6683H577.475V54.8098Z" fill="black"/>
<path d="M531.13 122.219C511.038 122.219 499.797 96.3681 499.797 61.0277C499.797 25.8509 511.038 0 531.13 0C551.045 0 562.463 25.8509 562.463 61.0277C562.463 96.3681 551.045 122.219 531.13 122.219ZM531.13 98.1679C542.636 98.1679 546.177 81.4793 546.177 61.0277C546.177 40.7397 542.636 24.0511 531.13 24.0511C519.535 24.0511 516.083 40.7397 516.083 61.0277C516.083 81.4793 519.535 98.1679 531.13 98.1679Z" fill="black"/>
<path d="M455.506 119.601H439.574L423.465 2.61719H439.397L447.54 81.9696H447.717L457.542 2.61719H472.589L482.413 81.9696H482.59L490.733 2.61719H506.665L490.556 119.601H474.624L465.154 46.6291H464.977L455.506 119.601Z" fill="black"/>
<path d="M365.715 119.601H348.633L372.708 2.61719H388.728L412.981 119.601H395.544L391.472 95.2222H369.787L365.715 119.601ZM380.585 29.6134L373.416 72.8072H387.932L380.762 29.6134H380.585Z" fill="black"/>
<path d="M314.342 119.601H298.41V2.61719H314.342L336.47 72.1528H336.647V2.61719H352.579V119.601H336.647L314.519 50.065H314.342V119.601Z" fill="black"/>
<path d="M258.366 119.601H242.434V2.61719H258.366L280.493 72.1528H280.67V2.61719H296.603V119.601H280.67L258.543 50.065H258.366V119.601Z" fill="black"/>
<path d="M199.258 119.601H182.176L206.251 2.61719H222.271L246.523 119.601H229.087L225.015 95.2222H203.33L199.258 119.601ZM214.128 29.6134L206.959 72.8072H221.475L214.305 29.6134H214.128Z" fill="black"/>
<path d="M143.83 119.601H127.898L111.789 2.61719H127.721L135.864 81.9696H136.041L145.866 2.61719H160.913L170.738 81.9696H170.915L179.058 2.61719H194.99L178.881 119.601H162.949L153.478 46.6291H153.301L143.83 119.601Z" fill="black"/>
</svg>

