<svg width="53" height="17" viewBox="0 0 53 17" fill="none" xmlns="http://www.w3.org/2000/svg">
<path d="M7.072 14.36L6.224 11.384H2.672L1.824 14.36H0L3.264 3.192H5.712L8.976 14.36H7.072ZM4.512 5H4.384L3.008 9.896H5.888L4.512 5Z" fill="white"/>
<path d="M15.1938 12.824H15.0817C14.9858 13.048 14.8684 13.2667 14.7298 13.48C14.6018 13.6827 14.4364 13.864 14.2338 14.024C14.0418 14.184 13.8071 14.312 13.5297 14.408C13.2524 14.504 12.9324 14.552 12.5697 14.552C11.4071 14.552 10.5324 14.056 9.94575 13.064C9.35908 12.072 9.06575 10.6693 9.06575 8.856C9.06575 6.95733 9.40175 5.50667 10.0738 4.504C10.7458 3.50133 11.7751 3 13.1617 3C13.7057 3 14.1804 3.07467 14.5858 3.224C15.0018 3.37333 15.3538 3.576 15.6418 3.832C15.9298 4.07733 16.1697 4.37067 16.3617 4.712C16.5537 5.04267 16.7084 5.39467 16.8258 5.768L15.2098 6.312C15.1244 6.06667 15.0284 5.83733 14.9218 5.624C14.8151 5.4 14.6818 5.20267 14.5218 5.032C14.3724 4.86133 14.1858 4.728 13.9618 4.632C13.7484 4.536 13.4871 4.488 13.1778 4.488C12.3991 4.488 11.8338 4.792 11.4818 5.4C11.1404 5.99733 10.9698 6.808 10.9698 7.832V9.608C10.9698 10.12 11.0071 10.5893 11.0817 11.016C11.1564 11.4427 11.2791 11.8107 11.4497 12.12C11.6311 12.4187 11.8604 12.6533 12.1377 12.824C12.4257 12.9947 12.7724 13.08 13.1778 13.08C13.8284 13.08 14.3244 12.888 14.6658 12.504C15.0178 12.1093 15.1938 11.608 15.1938 11V9.992H13.0338V8.648H16.8258V14.36H15.1938V12.824Z" fill="white"/>
<path d="M18.3235 14.36V3.192H25.3155V4.696H20.1155V7.944H25.1235V9.448H20.1155V12.856H25.3155V14.36H18.3235Z" fill="white"/>
<path d="M28.4453 5.768H28.3013V14.36H26.7333V3.192H29.0373L32.3173 11.784H32.4613V3.192H34.0293V14.36H31.7253L28.4453 5.768Z" fill="white"/>
<path d="M39.335 14.552C37.9163 14.552 36.8603 14.0507 36.167 13.048C35.4843 12.0453 35.143 10.6213 35.143 8.776C35.143 6.93067 35.4843 5.50667 36.167 4.504C36.8603 3.50133 37.9163 3 39.335 3C39.879 3 40.3483 3.07467 40.743 3.224C41.1483 3.36267 41.495 3.56 41.783 3.816C42.071 4.06133 42.311 4.35467 42.503 4.696C42.7057 5.02667 42.871 5.384 42.999 5.768L41.383 6.312C41.2977 6.056 41.2017 5.816 41.095 5.592C40.9883 5.368 40.855 5.176 40.695 5.016C40.535 4.856 40.343 4.728 40.119 4.632C39.9057 4.536 39.639 4.488 39.319 4.488C38.5297 4.488 37.9537 4.792 37.591 5.4C37.2283 5.99733 37.047 6.808 37.047 7.832V9.72C37.047 10.744 37.2283 11.56 37.591 12.168C37.9537 12.7653 38.5297 13.064 39.319 13.064C39.639 13.064 39.9057 13.016 40.119 12.92C40.343 12.824 40.535 12.696 40.695 12.536C40.855 12.376 40.9883 12.184 41.095 11.96C41.2017 11.736 41.2977 11.496 41.383 11.24L42.999 11.784C42.871 12.168 42.7057 12.5307 42.503 12.872C42.311 13.2027 42.071 13.496 41.783 13.752C41.495 13.9973 41.1483 14.1947 40.743 14.344C40.3483 14.4827 39.879 14.552 39.335 14.552Z" fill="white"/>
<path d="M46.7528 14.36V10.152L43.0408 3.192H45.0408L46.4648 5.976L47.6168 8.36H47.7127L48.8808 5.976L50.3048 3.192H52.2568L48.5448 10.152V14.36H46.7528Z" fill="white"/>
</svg>

