<svg width="280" height="157" viewBox="0 0 280 157" fill="none" xmlns="http://www.w3.org/2000/svg">
<path d="M246.246 140.721H243.888L242.562 119.558V109.399H247.571V119.558L246.246 140.721ZM247.336 155.958H242.857V146.06H247.336V155.958Z" fill="black"/>
<path d="M237.745 155.958H232.441V118.972H226.312V109.399H243.844V118.972H237.745V155.958Z" fill="black"/>
<path d="M219.553 157C212.865 157 209.477 146.711 209.477 132.841C209.477 118.581 213.042 108.357 219.701 108.357C225.446 108.357 228.511 115.911 229.011 126.72H223.59C223.207 121.641 222.264 117.93 219.465 117.93C215.959 117.93 214.898 123.92 214.898 132.646C214.898 141.437 215.959 147.428 219.465 147.428C222.294 147.428 223.236 143.716 223.59 138.507H229.011C228.54 149.186 225.358 157 219.553 157Z" fill="black"/>
<path d="M210.982 155.958H194.836V109.399H210.806V118.972H200.14V127.241H209.332V136.814H200.14V146.386H210.982V155.958Z" fill="black"/>
<path d="M187.188 157C181.413 157 179.969 149.446 179.969 140.46V136.553H184.683V140.46C184.683 144.888 185.154 147.428 186.893 147.428C188.631 147.428 189.103 144.888 189.103 140.46V109.399H194.406V140.46C194.406 149.446 192.963 157 187.188 157Z" fill="black"/>
<path d="M171.321 157C164.633 157 160.891 146.711 160.891 132.646C160.891 118.646 164.633 108.357 171.321 108.357C177.95 108.357 181.751 118.646 181.751 132.646C181.751 146.711 177.95 157 171.321 157ZM171.321 147.428C175.151 147.428 176.33 140.786 176.33 132.646C176.33 124.572 175.151 117.93 171.321 117.93C167.461 117.93 166.312 124.572 166.312 132.646C166.312 140.786 167.461 147.428 171.321 147.428Z" fill="black"/>
<path d="M149.882 155.958H144.578V109.399H154.508C159.192 109.399 162.021 114.218 162.021 122.683C162.021 129.195 160.371 133.037 157.749 134.339V134.469C163.023 136.488 161.108 154.525 162.316 155.307V155.958H156.806C155.775 154.005 157.69 139.744 153.182 139.744H149.882V155.958ZM149.882 130.172H153.476C155.598 130.172 156.717 128.479 156.717 124.572C156.717 120.665 155.598 118.972 153.476 118.972H149.882V130.172Z" fill="black"/>
<path d="M133.225 155.958H127.922V109.399H138.146C142.536 109.399 145.276 114.479 145.276 124.246C145.276 134.014 142.536 139.093 138.146 139.093H133.225V155.958ZM133.225 129.521H136.909C138.735 129.521 139.855 128.153 139.855 124.246C139.855 120.339 138.735 118.972 136.909 118.972H133.225V129.521Z" fill="black"/>
<path d="M107.897 155.958H102.594V109.399H112.523C117.208 109.399 120.037 114.218 120.037 122.683C120.037 129.195 118.387 133.037 115.764 134.339V134.469C121.038 136.488 119.123 154.525 120.331 155.307V155.958H114.821C113.79 154.005 115.705 139.744 111.197 139.744H107.897V155.958ZM107.897 130.172H111.492C113.613 130.172 114.733 128.479 114.733 124.572C114.733 120.665 113.613 118.972 111.492 118.972H107.897V130.172Z" fill="black"/>
<path d="M93.3723 157C87.008 157 84.5625 150.749 84.5625 139.158V109.399H89.8661V139.158C89.8661 145.214 91.0446 147.428 93.3723 147.428C95.7 147.428 96.8786 145.214 96.8786 139.158V109.399H102.182V139.158C102.182 150.749 99.7366 157 93.3723 157Z" fill="black"/>
<path d="M74.6101 157C67.9217 157 64.1797 146.711 64.1797 132.646C64.1797 118.646 67.9217 108.357 74.6101 108.357C81.2396 108.357 85.0404 118.646 85.0404 132.646C85.0404 146.711 81.2396 157 74.6101 157ZM74.6101 147.428C78.4404 147.428 79.619 140.786 79.619 132.646C79.619 124.572 78.4404 117.93 74.6101 117.93C70.7502 117.93 69.6011 124.572 69.6011 132.646C69.6011 140.786 70.7502 147.428 74.6101 147.428Z" fill="black"/>
<path d="M60.6101 155.958H55.3065V138.767L48.1172 109.399H53.8333L57.9288 129.195H57.9877L62.1128 109.399H67.711L60.6101 138.767V155.958Z" fill="black"/>
<path d="M247.777 32.3633H245.42L244.094 11.2002V1.04199H249.103V11.2002L247.777 32.3633ZM248.867 47.6006H244.388V37.7029H248.867V47.6006Z" fill="black"/>
<path d="M234.706 47.6006H229.402V10.6142H223.273V1.04199H240.805V10.6142H234.706V47.6006Z" fill="black"/>
<path d="M225.107 47.6006H208.961V1.04199H224.931V10.6142H214.265V18.884H223.457V28.4562H214.265V38.0284H225.107V47.6006Z" fill="black"/>
<path d="M201.024 48.6424C195.514 48.6424 191.359 42.4563 191.359 31.7771H196.722C196.722 37.1818 198.578 39.2004 200.965 39.2004C202.939 39.2004 203.941 37.4423 203.941 35.0329C203.941 31.0608 201.849 30.0189 198.932 28.0654C195.278 25.591 192.008 22.4654 192.008 14.1304C192.008 3.97213 195.602 0 200.14 0C205.06 0 208.92 5.73029 209.067 15.1723H203.705C203.469 11.5908 202.173 9.44196 200.14 9.44196C198.549 9.44196 197.429 10.6141 197.429 13.2839C197.429 16.4095 198.608 17.4513 201.289 19.2095C205.267 21.8142 209.362 24.2886 209.362 33.9259C209.362 42.847 206.298 48.6424 201.024 48.6424Z" fill="black"/>
<path d="M186.025 47.6006H171.352V1.04199H176.655V38.0284H186.025V47.6006Z" fill="black"/>
<path d="M172.087 47.6006H157.414V1.04199H162.718V38.0284H172.087V47.6006Z" fill="black"/>
<path d="M143.03 47.6006H137.344L145.358 1.04199H150.691L158.764 47.6006H152.96L151.605 37.8982H144.386L143.03 47.6006ZM147.98 11.7863L145.594 28.9772H150.426L148.039 11.7863H147.98Z" fill="black"/>
<path d="M132.35 47.6006H116.203V1.04199H132.173V10.6142H121.507V18.884H130.7V28.4562H121.507V38.0284H132.35V47.6006Z" fill="black"/>
<path d="M104.171 47.6006H98.8672V1.04199H108.797C113.482 1.04199 116.31 5.86065 116.31 14.3259C116.31 20.8376 114.66 24.6795 112.038 25.9818V26.112C117.312 28.1307 115.397 46.1681 116.605 46.9495V47.6006H111.095C110.064 45.6471 111.979 31.3865 107.471 31.3865H104.171V47.6006ZM104.171 21.8143H107.765C109.887 21.8143 111.007 20.1213 111.007 16.2143C111.007 12.3072 109.887 10.6142 107.765 10.6142H104.171V21.8143Z" fill="black"/>
<path d="M84.4913 47.6006H78.8047L86.819 1.04199H92.152L100.225 47.6006H94.4208L93.0654 37.8982H85.8467L84.4913 47.6006ZM89.4413 11.7863L87.0547 28.9772H91.8869L89.5002 11.7863H89.4413Z" fill="black"/>
<path d="M73.8105 47.6006H57.6641V1.04199H73.6337V10.6142H62.9676V18.884H72.1605V28.4562H62.9676V38.0284H73.8105V47.6006Z" fill="black"/>
<path d="M41.5723 47.6006H36.2688L30.9062 1.04199H36.2098L38.9206 32.6237H38.9795L42.25 1.04199H47.259L50.5295 32.6237H50.5884L53.2992 1.04199H58.6027L53.2402 47.6006H47.9366L44.784 18.5585H44.725L41.5723 47.6006Z" fill="black"/>
<path d="M165.534 101.213H160.23V64.2265H154.102V54.6543H171.633V64.2265H165.534V101.213Z" fill="black"/>
<path d="M146.2 102.255C139.836 102.255 137.391 96.0036 137.391 84.4128V54.6543H142.694V84.4128C142.694 90.4686 143.873 92.6826 146.2 92.6826C148.528 92.6826 149.707 90.4686 149.707 84.4128V54.6543H155.01V84.4128C155.01 96.0036 152.565 102.255 146.2 102.255Z" fill="black"/>
<path d="M127.446 102.256C120.758 102.256 117.016 91.9672 117.016 77.9019C117.016 63.9018 120.758 53.6133 127.446 53.6133C134.075 53.6133 137.876 63.9018 137.876 77.9019C137.876 91.9672 134.075 102.256 127.446 102.256ZM127.446 92.6835C131.276 92.6835 132.455 86.0415 132.455 77.9019C132.455 69.8274 131.276 63.1855 127.446 63.1855C123.586 63.1855 122.437 69.8274 122.437 77.9019C122.437 86.0415 123.586 92.6835 127.446 92.6835Z" fill="black"/>
<path d="M111.027 101.213H100.508V54.6543H110.732C115.122 54.6543 117.42 58.4311 117.42 66.3754C117.42 72.1056 115.888 74.9708 114.15 76.2731V76.4034C116.36 77.2499 118.245 80.5057 118.245 87.4733C118.245 97.371 115.387 101.213 111.027 101.213ZM105.811 73.4731H109.347C110.82 73.4731 111.999 72.6917 111.999 68.8498C111.999 65.0079 110.82 64.2265 109.347 64.2265H105.811V73.4731ZM105.811 91.6407H109.494C111.704 91.6407 112.824 90.4686 112.824 86.1058C112.824 81.743 111.704 80.636 109.494 80.636H105.811V91.6407Z" fill="black"/>
<path d="M86.1241 101.213H80.4375L88.4518 54.6543H93.7848L101.858 101.213H96.0536L94.6982 91.5105H87.4795L86.1241 101.213ZM91.0741 65.3986L88.6875 82.5895H93.5197L91.1331 65.3986H91.0741Z" fill="black"/>
<path d="M75.4433 101.213H59.2969V54.6543H75.2666V64.2265H64.6005V72.4964H73.7933V82.0685H64.6005V91.6407H75.4433V101.213Z" fill="black"/>
<path d="M47.2567 101.213H41.9531V54.6543H51.8826C56.5674 54.6543 59.396 59.4729 59.396 67.9382C59.396 74.4499 57.746 78.2918 55.1237 79.5941V79.7243C60.3978 81.743 58.4826 99.7804 59.6907 100.562V101.213H54.1808C53.1496 99.2594 55.0648 84.9988 50.5567 84.9988H47.2567V101.213ZM47.2567 75.4266H50.8514C52.9728 75.4266 54.0924 73.7336 54.0924 69.8266C54.0924 65.9195 52.9728 64.2265 50.8514 64.2265H47.2567V75.4266Z" fill="black"/>
<path d="M31.8366 102.256C25.1482 102.256 21.4062 91.9672 21.4062 77.9019C21.4062 63.9018 25.1482 53.6133 31.8366 53.6133C38.4661 53.6133 42.267 63.9018 42.267 77.9019C42.267 91.9672 38.4661 102.256 31.8366 102.256ZM31.8366 92.6835C35.667 92.6835 36.8456 86.0415 36.8456 77.9019C36.8456 69.8274 35.667 63.1855 31.8366 63.1855C27.9768 63.1855 26.8277 69.8274 26.8277 77.9019C26.8277 86.0415 27.9768 92.6835 31.8366 92.6835Z" fill="black"/>
<path d="M5.00894 101.213H0V54.6543H6.48216L10.8134 84.3476H10.8723L15.2036 54.6543H21.6858V101.213H16.6768V72.2359H16.6179L12.6991 101.213H8.98663L5.06787 72.2359H5.00894V101.213Z" fill="black"/>
<path d="M271.664 102.849C266.154 102.849 262 96.6633 262 85.9841H267.362C267.362 91.3888 269.219 93.4075 271.605 93.4075C273.579 93.4075 274.581 91.6493 274.581 89.24C274.581 85.2678 272.489 84.226 269.572 82.2724C265.919 79.798 262.648 76.6724 262.648 68.3374C262.648 58.1792 266.243 54.207 270.78 54.207C275.701 54.207 279.561 59.9373 279.708 69.3793H274.346C274.11 65.7979 272.813 63.649 270.78 63.649C269.189 63.649 268.07 64.8211 268.07 67.4909C268.07 70.6165 269.248 71.6584 271.929 73.4165C275.907 76.0212 280.003 78.4957 280.003 88.133C280.003 97.054 276.938 102.849 271.664 102.849Z" fill="black"/>
<path d="M253.95 102.85C247.586 102.85 245.141 96.5983 245.141 85.0075V55.249H250.444V85.0075C250.444 91.0634 251.623 93.2773 253.95 93.2773C256.278 93.2773 257.457 91.0634 257.457 85.0075V55.249H262.76V85.0075C262.76 96.5983 260.315 102.85 253.95 102.85Z" fill="black"/>
<path d="M238.806 101.808H224.133V55.249H229.436V92.2355H238.806V101.808Z" fill="black"/>
<path d="M224.853 101.808H210.18V55.249H215.483V92.2355H224.853V101.808Z" fill="black"/>
<path d="M210.373 101.808H194.227V55.249H210.196V64.8212H199.53V73.0911H208.723V82.6633H199.53V92.2355H210.373V101.808Z" fill="black"/>
<path d="M188.87 101.808H183.566V64.8212H177.438V55.249H194.969V64.8212H188.87V101.808Z" fill="black"/>
</svg>

