<svg width="126" height="113" viewBox="0 0 126 113" fill="none" xmlns="http://www.w3.org/2000/svg">
<path d="M112.5 113C104.198 113 99 91.2169 99 56.5756C99 21.7831 104.198 0 112.5 0C120.802 0 126 21.7831 126 56.5756C126 91.2169 120.802 113 112.5 113ZM112.5 102.108C118.997 102.108 122.824 84.8635 122.824 56.5756C122.824 28.2878 118.997 10.8916 112.5 10.8916C106.003 10.8916 102.176 28.2878 102.176 56.5756C102.176 84.8635 106.003 102.108 112.5 102.108ZM112.717 90.4605C107.88 90.4605 104.848 76.5435 104.848 56.5756C104.848 36.759 107.735 22.5395 112.428 22.5395C116.868 22.5395 119.394 33.5823 119.755 48.407H115.099C114.955 43.2637 114.449 37.5154 112.536 37.5154C110.551 37.5154 109.612 44.4739 109.612 56.5756C109.612 68.5261 110.551 75.4846 112.536 75.4846C114.449 75.4846 114.955 70.1901 115.099 64.4418H119.755C119.539 79.4177 117.084 90.4605 112.717 90.4605Z" fill="#BFBFBF" fill-opacity="0.941176"/>
<path d="M88.3411 113C81.6266 113 78.1795 98.7737 78 78.1909H83.8887C84.0682 85.7581 85.3968 92.2659 87.982 92.2659C90.2801 92.2659 91.7522 86.3635 91.7522 74.8614C91.7522 63.8133 90.4955 57.3055 87.8743 57.3055C86.5458 57.3055 85.1095 59.5757 84.1041 64.8727H78.3591L81.2316 6H96.9228V26.7341H85.3968L84.4632 46.7115V47.0141C85.8276 42.4738 87.5153 39.5983 89.7774 39.5983C94.6966 39.5983 98 52.7652 98 75.1641C98 100.287 93.8348 113 88.3411 113Z" fill="#BFBFBF" fill-opacity="0.941176"/>
<path d="M77 111H58C58 88.9038 60.7857 79.5205 66.1429 62.57C68.8214 54.0948 70.7857 47.133 70.7857 37.5983C70.7857 29.5771 69.8571 24.7341 67.9286 24.7341C65.6071 24.7341 64.2143 30.1825 64.2143 44.5601H58.3571C58.3571 20.0424 61.4286 4 68.1071 4C73.4286 4 77 15.8048 77 35.7822C77 56.2136 73 68.9264 69.6071 79.3692C68.4286 83.0014 67.3571 86.4823 66.5357 89.9632V90.2659H77V111Z" fill="#BFBFBF" fill-opacity="0.941176"/>
<path d="M58 83H40V62H58V83Z" fill="#BFBFBF" fill-opacity="0.941176"/>
<path d="M39 111H20C20 88.9038 22.7857 79.5205 28.1429 62.57C30.8214 54.0948 32.7857 47.133 32.7857 37.5983C32.7857 29.5771 31.8571 24.7341 29.9286 24.7341C27.6071 24.7341 26.2143 30.1825 26.2143 44.5601H20.3571C20.3571 20.0424 23.4286 4 30.1071 4C35.4286 4 39 15.8048 39 35.7822C39 56.2136 35 68.9264 31.6071 79.3692C30.4286 83.0014 29.3571 86.4823 28.5357 89.9632V90.2659H39V111Z" fill="#BFBFBF" fill-opacity="0.941176"/>
<path d="M19 111H0C0 88.9038 2.78571 79.5205 8.14286 62.57C10.8214 54.0948 12.7857 47.133 12.7857 37.5983C12.7857 29.5771 11.8571 24.7341 9.92857 24.7341C7.60714 24.7341 6.21428 30.1825 6.21428 44.5601H0.357143C0.357143 20.0424 3.42857 4 10.1071 4C15.4286 4 19 15.8048 19 35.7822C19 56.2136 15 68.9264 11.6071 79.3692C10.4286 83.0014 9.35714 86.4823 8.53571 89.9632V90.2659H19V111Z" fill="#BFBFBF" fill-opacity="0.941176"/>
</svg>

