<svg width="166" height="95" viewBox="0 0 166 95" fill="none" xmlns="http://www.w3.org/2000/svg">
<path d="M165.601 92.9675H130.652V2.03711H165.218V20.7319H142.132V36.8832H162.03V55.5779H142.132V74.2727H165.601V92.9675Z" fill="black"/>
<path d="M93.2519 92.9675H82.4102V2.03711H96.4406L105.816 60.0291H105.943L115.318 2.03711H129.348V92.9675H118.507V36.3745H118.379L109.897 92.9675H101.861L93.3794 36.3745H93.2519V92.9675Z" fill="black"/>
<path d="M60.4943 95C46.0174 95 37.918 74.9063 37.918 47.4364C37.918 20.0937 46.0174 0 60.4943 0C74.8436 0 83.0706 20.0937 83.0706 47.4364C83.0706 74.9063 74.8436 95 60.4943 95ZM60.4943 76.3052C68.785 76.3052 71.336 63.3333 71.336 47.4364C71.336 31.6667 68.785 18.6948 60.4943 18.6948C52.1398 18.6948 49.6526 31.6667 49.6526 47.4364C49.6526 63.3333 52.1398 76.3052 60.4943 76.3052Z" fill="black"/>
<path d="M11.4795 92.9675H0V2.03711H11.4795V37.6462H27.1043V2.03711H38.5838V92.9675H27.1043V56.341H11.4795V92.9675Z" fill="black"/>
</svg>

