<svg width="235" height="95" viewBox="0 0 235 95" fill="none" xmlns="http://www.w3.org/2000/svg">
<path d="M218.988 92.9675H207.476V59.3932L191.871 2.03711H204.278L213.168 40.6984H213.296L222.249 2.03711H234.401L218.988 59.3932V92.9675Z" fill="black"/>
<path d="M178.4 95C163.882 95 156.527 74.9063 156.527 47.8179C156.527 19.9665 164.266 0 178.719 0C191.191 0 197.842 14.7523 198.929 35.8635H187.161C186.33 25.9438 184.283 18.6948 178.208 18.6948C170.597 18.6948 168.295 30.3949 168.295 47.4364C168.295 64.6051 170.597 76.3052 178.208 76.3052C184.347 76.3052 186.394 69.0562 187.161 58.8822H198.929C197.906 79.739 190.999 95 178.4 95Z" fill="black"/>
<path d="M129.516 92.9675H118.004V2.03711H129.516L145.504 56.0866H145.632V2.03711H157.144V92.9675H145.632L129.644 38.918H129.516V92.9675Z" fill="black"/>
<path d="M118.41 92.9675H83.3633V2.03711H118.026V20.7319H94.875V36.8832H114.829V55.5779H94.875V74.2727H118.41V92.9675Z" fill="black"/>
<path d="M60.5337 95C47.551 95 39.8125 74.9063 39.8125 47.4364C39.8125 20.0937 47.551 0 61.9407 0C74.4757 0 81.4467 14.7523 82.5339 32.1754H70.7663C69.9349 25.9438 68.0803 18.6948 61.7488 18.6948C54.2022 18.6948 51.5801 30.3949 51.5801 47.4364C51.5801 64.6051 54.2022 76.3052 62.1965 76.3052C67.5047 76.3052 71.214 69.9465 71.3419 61.1714H62.6442V44.6386H83.2374V92.9652H74.9873L73.8361 81.3922H73.7082C71.5338 89.6586 67.2489 95 60.5337 95Z" fill="black"/>
<path d="M12.3432 92.9675H0L17.3955 2.03711H28.9713L46.4947 92.9675H33.8957L30.9538 74.0184H15.2851L12.3432 92.9675ZM23.0875 23.021L17.9072 56.5953H28.3957L23.2154 23.021H23.0875Z" fill="black"/>
</svg>

