<svg width="276" height="95" viewBox="0 0 276 95" fill="none" xmlns="http://www.w3.org/2000/svg">
<path d="M243.38 92.9675H225.57V2.03711H237.06V30.1429H244.018C254.231 30.1429 260.678 42.4789 260.678 61.1737C260.678 81.1402 253.976 92.9675 243.38 92.9675ZM275.998 92.9675H264.508V2.03711H275.998V92.9675ZM237.06 48.8376V74.2727H243.061C246.699 74.2727 248.933 69.6944 248.933 61.1737C248.933 54.0518 246.891 48.8376 243.635 48.8376H237.06Z" fill="black"/>
<path d="M213.955 92.9675H202.465V20.7319H189.188V2.03711H227.168V20.7319H213.955V92.9675Z" fill="black"/>
<path d="M194.694 2.03711L176.501 46.93L195.843 92.9675H181.416L167.245 58.503H163.99V92.9675H152.5V2.03711H163.99V39.8082H167.245L182.31 2.03711H194.694Z" fill="black"/>
<path d="M152.91 92.9675H117.93V2.03711H152.527V20.7319H129.42V36.8832H149.335V55.5779H129.42V74.2727H152.91V92.9675Z" fill="black"/>
<path d="M95.9953 95C81.5052 95 73.3984 74.9063 73.3984 47.4364C73.3984 20.0937 81.5052 0 95.9953 0C110.358 0 118.592 20.0937 118.592 47.4364C118.592 74.9063 110.358 95 95.9953 95ZM95.9953 76.3052C104.294 76.3052 106.847 63.3333 106.847 47.4364C106.847 31.6667 104.294 18.6948 95.9953 18.6948C87.6332 18.6948 85.1437 31.6667 85.1437 47.4364C85.1437 63.3333 87.6332 76.3052 95.9953 76.3052Z" fill="black"/>
<path d="M50.736 92.9675H39.2461V2.03711H61.3961C70.9072 2.03711 76.8437 11.9568 76.8437 31.0331C76.8437 50.1094 70.9072 60.0291 61.3961 60.0291H50.736V92.9675ZM50.736 41.3343H58.7151C62.6728 41.3343 65.0984 38.6636 65.0984 31.0331C65.0984 23.4026 62.6728 20.7319 58.7151 20.7319H50.736V41.3343Z" fill="black"/>
<path d="M11.4899 92.9675H0V2.03711H37.9806V92.9675H26.4907V20.7319H11.4899V92.9675Z" fill="black"/>
</svg>

