<svg width="1280" height="270" viewBox="0 0 1280 270" fill="none" xmlns="http://www.w3.org/2000/svg">
<path d="M1239.6 270C1212.91 270 1192.78 235.663 1192.78 176.385H1218.76C1218.76 206.385 1227.75 217.59 1239.32 217.59C1248.88 217.59 1253.73 207.831 1253.73 194.458C1253.73 172.41 1243.6 166.626 1229.47 155.783C1211.77 142.048 1195.92 124.699 1195.92 78.4337C1195.92 22.0482 1213.34 0 1235.32 0C1259.16 0 1277.86 31.8072 1278.57 84.2168H1252.59C1251.45 64.3373 1245.17 52.4096 1235.32 52.4096C1227.61 52.4096 1222.19 58.9156 1222.19 73.7349C1222.19 91.0843 1227.9 96.8674 1240.89 106.626C1260.16 121.084 1280 134.819 1280 188.313C1280 237.831 1265.15 270 1239.6 270Z" fill="black"/>
<path d="M1175.86 264.217H1150.17V58.9157H1120.48V5.7832H1205.41V58.9157H1175.86V264.217Z" fill="black"/>
<path d="M1087.71 270C1055.31 270 1038.89 212.891 1038.89 135.904C1038.89 56.747 1056.16 0 1088.42 0C1116.26 0 1131.1 41.9277 1133.53 101.928H1107.27C1105.41 73.7349 1100.84 53.1325 1087.28 53.1325C1070.29 53.1325 1065.16 86.3855 1065.16 134.819C1065.16 183.614 1070.29 216.867 1087.28 216.867C1100.98 216.867 1105.55 196.265 1107.27 167.349H1133.53C1131.25 226.626 1115.83 270 1087.71 270Z" fill="black"/>
<path d="M1046.18 264.217H967.953V5.7832H1045.32V58.9157H993.647V104.819H1038.18V157.952H993.647V211.084H1046.18V264.217Z" fill="black"/>
<path d="M930.906 270C902.928 270 895.934 228.072 895.934 178.193V156.506H918.773V178.193C918.773 202.771 921.057 216.867 929.479 216.867C937.901 216.867 940.184 202.771 940.184 178.193V5.7832H965.878V178.193C965.878 228.072 958.884 270 930.906 270Z" fill="black"/>
<path d="M854.008 270C821.605 270 803.477 212.891 803.477 134.819C803.477 57.1084 821.605 0 854.008 0C886.126 0 904.54 57.1084 904.54 134.819C904.54 212.891 886.126 270 854.008 270ZM854.008 216.867C872.565 216.867 878.275 180 878.275 134.819C878.275 89.9999 872.565 53.1325 854.008 53.1325C835.309 53.1325 829.742 89.9999 829.742 134.819C829.742 180 835.309 216.867 854.008 216.867Z" fill="black"/>
<path d="M750.147 264.217H724.453V5.7832H772.558C795.255 5.7832 808.958 32.5302 808.958 79.5181C808.958 115.663 800.964 136.988 788.26 144.217V144.94C813.811 156.145 804.533 256.265 810.385 260.602V264.217H783.692C778.696 253.373 787.975 174.217 766.135 174.217H750.147V264.217ZM750.147 121.084H767.562C777.84 121.084 783.264 111.687 783.264 90C783.264 68.3133 777.84 58.9157 767.562 58.9157H750.147V121.084Z" fill="black"/>
<path d="M669.491 264.217H643.797V5.7832H693.329C714.598 5.7832 727.874 33.976 727.874 88.1928C727.874 142.41 714.598 170.602 693.329 170.602H669.491V264.217ZM669.491 117.47H687.334C696.184 117.47 701.609 109.88 701.609 88.1928C701.609 66.5061 696.184 58.9157 687.334 58.9157H669.491V117.47Z" fill="black"/>
<path d="M587.99 264.217H541.312V5.7832H586.563C614.969 5.7832 632.098 52.0482 632.098 135.181C632.098 218.313 616.396 264.217 587.99 264.217ZM567.007 211.084H583.422C599.41 211.084 605.833 182.169 605.833 135.181C605.833 88.1928 599.41 58.9157 583.422 58.9157H567.007V211.084Z" fill="black"/>
<path d="M542.224 264.217H464V5.7832H541.368V58.9157H489.694V104.819H534.23V157.952H489.694V211.084H542.224V264.217Z" fill="black"/>
<path d="M438.018 264.217H412.324V58.9157H382.633V5.7832H467.566V58.9157H438.018V264.217Z" fill="black"/>
<path d="M349.873 270C317.47 270 301.055 212.891 301.055 135.904C301.055 56.747 318.327 0 350.587 0C378.422 0 393.268 41.9277 395.694 101.928H369.429C367.574 73.7349 363.006 53.1325 349.445 53.1325C332.459 53.1325 327.32 86.3855 327.32 134.819C327.32 183.614 332.459 216.867 349.445 216.867C363.149 216.867 367.717 196.265 369.429 167.349H395.694C393.411 226.626 377.994 270 349.873 270Z" fill="black"/>
<path d="M308.341 264.217H230.117V5.7832H307.485V58.9157H255.811V104.819H300.348V157.952H255.811V211.084H308.341V264.217Z" fill="black"/>
<path d="M233.649 264.217H162.562V5.7832H188.257V211.084H233.649V264.217Z" fill="black"/>
<path d="M163.474 264.217H85.25V5.7832H162.618V58.9157H110.944V104.819H155.48V157.952H110.944V211.084H163.474V264.217Z" fill="black"/>
<path d="M46.8203 270C20.127 270 0 235.663 0 176.385H25.9795C25.9795 206.385 34.9725 217.59 46.5348 217.59C56.0987 217.59 60.952 207.831 60.952 194.458C60.952 172.41 50.8171 166.626 36.6854 155.783C18.985 142.048 3.14038 124.699 3.14038 78.4337C3.14038 22.0482 20.5552 0 42.5379 0C66.3763 0 85.0759 31.8072 85.7896 84.2168H59.8101C58.6681 64.3373 52.3873 52.4096 42.5379 52.4096C34.8297 52.4096 29.4054 58.9156 29.4054 73.7349C29.4054 91.0843 35.1152 96.8674 48.105 106.626C67.3755 121.084 87.217 134.819 87.217 188.313C87.217 237.831 72.3716 270 46.8203 270Z" fill="black"/>
</svg>

