<svg width="1036" height="384" viewBox="0 0 1036 384" fill="none" xmlns="http://www.w3.org/2000/svg">
<path d="M917.055 343.097H905.529C905.529 322.809 906.315 320.518 913.737 310.374C918.54 303.83 920.111 301.048 920.111 294.177C920.111 289.105 918.539 284.196 913.65 284.196C908.149 284.196 905.442 290.904 905.442 303.175H890.598C890.598 280.27 898.369 261.781 914.086 261.781C926.224 261.781 934.955 274.543 934.955 293.522C934.955 306.611 931.55 314.628 925.438 321.009C919.325 327.39 917.055 331.153 917.055 343.097ZM918.016 381.382H904.743V356.513H918.016V381.382Z" fill="black"/>
<path d="M895.261 381.382H847.41V264.398H894.737V288.45H863.127V309.228H890.371V333.28H863.127V357.331H895.261V381.382Z" fill="black"/>
<path d="M831.516 381.382H815.799V288.45H797.637V264.398H849.591V288.45H831.516V381.382Z" fill="black"/>
<path d="M766.474 381.382H749.621L773.372 264.398H789.176L813.102 381.382H795.9L791.883 357.003H770.49L766.474 381.382ZM781.143 291.395L774.07 334.588H788.391L781.318 291.395H781.143Z" fill="black"/>
<path d="M755.858 381.382H708.008V264.398H755.334V288.45H723.725V309.228H750.969V333.28H723.725V357.331H755.858V381.382Z" fill="black"/>
<path d="M672.338 381.382H656.621V264.398H686.047C699.931 264.398 708.314 276.506 708.314 297.776C708.314 314.137 703.424 323.79 695.652 327.062V327.389C711.282 332.461 705.607 377.782 709.187 379.746V381.382H692.858C689.802 376.473 695.478 340.642 682.118 340.642H672.338V381.382ZM672.338 316.591H682.991C689.278 316.591 692.596 312.337 692.596 302.52C692.596 292.704 689.278 288.45 682.991 288.45H672.338V316.591Z" fill="black"/>
<path d="M630.179 384C610.358 384 600.316 358.149 600.316 323.3C600.316 287.469 610.882 261.781 630.616 261.781C647.643 261.781 656.724 280.76 658.209 307.92H642.142C641.007 295.158 638.213 285.832 629.917 285.832C619.526 285.832 616.383 300.885 616.383 322.809C616.383 344.897 619.526 359.949 629.917 359.949C638.3 359.949 641.094 350.623 642.142 337.534H658.209C656.811 364.367 647.381 384 630.179 384Z" fill="black"/>
<path d="M565.036 384C545.214 384 534.125 358.149 534.125 322.809C534.125 287.632 545.214 261.781 565.036 261.781C584.682 261.781 595.946 287.632 595.946 322.809C595.946 358.149 584.682 384 565.036 384ZM565.036 359.949C576.387 359.949 579.88 343.261 579.88 322.809C579.88 302.521 576.387 285.832 565.036 285.832C553.597 285.832 550.192 302.521 550.192 322.809C550.192 343.261 553.597 359.949 565.036 359.949Z" fill="black"/>
<path d="M523.841 381.382H508.123V288.45H489.961V264.398H541.915V288.45H523.841V381.382Z" fill="black"/>
<path d="M474.536 381.382H458.818V288.45H440.656V264.398H492.611V288.45H474.536V381.382Z" fill="black"/>
<path d="M405.081 381.382H389.363V264.398H405.081L426.91 333.934H427.085V264.398H442.802V381.382H427.085L405.255 311.846H405.081V381.382Z" fill="black"/>
<path d="M346.767 381.382H329.914L353.665 264.398H369.469L393.395 381.382H376.193L372.176 357.003H350.783L346.767 381.382ZM361.436 291.395L354.363 334.588H368.683L361.611 291.395H361.436Z" fill="black"/>
<path d="M292.09 381.382H276.372L260.48 264.398H276.198L284.231 343.751H284.406L294.098 264.398H308.942L318.635 343.751H318.809L326.843 264.398H342.56L326.668 381.382H310.951L301.607 308.41H301.433L292.09 381.382Z" fill="black"/>
<path d="M231.921 384C213.06 384 205.812 368.293 205.812 339.17V264.398H221.53V339.17C221.53 354.386 225.023 359.948 231.921 359.948C238.819 359.948 242.312 354.386 242.312 339.17V264.398H258.029V339.17C258.029 368.293 250.782 384 231.921 384Z" fill="black"/>
<path d="M176.333 384C156.511 384 145.422 358.149 145.422 322.809C145.422 287.632 156.511 261.781 176.333 261.781C195.979 261.781 207.243 287.632 207.243 322.809C207.243 358.149 195.979 384 176.333 384ZM176.333 359.949C187.684 359.949 191.177 343.261 191.177 322.809C191.177 302.521 187.684 285.832 176.333 285.832C164.894 285.832 161.488 302.521 161.488 322.809C161.488 343.261 164.894 359.949 176.333 359.949Z" fill="black"/>
<path d="M134.836 381.382H119.118V338.188L97.8125 264.398H114.752L126.89 314.137H127.064L139.289 264.398H155.879L134.836 338.188V381.382Z" fill="black"/>
<path d="M931.43 250.491H915.713V157.559H897.551V133.508H949.505V157.559H931.43V250.491Z" fill="black"/>
<path d="M877.507 253.11C857.686 253.11 847.645 227.259 847.645 192.409C847.645 156.578 858.21 130.891 877.944 130.891C894.971 130.891 904.052 149.87 905.537 177.03H889.47C888.335 164.268 885.541 154.942 877.246 154.942C866.855 154.942 863.711 169.994 863.711 191.918C863.711 214.006 866.855 229.058 877.246 229.058C885.628 229.058 888.422 219.733 889.47 206.643H905.537C904.14 233.476 894.709 253.11 877.507 253.11Z" fill="black"/>
<path d="M852.101 250.491H804.25V133.508H851.577V157.559H819.967V178.338H847.211V202.389H819.967V226.44H852.101V250.491Z" fill="black"/>
<path d="M781.588 253.109C764.474 253.109 760.195 234.13 760.195 211.551V201.734H774.166V211.551C774.166 222.677 775.563 229.058 780.715 229.058C785.867 229.058 787.264 222.677 787.264 211.551V133.508H802.981V211.551C802.981 234.13 798.703 253.109 781.588 253.109Z" fill="black"/>
<path d="M734.547 253.11C714.726 253.11 703.637 227.259 703.637 191.918C703.637 156.741 714.726 130.891 734.547 130.891C754.194 130.891 765.458 156.741 765.458 191.918C765.458 227.259 754.194 253.11 734.547 253.11ZM734.547 229.058C745.899 229.058 749.392 212.37 749.392 191.918C749.392 171.63 745.899 154.942 734.547 154.942C723.109 154.942 719.703 171.63 719.703 191.918C719.703 212.37 723.109 229.058 734.547 229.058Z" fill="black"/>
<path d="M671.014 250.491H655.297V133.508H684.723C698.607 133.508 706.989 145.615 706.989 166.885C706.989 183.246 702.1 192.899 694.328 196.172V196.499C709.958 201.571 704.283 246.892 707.863 248.855V250.491H691.534C688.478 245.583 694.154 209.752 680.794 209.752H671.014V250.491ZM671.014 185.7H681.667C687.954 185.7 691.272 181.446 691.272 171.63C691.272 161.813 687.954 157.559 681.667 157.559H671.014V185.7Z" fill="black"/>
<path d="M621.682 250.491H605.965V133.508H636.264C649.275 133.508 657.395 146.27 657.395 170.812C657.395 195.354 649.275 208.115 636.264 208.115H621.682V250.491ZM621.682 184.064H632.597C638.011 184.064 641.329 180.628 641.329 170.812C641.329 160.995 638.011 157.559 632.597 157.559H621.682V184.064Z" fill="black"/>
<path d="M571.01 250.491H555.293V133.508H601.746V157.559H571.01V183.246H596.071V207.297H571.01V250.491Z" fill="black"/>
<path d="M525.29 253.11C505.468 253.11 494.379 227.259 494.379 191.918C494.379 156.741 505.468 130.891 525.29 130.891C544.936 130.891 556.2 156.741 556.2 191.918C556.2 227.259 544.936 253.11 525.29 253.11ZM525.29 229.058C536.641 229.058 540.134 212.37 540.134 191.918C540.134 171.63 536.641 154.942 525.29 154.942C513.851 154.942 510.446 171.63 510.446 191.918C510.446 212.37 513.851 229.058 525.29 229.058Z" fill="black"/>
<path d="M462.862 250.491H434.309V133.508H461.989C479.365 133.508 489.843 154.45 489.843 192.081C489.843 229.712 480.238 250.491 462.862 250.491ZM450.026 226.44H460.068C469.847 226.44 473.777 213.351 473.777 192.081C473.777 170.812 469.847 157.559 460.068 157.559H450.026V226.44Z" fill="black"/>
<path d="M394.803 250.491H379.086V133.508H394.803L416.633 203.043H416.808V133.508H432.525V250.491H416.808L394.978 180.956H394.803V250.491Z" fill="black"/>
<path d="M377.358 250.491H361.641V133.508H377.358V250.491Z" fill="black"/>
<path d="M366.752 250.491H348.415L332.261 204.843L325.799 218.914V250.491H310.082V133.508H325.799V183.41L348.153 133.508H365.005L341.517 184.719L366.752 250.491Z" fill="black"/>
<path d="M288.516 250.491H272.799V157.559H254.637V133.508H306.591V157.559H288.516V250.491Z" fill="black"/>
<path d="M223.47 250.491H206.617L230.368 133.508H246.172L270.098 250.491H252.896L248.879 226.113H227.486L223.47 250.491ZM238.139 160.504L231.066 203.698H245.387L238.314 160.504H238.139Z" fill="black"/>
<path d="M173.471 250.491H157.754V133.508H173.471V179.319H194.864V133.508H210.582V250.491H194.864V203.371H173.471V250.491Z" fill="black"/>
<path d="M110.074 250.491H94.3568L78.4648 133.508H94.1822L102.215 212.86H102.39L112.082 133.508H126.927L136.619 212.86H136.794L144.827 133.508H160.544L144.652 250.491H128.935L119.592 177.52H119.417L110.074 250.491Z" fill="black"/>
<path d="M1036 89.4961H992.34V67.0811H1036V89.4961Z" fill="black"/>
<path d="M950.522 119.601H934.805V2.61719H964.231C978.115 2.61719 986.497 14.7246 986.497 35.9943C986.497 52.3556 981.607 62.0088 973.836 65.281V65.6082C989.466 70.6803 983.79 116.001 987.37 117.964V119.601H971.042C967.986 114.692 973.661 78.8609 960.302 78.8609H950.522V119.601ZM950.522 54.8098H961.175C967.462 54.8098 970.78 50.5558 970.78 40.739C970.78 30.9223 967.462 26.6683 961.175 26.6683H950.522V54.8098Z" fill="black"/>
<path d="M935.362 119.601H887.512V2.61719H934.838V26.6683H903.229V47.4472H930.472V71.4983H903.229V95.5494H935.362V119.601Z" fill="black"/>
<path d="M856.342 122.219C838.616 122.219 828.051 96.3681 828.051 61.0277C828.051 25.8509 838.616 0 858.263 0C875.377 0 884.895 18.9791 886.38 41.3941H870.313C869.178 33.3771 866.646 24.0511 858.001 24.0511C847.697 24.0511 844.117 39.1035 844.117 61.0277C844.117 83.1155 847.697 98.1679 858.612 98.1679C865.86 98.1679 870.924 89.9872 871.099 78.6979H859.223V57.4282H887.34V119.601H876.076L874.504 104.712H874.33C871.361 115.347 865.51 122.219 856.342 122.219Z" fill="black"/>
<path d="M791.167 119.601H775.449V2.61719H791.167L812.996 72.1528H813.171V2.61719H828.888V119.601H813.171L791.341 50.065H791.167V119.601Z" fill="black"/>
<path d="M732.852 119.601H716L739.751 2.61719H755.555L779.481 119.601H762.279L758.262 95.2222H736.869L732.852 119.601ZM747.522 29.6134L740.449 72.8072H754.769L747.697 29.6134H747.522Z" fill="black"/>
<path d="M702.739 119.601H671.566V2.61719H701.866C714.876 2.61719 721.687 12.1068 721.687 32.0676C721.687 46.4655 717.147 53.6645 711.995 56.9367V57.264C718.544 59.3909 724.132 67.5716 724.132 85.0782C724.132 109.947 715.662 119.601 702.739 119.601ZM687.284 49.9014H697.762C702.128 49.9014 705.621 47.938 705.621 38.2849C705.621 28.6317 702.128 26.6683 697.762 26.6683H687.284V49.9014ZM687.284 95.5494H698.199C704.747 95.5494 708.066 92.6044 708.066 81.6423C708.066 70.6802 704.747 67.8988 698.199 67.8988H687.284V95.5494Z" fill="black"/>
<path d="M623.724 119.601H606.871L630.622 2.61719H646.426L670.352 119.601H653.15L649.133 95.2222H627.74L623.724 119.601ZM638.393 29.6134L631.32 72.8072H645.641L638.568 29.6134H638.393Z" fill="black"/>
<path d="M576.119 122.219C558.394 122.219 547.828 96.3681 547.828 61.0277C547.828 25.8509 558.394 0 578.04 0C595.155 0 604.672 18.9791 606.157 41.3941H590.09C588.955 33.3771 586.423 24.0511 577.778 24.0511C567.475 24.0511 563.895 39.1035 563.895 61.0277C563.895 83.1155 567.475 98.1679 578.39 98.1679C585.637 98.1679 590.702 89.9872 590.876 78.6979H579.001V57.4282H607.117V119.601H595.853L594.282 104.712H594.107C591.138 115.347 585.288 122.219 576.119 122.219Z" fill="black"/>
<path d="M510.944 119.601H495.227V2.61719H510.944L532.774 72.1528H532.948V2.61719H548.666V119.601H532.948L511.119 50.065H510.944V119.601Z" fill="black"/>
<path d="M493.499 119.601H477.781V2.61719H493.499V119.601Z" fill="black"/>
<path d="M482.892 119.601H464.556L448.402 73.9525L441.94 88.0232V119.601H426.223V2.61719H441.94V52.5192L464.294 2.61719H481.146L457.657 53.8281L482.892 119.601Z" fill="black"/>
<path d="M383.63 119.601H366.777L390.528 2.61719H406.333L430.258 119.601H413.056L409.039 95.2222H387.646L383.63 119.601ZM398.299 29.6134L391.227 72.8072H405.547L398.474 29.6134H398.299Z" fill="black"/>
<path d="M321.243 119.601H306.398V2.61719H325.609L338.444 77.2248H338.619L351.455 2.61719H370.665V119.601H355.821V46.7927H355.646L344.033 119.601H333.031L321.417 46.7927H321.243V119.601Z" fill="black"/>
<path d="M299.061 119.601H251.211V2.61719H298.538V26.6683H266.928V47.4472H294.172V71.4983H266.928V95.5494H299.061V119.601Z" fill="black"/>
<path d="M215.545 119.601H199.828V2.61719H229.254C243.138 2.61719 251.521 14.7246 251.521 35.9943C251.521 52.3556 246.631 62.0088 238.86 65.281V65.6082C254.49 70.6803 248.814 116.001 252.394 117.964V119.601H236.065C233.009 114.692 238.685 78.8609 225.325 78.8609H215.545V119.601ZM215.545 54.8098H226.198C232.485 54.8098 235.803 50.5558 235.803 40.739C235.803 30.9223 232.485 26.6683 226.198 26.6683H215.545V54.8098Z" fill="black"/>
<path d="M169.829 122.219C150.007 122.219 138.918 96.3681 138.918 61.0277C138.918 25.8509 150.007 0 169.829 0C189.475 0 200.739 25.8509 200.739 61.0277C200.739 96.3681 189.475 122.219 169.829 122.219ZM169.829 98.1679C181.18 98.1679 184.673 81.4793 184.673 61.0277C184.673 40.7397 181.18 24.0511 169.829 24.0511C158.39 24.0511 154.985 40.7397 154.985 61.0277C154.985 81.4793 158.39 98.1679 169.829 98.1679Z" fill="black"/>
<path d="M114.565 119.601H98.8477V2.61719H145.301V26.6683H114.565V52.3556H139.625V76.4067H114.565V119.601Z" fill="black"/>
<path d="M99.4091 119.601H51.5586V2.61719H98.8852V26.6683H67.2759V47.4472H94.5193V71.4983H67.2759V95.5494H99.4091V119.601Z" fill="black"/>
<path d="M31.1727 119.601H0V2.61719H30.2995C43.31 2.61719 50.1208 12.1068 50.1208 32.0676C50.1208 46.4655 45.5803 53.6645 40.4285 56.9367V57.264C46.9774 59.3909 52.5657 67.5716 52.5657 85.0782C52.5657 109.947 44.0958 119.601 31.1727 119.601ZM15.7173 49.9014H26.1956C30.5615 49.9014 34.0542 47.938 34.0542 38.2849C34.0542 28.6317 30.5615 26.6683 26.1956 26.6683H15.7173V49.9014ZM15.7173 95.5494H26.6321C33.181 95.5494 36.4991 92.6044 36.4991 81.6423C36.4991 70.6802 33.181 67.8988 26.6321 67.8988H15.7173V95.5494Z" fill="black"/>
</svg>

