<svg width="36" height="16" viewBox="0 0 36 16" fill="none" xmlns="http://www.w3.org/2000/svg">
<path d="M7.12 8.656L7.168 5.296H7.04L4.8 11.04L2.56 5.296H2.432L2.48 8.656V14H0.896V2.832H3.088L4.8 7.264H4.912L6.64 2.832H8.704V14H7.12V8.656ZM10.0098 14V2.832H17.0017V4.336H11.8018V7.584H16.8098V9.088H11.8018V12.496H17.0017V14H10.0098ZM18.6115 14V2.832H22.7875C23.8542 2.832 24.6648 3.13067 25.2195 3.728C25.7848 4.32533 26.0675 5.14667 26.0675 6.192C26.0675 7.23733 25.7848 8.05867 25.2195 8.656C24.6648 9.25333 23.8542 9.552 22.7875 9.552H20.4035V14H18.6115ZM20.4035 8.064H22.5155C23.6248 8.064 24.1795 7.552 24.1795 6.528V5.84C24.1795 4.82667 23.6248 4.32 22.5155 4.32H20.4035V8.064ZM32.4773 9.792H32.3973C32.1199 9.90933 31.8053 10 31.4533 10.064C31.1013 10.128 30.7013 10.16 30.2533 10.16C29.6133 10.16 29.0693 10.0853 28.6213 9.936C28.1733 9.776 27.8053 9.536 27.5173 9.216C27.2293 8.88533 27.0213 8.46933 26.8933 7.968C26.7653 7.46667 26.7013 6.86933 26.7013 6.176V2.832H28.4933V6.192C28.4933 6.66133 28.5253 7.056 28.5893 7.376C28.6639 7.68533 28.7813 7.936 28.9413 8.128C29.1119 8.32 29.3306 8.45867 29.5973 8.544C29.8639 8.61867 30.1946 8.656 30.5893 8.656C31.2719 8.656 31.9013 8.544 32.4773 8.32V2.832H34.2693V14H32.4773V9.792Z" fill="white"/>
</svg>

