<svg width="90" height="64" viewBox="0 0 90 64" fill="none" xmlns="http://www.w3.org/2000/svg">
<path d="M90.0016 62.6314H71.0078V1.37305H89.7937V13.9674H77.2467V24.8483H88.0607V37.4427H77.2467V50.037H90.0016V62.6314Z" fill="black"/>
<path d="M50.6813 62.6314H44.7891V1.37305H52.4143L57.5094 40.4413H57.5787L62.6738 1.37305H70.299V62.6314H64.4068V24.5056H64.3375L59.7276 62.6314H55.3604L50.7506 24.5056H50.6813V62.6314Z" fill="black"/>
<path d="M32.8869 64C25.019 64 20.6172 50.4632 20.6172 31.9572C20.6172 13.5368 25.019 0 32.8869 0C40.6855 0 45.1567 13.5368 45.1567 31.9572C45.1567 50.4632 40.6855 64 32.8869 64ZM32.8869 51.4056C37.3928 51.4056 38.7792 42.6667 38.7792 31.9572C38.7792 21.3333 37.3928 12.5944 32.8869 12.5944C28.3464 12.5944 26.9947 21.3333 26.9947 31.9572C26.9947 42.6667 28.3464 51.4056 32.8869 51.4056Z" fill="black"/>
<path d="M6.23885 62.6314H0V1.37305H6.23885V25.3623H14.7306V1.37305H20.9695V62.6314H14.7306V37.9567H6.23885V62.6314Z" fill="black"/>
</svg>

