<svg width="1192" height="404" viewBox="0 0 1192 404" fill="none" xmlns="http://www.w3.org/2000/svg">
<path d="M922.818 401.462H874.168V288.05H922.285V311.367H890.148V331.511H917.846V354.828H890.148V378.145H922.818V401.462Z" fill="black"/>
<path d="M858.012 401.462H842.032V311.367H823.566V288.05H876.389V311.367H858.012V401.462Z" fill="black"/>
<path d="M780.41 401.462H755.641V288.05H771.621V323.104H781.297C795.502 323.104 804.468 338.49 804.468 361.807C804.468 386.71 795.147 401.462 780.41 401.462ZM825.775 401.462H809.795V288.05H825.775V401.462ZM771.621 346.421V378.145H779.966C785.026 378.145 788.133 372.435 788.133 361.807C788.133 352.925 785.292 346.421 780.765 346.421H771.621Z" fill="black"/>
<path d="M717.035 401.462H701.055V288.05H753.877V401.462H737.897V311.367H717.035V401.462Z" fill="black"/>
<path d="M670.552 404C650.4 404 639.125 378.939 639.125 344.677C639.125 310.574 650.4 285.513 670.552 285.513C690.527 285.513 701.979 310.574 701.979 344.677C701.979 378.939 690.527 404 670.552 404ZM670.552 380.683C682.093 380.683 685.644 364.504 685.644 344.677C685.644 325.009 682.093 308.83 670.552 308.83C658.922 308.83 655.46 325.009 655.46 344.677C655.46 364.504 658.922 380.683 670.552 380.683Z" fill="black"/>
<path d="M581.698 401.462H566.605V288.05H586.137L599.187 360.38H599.364L612.415 288.05H631.946V401.462H616.854V330.877H616.676L604.869 401.462H593.683L581.875 330.877H581.698V401.462Z" fill="black"/>
<path d="M567.177 401.462H518.527V288.05H566.645V311.367H534.507V331.511H562.206V354.828H534.507V378.145H567.177V401.462Z" fill="black"/>
<path d="M516.759 401.462H500.779V352.449H500.602C496.962 362.283 490.57 368.628 484.001 368.628C473.258 368.628 466.156 354.987 466.156 333.415V288.05H482.136V328.656C482.136 338.649 485.599 344.835 491.103 344.835C495.453 344.835 498.56 340.394 500.779 334.683V288.05H516.759V401.462Z" fill="black"/>
<path d="M437.857 404C417.704 404 406.43 378.939 406.43 344.677C406.43 310.574 417.704 285.513 437.857 285.513C457.832 285.513 469.284 310.574 469.284 344.677C469.284 378.939 457.832 404 437.857 404ZM437.857 380.683C449.398 380.683 452.949 364.504 452.949 344.677C452.949 325.009 449.398 308.83 437.857 308.83C426.227 308.83 422.765 325.009 422.765 344.677C422.765 364.504 426.227 380.683 437.857 380.683Z" fill="black"/>
<path d="M387.102 401.462H361.445V288.05H404.591V311.367H377.425V327.863H387.99C403.082 327.863 411.161 342.297 411.161 363.869C411.161 387.503 402.727 401.462 387.102 401.462ZM377.425 351.18V378.145H386.658C391.985 378.145 394.826 373.228 394.826 363.869C394.826 356.731 392.34 351.18 387.457 351.18H377.425Z" fill="black"/>
<path d="M318.142 401.462H301.008L325.155 288.05H341.224L365.549 401.462H348.06L343.976 377.828H322.226L318.142 401.462ZM333.057 314.222L325.866 356.097H340.425L333.234 314.222H333.057Z" fill="black"/>
<path d="M278.66 401.462H262.68V288.05H293.486C306.713 288.05 314.97 300.422 314.97 324.215C314.97 348.007 306.713 360.38 293.486 360.38H278.66V401.462ZM278.66 337.063H289.757C295.261 337.063 298.635 333.732 298.635 324.215C298.635 314.698 295.261 311.367 289.757 311.367H278.66V337.063Z" fill="black"/>
<path d="M1141.75 258.705H1126.66V145.293H1146.19L1159.24 217.623H1159.42L1172.47 145.293H1192V258.705H1176.91V188.12H1176.73L1164.92 258.705H1153.74L1141.93 188.12H1141.75V258.705Z" fill="black"/>
<path d="M1127.23 258.705H1078.58V145.293H1126.7V168.61H1094.56V188.754H1122.26V212.071H1094.56V235.388H1127.23V258.705Z" fill="black"/>
<path d="M1076.82 258.705H1001.36V145.293H1017.34V235.388H1031.1V145.293H1047.08V235.388H1060.84V145.293H1076.82V258.705Z" fill="black"/>
<path d="M958.052 258.705H940.918L965.065 145.293H981.134L1005.46 258.705H987.97L983.886 235.071H962.136L958.052 258.705ZM972.967 171.465L965.776 213.34H980.335L973.144 171.465H972.967Z" fill="black"/>
<path d="M927.447 258.705H895.754V145.293H926.56C939.788 145.293 946.712 154.493 946.712 173.844C946.712 187.803 942.096 194.782 936.858 197.954V198.271C943.516 200.333 949.198 208.264 949.198 225.236C949.198 249.346 940.587 258.705 927.447 258.705ZM911.734 191.134H922.387C926.826 191.134 930.377 189.23 930.377 179.872C930.377 170.513 926.826 168.61 922.387 168.61H911.734V191.134ZM911.734 235.388H922.831C929.489 235.388 932.863 232.533 932.863 221.905C932.863 211.278 929.489 208.582 922.831 208.582H911.734V235.388Z" fill="black"/>
<path d="M845.57 258.705H829.59V145.293H845.57V215.719H845.747L869.984 145.293H885.964V258.705H869.984V188.278H869.806L845.57 258.705Z" fill="black"/>
<path d="M822.127 258.705H773.477V145.293H821.594V168.61H789.457V188.754H817.155V212.071H789.457V235.388H822.127V258.705Z" fill="black"/>
<path d="M751.485 258.705H725.828V145.293H768.974V168.61H741.808V185.106H752.373C767.465 185.106 775.544 199.54 775.544 221.112C775.544 244.746 767.11 258.705 751.485 258.705ZM741.808 208.423V235.388H751.041C756.368 235.388 759.208 230.471 759.208 221.112C759.208 213.975 756.723 208.423 751.84 208.423H741.808Z" fill="black"/>
<path d="M726.392 258.705H677.742V145.293H725.86V168.61H693.722V188.754H721.421V212.071H693.722V235.388H726.392V258.705Z" fill="black"/>
<path d="M650.858 261.243C630.706 261.243 620.496 236.182 620.496 202.396C620.496 167.659 631.238 142.756 651.302 142.756C668.614 142.756 677.846 161.156 679.356 187.486H663.021C661.866 175.114 659.026 166.073 650.592 166.073C640.027 166.073 636.831 180.666 636.831 201.92C636.831 223.334 640.027 237.927 650.592 237.927C659.114 237.927 661.955 228.885 663.021 216.196H679.356C677.935 242.209 668.347 261.243 650.858 261.243Z" fill="black"/>
<path d="M584.63 261.243C564.478 261.243 553.203 236.182 553.203 201.92C553.203 167.817 564.478 142.756 584.63 142.756C604.605 142.756 616.058 167.817 616.058 201.92C616.058 236.182 604.605 261.243 584.63 261.243ZM584.63 237.927C596.171 237.927 599.723 221.748 599.723 201.92C599.723 182.252 596.171 166.073 584.63 166.073C573.001 166.073 569.538 182.252 569.538 201.92C569.538 221.748 573.001 237.927 584.63 237.927Z" fill="black"/>
<path d="M548.404 258.705H499.754V145.293H547.871V168.61H515.734V188.754H543.432V212.071H515.734V235.388H548.404V258.705Z" fill="black"/>
<path d="M483.598 258.705H467.618V168.61H449.152V145.293H501.975V168.61H483.598V258.705Z" fill="black"/>
<path d="M410.988 258.705H395.008V145.293H410.988V215.719H411.165L435.402 145.293H451.382V258.705H435.402V188.278H435.224L410.988 258.705Z" fill="black"/>
<path d="M398.024 145.293L379.025 201.92L399.089 258.705H381.067L366.685 215.719H362.158V258.705H346.178V215.719H341.65L327.268 258.705H309.246L329.31 201.92L310.311 145.293H326.913L341.65 192.403H346.178V145.293H362.158V192.403H366.685L381.422 145.293H398.024Z" fill="black"/>
<path d="M271.802 258.705H254.668L278.815 145.293H294.884L319.209 258.705H301.72L297.636 235.071H275.886L271.802 258.705ZM286.717 171.465L279.526 213.34H294.085L286.894 171.465H286.717Z" fill="black"/>
<path d="M264.1 145.293L238.798 201.285L265.698 258.705H245.634L225.926 215.719H221.398V258.705H205.418V145.293H221.398V192.403H225.926L246.877 145.293H264.1Z" fill="black"/>
<path d="M178.534 261.243C158.381 261.243 148.172 236.182 148.172 202.396C148.172 167.659 158.914 142.756 178.978 142.756C196.289 142.756 205.522 161.156 207.031 187.486H190.696C189.542 175.114 186.701 166.073 178.267 166.073C167.703 166.073 164.507 180.666 164.507 201.92C164.507 223.334 167.703 237.927 178.267 237.927C186.79 237.927 189.631 228.885 190.696 216.196H207.031C205.611 242.209 196.023 261.243 178.534 261.243Z" fill="black"/>
<path d="M123.948 261.243C103.795 261.243 93.5859 236.182 93.5859 202.396C93.5859 167.659 104.328 142.756 124.392 142.756C141.703 142.756 150.936 161.156 152.445 187.486H136.11C134.956 175.114 132.115 166.073 123.682 166.073C113.117 166.073 109.921 180.666 109.921 201.92C109.921 223.334 113.117 237.927 123.682 237.927C132.204 237.927 135.045 228.885 136.11 216.196H152.445C151.025 242.209 141.437 261.243 123.948 261.243Z" fill="black"/>
<path d="M55.4583 258.705H38.3242L62.4717 145.293H78.5404L102.866 258.705H85.3763L81.2925 235.071H59.5421L55.4583 258.705ZM70.3729 171.465L63.1819 213.34H77.7414L70.5505 171.465H70.3729Z" fill="black"/>
<path d="M15.98 258.705H0V145.293H30.8058C44.0337 145.293 52.29 157.665 52.29 181.458C52.29 205.251 44.0337 217.623 30.8058 217.623H15.98V258.705ZM15.98 194.306H27.0771C32.5814 194.306 35.9549 190.975 35.9549 181.458C35.9549 171.941 32.5814 168.61 27.0771 168.61H15.98V194.306Z" fill="black"/>
<path d="M1094.65 78.8331H1082.93C1082.93 59.1645 1083.73 56.9439 1091.28 47.1095C1096.16 40.7648 1097.76 38.0683 1097.76 31.4064C1097.76 26.4892 1096.16 21.7307 1091.19 21.7307C1085.6 21.7307 1082.85 28.234 1082.85 40.1303H1067.75C1067.75 17.9238 1075.66 0 1091.63 0C1103.98 0 1112.85 12.3722 1112.85 30.7719C1112.85 43.4613 1109.39 51.2336 1103.18 57.4197C1096.96 63.6058 1094.65 67.254 1094.65 78.8331ZM1095.63 115.95H1082.14V91.8398H1095.63V115.95Z" fill="black"/>
<path d="M1029.77 115.949H1013.79V2.53711H1029.77V72.9635H1029.94L1054.18 2.53711H1070.16V115.949H1054.18V45.5226H1054L1029.77 115.949Z" fill="black"/>
<path d="M961.729 115.949H946.637V2.53711H966.168L979.218 74.8669H979.396L992.446 2.53711H1011.98V115.949H996.885V45.364H996.707L984.9 115.949H973.714L961.906 45.364H961.729V115.949Z" fill="black"/>
<path d="M903.326 115.949H886.191L910.339 2.53711H926.408L950.733 115.949H933.243L929.16 92.3149H907.409L903.326 115.949ZM918.24 28.7091L911.049 70.5842H925.609L918.418 28.7091H918.24Z" fill="black"/>
<path d="M852.492 115.949H836.512V2.53711H852.492V46.9501H874.242V2.53711H890.222V115.949H874.242V70.267H852.492V115.949Z" fill="black"/>
<path d="M801.6 118.488C781.448 118.488 771.238 93.426 771.238 59.6404C771.238 24.903 781.98 0 802.044 0C819.356 0 828.589 18.3997 830.098 44.7303H813.763C812.609 32.3581 809.768 23.3168 801.334 23.3168C790.769 23.3168 787.573 37.9097 787.573 59.1645C787.573 80.5779 790.769 95.1708 801.334 95.1708C809.857 95.1708 812.697 86.1296 813.763 73.4401H830.098C828.677 99.4535 819.089 118.488 801.6 118.488Z" fill="black"/>
<path d="M746.154 115.949H719.609V2.53711H735.589V37.5917H747.042C761.246 37.5917 770.213 52.9776 770.213 76.2945C770.213 101.197 760.891 115.949 746.154 115.949ZM735.589 60.9085V92.6321H745.71C750.77 92.6321 753.877 86.9219 753.877 76.2945C753.877 67.4119 751.037 60.9085 746.509 60.9085H735.589Z" fill="black"/>
<path d="M703.45 115.949H687.47V25.854H669.004V2.53711H721.827V25.854H703.45V115.949Z" fill="black"/>
<path d="M637.325 115.949H620.191L644.339 2.53711H660.408L684.733 115.949H667.244L663.16 92.3149H641.409L637.325 115.949ZM652.24 28.7091L645.049 70.5842H659.609L652.418 28.7091H652.24Z" fill="black"/>
<path d="M617.344 115.949H601.364V25.854H582.898V2.53711H635.721V25.854H617.344V115.949Z" fill="black"/>
<path d="M559.427 118.488C539.275 118.488 528 93.426 528 59.1645C528 25.0616 539.275 0 559.427 0C579.402 0 590.854 25.0616 590.854 59.1645C590.854 93.426 579.402 118.488 559.427 118.488ZM559.427 95.1708C570.968 95.1708 574.519 78.9918 574.519 59.1645C574.519 39.4959 570.968 23.3168 559.427 23.3168C547.797 23.3168 544.335 39.4959 544.335 59.1645C544.335 78.9918 547.797 95.1708 559.427 95.1708Z" fill="black"/>
<path d="M508.672 115.949H483.016V2.53711H526.161V25.854H498.996V42.3502H509.56C524.652 42.3502 532.731 56.7845 532.731 78.3565C532.731 101.991 524.297 115.949 508.672 115.949ZM498.996 65.6671V92.6321H508.228C513.555 92.6321 516.396 87.715 516.396 78.3565C516.396 71.2187 513.91 65.6671 509.027 65.6671H498.996Z" fill="black"/>
<path d="M439.704 115.949H422.57L446.718 2.53711H462.787L487.112 115.949H469.622L465.539 92.3149H443.788L439.704 115.949ZM454.619 28.7091L447.428 70.5842H461.988L454.797 28.7091H454.619Z" fill="black"/>
<path d="M400.23 115.949H384.25V2.53711H415.056C428.284 2.53711 436.54 14.9093 436.54 38.702C436.54 62.4947 428.284 74.8669 415.056 74.8669H400.23V115.949ZM400.23 51.5501H411.327C416.831 51.5501 420.205 48.2191 420.205 38.702C420.205 29.1849 416.831 25.854 411.327 25.854H400.23V51.5501Z" fill="black"/>
<path d="M376.791 115.949H328.141V2.53711H376.258V25.854H344.121V45.9984H371.819V69.3153H344.121V92.6321H376.791V115.949Z" fill="black"/>
<path d="M311.985 115.949H296.005V25.854H277.539V2.53711H330.362V25.854H311.985V115.949Z" fill="black"/>
<path d="M239.371 115.949H223.391V2.53711H239.371V72.9635H239.548L263.784 2.53711H279.764V115.949H263.784V45.5226H263.607L239.371 115.949Z" fill="black"/>
<path d="M207.231 115.949H191.251V25.854H172.785V2.53711H225.608V25.854H207.231V115.949Z" fill="black"/>
<path d="M149.318 118.488C129.165 118.488 117.891 93.426 117.891 59.1645C117.891 25.0616 129.165 0 149.318 0C169.293 0 180.745 25.0616 180.745 59.1645C180.745 93.426 169.293 118.488 149.318 118.488ZM149.318 95.1708C160.859 95.1708 164.41 78.9918 164.41 59.1645C164.41 39.4959 160.859 23.3168 149.318 23.3168C137.688 23.3168 134.226 39.4959 134.226 59.1645C134.226 78.9918 137.688 95.1708 149.318 95.1708Z" fill="black"/>
<path d="M85.7477 115.949H67.9922L89.0325 58.0534L69.7677 2.53711H86.6355L98.2653 37.1158H98.4429L110.162 2.53711H127.029L107.765 57.7362L128.805 115.949H111.049L98.4429 79.1496H98.2653L85.7477 115.949Z" fill="black"/>
</svg>

