<svg width="94" height="65" viewBox="0 0 94 65" fill="none" xmlns="http://www.w3.org/2000/svg">
<path d="M93.997 63.6101H76.0156V1.39453H93.8001V14.1857H81.9219V25.2366H92.1594V38.0277H81.9219V50.8189H93.997V63.6101Z" fill="black"/>
<path d="M62.6172 63.6101H56.7109V1.39453H67.7688C72.986 1.39453 76.136 7.83362 76.136 19.1455C76.136 27.847 74.2985 32.9809 71.3782 34.7212V34.8952C77.2517 37.5927 75.1188 61.6957 76.4642 62.7399V63.6101H70.3282C69.1797 60.9996 71.3126 41.9434 66.2922 41.9434H62.6172V63.6101ZM62.6172 29.1522H66.6204C68.9829 29.1522 70.2298 26.8898 70.2298 21.669C70.2298 16.4481 68.9829 14.1857 66.6204 14.1857H62.6172V29.1522Z" fill="black"/>
<path d="M45.4438 65C37.9953 65 33.8281 51.2517 33.8281 32.4565C33.8281 13.7483 37.9953 0 45.4438 0C52.8267 0 57.0595 13.7483 57.0595 32.4565C57.0595 51.2517 52.8267 65 45.4438 65ZM45.4438 52.2088C49.7094 52.2088 51.022 43.3333 51.022 32.4565C51.022 21.6667 49.7094 12.7912 45.4438 12.7912C41.1453 12.7912 39.8657 21.6667 39.8657 32.4565C39.8657 43.3333 41.1453 52.2088 45.4438 52.2088Z" fill="black"/>
<path d="M29.9579 63.6101H24.0516V14.1857H17.2266V1.39453H36.7501V14.1857H29.9579V63.6101Z" fill="black"/>
<path d="M10.7626 65C4.62658 65 0 56.7336 0 42.4632H5.9719C5.9719 49.6854 8.0391 52.3829 10.6969 52.3829C12.8954 52.3829 14.011 50.0335 14.011 46.8139C14.011 41.506 11.6813 40.1138 8.43285 37.5033C4.36408 34.1968 0.721878 30.0201 0.721878 18.8822C0.721878 5.3079 4.72502 0 9.77817 0C15.2579 0 19.5563 7.6573 19.7204 20.2744H13.7485C13.486 15.4886 12.0422 12.6171 9.77817 12.6171C8.00629 12.6171 6.75941 14.1834 6.75941 17.751C6.75941 21.9277 8.07191 23.3199 11.0579 25.6693C15.4876 29.1499 20.0485 32.4565 20.0485 45.3347C20.0485 57.2557 16.636 65 10.7626 65Z" fill="black"/>
</svg>

