<svg width="78" height="17" viewBox="0 0 78 17" fill="none" xmlns="http://www.w3.org/2000/svg">
<path d="M7.072 14.36L6.224 11.384H2.672L1.824 14.36H0L3.264 3.192H5.712L8.976 14.36H7.072ZM4.512 5H4.384L3.008 9.896H5.888L4.512 5Z" fill="white"/>
<path d="M10.2498 3.192H16.7138V4.696H12.0417V14.36H10.2498V3.192Z" fill="white"/>
<path d="M18.3235 14.36V3.192H25.3155V4.696H20.1155V7.944H25.1235V9.448H20.1155V12.856H25.3155V14.36H18.3235Z" fill="white"/>
<path d="M32.2373 9.448H28.5253V14.36H26.7333V3.192H28.5253V7.944H32.2373V3.192H34.0293V14.36H32.2373V9.448Z" fill="white"/>
<path d="M39.911 4.696V14.36H38.119V4.696H34.615V3.192H43.415V4.696H39.911Z" fill="white"/>
<path d="M47.9688 14.552C46.5501 14.552 45.4941 14.0507 44.8008 13.048C44.1181 12.0453 43.7768 10.6213 43.7768 8.776C43.7768 6.93067 44.1181 5.50667 44.8008 4.504C45.4941 3.50133 46.5501 3 47.9688 3C48.5127 3 48.9821 3.07467 49.3768 3.224C49.7821 3.36267 50.1288 3.56 50.4168 3.816C50.7048 4.06133 50.9447 4.35467 51.1367 4.696C51.3394 5.02667 51.5048 5.384 51.6328 5.768L50.0168 6.312C49.9314 6.056 49.8354 5.816 49.7288 5.592C49.6221 5.368 49.4888 5.176 49.3288 5.016C49.1688 4.856 48.9768 4.728 48.7528 4.632C48.5394 4.536 48.2728 4.488 47.9528 4.488C47.1634 4.488 46.5874 4.792 46.2248 5.4C45.8621 5.99733 45.6808 6.808 45.6808 7.832V9.72C45.6808 10.744 45.8621 11.56 46.2248 12.168C46.5874 12.7653 47.1634 13.064 47.9528 13.064C48.2728 13.064 48.5394 13.016 48.7528 12.92C48.9768 12.824 49.1688 12.696 49.3288 12.536C49.4888 12.376 49.6221 12.184 49.7288 11.96C49.8354 11.736 49.9314 11.496 50.0168 11.24L51.6328 11.784C51.5048 12.168 51.3394 12.5307 51.1367 12.872C50.9447 13.2027 50.7048 13.496 50.4168 13.752C50.1288 13.9973 49.7821 14.1947 49.3768 14.344C48.9821 14.4827 48.5127 14.552 47.9688 14.552Z" fill="white"/>
<path d="M57.1785 4.696V14.36H55.3865V4.696H51.8825V3.192H60.6825V4.696H57.1785Z" fill="white"/>
<path d="M61.4442 3.192H65.3002C66.3136 3.192 67.0976 3.45333 67.6523 3.976C68.2176 4.49867 68.5003 5.21333 68.5003 6.12C68.5003 6.77067 68.3402 7.288 68.0202 7.672C67.7002 8.056 67.2683 8.328 66.7243 8.488V8.568C67.3749 8.71733 67.8976 9.00533 68.2923 9.432C68.6869 9.848 68.8842 10.44 68.8842 11.208C68.8842 11.6667 68.8096 12.088 68.6602 12.472C68.5109 12.856 68.2976 13.192 68.0202 13.48C67.7429 13.7573 67.4069 13.976 67.0123 14.136C66.6283 14.2853 66.2016 14.36 65.7322 14.36H61.4442V3.192ZM65.1882 12.984C65.7856 12.984 66.2442 12.8613 66.5642 12.616C66.8842 12.3707 67.0443 11.976 67.0443 11.432V10.856C67.0443 10.312 66.8842 9.91733 66.5642 9.672C66.2442 9.42667 65.7856 9.304 65.1882 9.304H63.2043V12.984H65.1882ZM64.9323 7.992C65.4976 7.992 65.9242 7.88533 66.2122 7.672C66.5109 7.448 66.6602 7.08 66.6602 6.568V5.992C66.6602 5.48 66.5109 5.11733 66.2122 4.904C65.9242 4.68 65.4976 4.568 64.9323 4.568H63.2043V7.992H64.9323Z" fill="white"/>
<path d="M73.55 14.552C72.846 14.552 72.2327 14.424 71.71 14.168C71.198 13.9013 70.7713 13.5227 70.43 13.032C70.0993 12.5413 69.854 11.9387 69.694 11.224C69.534 10.5093 69.454 9.69333 69.454 8.776C69.454 7.86933 69.534 7.05867 69.694 6.344C69.854 5.61867 70.0993 5.01067 70.43 4.52C70.7713 4.02933 71.198 3.656 71.71 3.4C72.2327 3.13333 72.846 3 73.55 3C74.254 3 74.862 3.13333 75.374 3.4C75.8967 3.656 76.3233 4.02933 76.654 4.52C76.9953 5.01067 77.246 5.61867 77.406 6.344C77.566 7.05867 77.646 7.86933 77.646 8.776C77.646 9.69333 77.566 10.5093 77.406 11.224C77.246 11.9387 76.9953 12.5413 76.654 13.032C76.3233 13.5227 75.8967 13.9013 75.374 14.168C74.862 14.424 74.254 14.552 73.55 14.552ZM73.55 13.064C74.35 13.064 74.9153 12.7653 75.246 12.168C75.5767 11.56 75.742 10.7387 75.742 9.704V7.832C75.742 6.808 75.5767 5.99733 75.246 5.4C74.9153 4.792 74.35 4.488 73.55 4.488C72.75 4.488 72.1847 4.792 71.854 5.4C71.5233 5.99733 71.358 6.808 71.358 7.832V9.72C71.358 10.744 71.5233 11.56 71.854 12.168C72.1847 12.7653 72.75 13.064 73.55 13.064Z" fill="white"/>
</svg>

