<svg width="980" height="420" viewBox="0 0 980 420" fill="none" xmlns="http://www.w3.org/2000/svg">
<path d="M806.277 362.549H793.88C793.88 342.977 794.726 340.767 802.709 330.982C807.874 324.668 809.565 321.985 809.565 315.356C809.565 310.463 807.874 305.728 802.615 305.728C796.698 305.728 793.786 312.199 793.786 324.037H777.82C777.82 301.94 786.179 284.104 803.084 284.104C816.139 284.104 825.531 296.416 825.531 314.725C825.531 327.351 821.868 335.085 815.294 341.241C808.719 347.397 806.277 351.027 806.277 362.549ZM807.31 399.482H793.035V375.491H807.31V399.482Z" fill="black"/>
<path d="M765.143 399.481H748.238V309.831H728.703V286.629H784.584V309.831H765.143V399.481Z" fill="black"/>
<path d="M734.537 399.481H683.07V286.629H733.974V309.831H699.976V329.876H729.278V353.078H699.976V376.28H734.537V399.481Z" fill="black"/>
<path d="M686.261 286.629L666.163 342.976L687.388 399.481H668.323L653.109 356.708H648.319V399.481H631.414V356.708H626.624L611.409 399.481H592.344L613.569 342.976L593.471 286.629H611.033L626.624 333.506H631.414V286.629H648.319V333.506H653.109L668.699 286.629H686.261Z" fill="black"/>
<path d="M545.707 420H530.68V376.437H535.563C540.917 376.437 542.325 368.388 542.983 348.027L544.861 286.629H592.759V376.437H599.803V420H584.776V399.639H545.707V420ZM554.159 376.122V376.437H575.854V309.831H559.888L558.01 354.498C557.54 365.547 556.319 371.702 554.159 376.122Z" fill="black"/>
<path d="M508.299 284.104C527.176 284.104 537.789 305.254 537.789 342.977C537.789 380.858 527.176 402.008 508.299 402.008C491.3 402.008 480.969 384.804 479.09 353.552H469.417V399.482H452.512V286.63H469.417V330.35H479.278C481.438 300.519 491.675 284.104 508.299 284.104ZM508.299 378.806C515.812 378.806 520.508 366.495 520.508 342.977C520.508 319.46 515.812 307.306 508.299 307.306C500.785 307.306 496.09 319.46 496.09 342.977C496.09 366.495 500.785 378.806 508.299 378.806Z" fill="black"/>
<path d="M429.244 399.481H402.102V286.629H447.746V309.831H419.007V326.246H430.183C446.149 326.246 454.695 340.609 454.695 362.074C454.695 385.592 445.773 399.481 429.244 399.481ZM419.007 349.447V376.28H428.774C434.409 376.28 437.415 371.387 437.415 362.074C437.415 354.972 434.785 349.447 429.619 349.447H419.007Z" fill="black"/>
<path d="M365.171 402.008C343.851 402.008 333.051 377.07 333.051 343.451C333.051 308.885 344.415 284.104 365.64 284.104C383.954 284.104 393.722 302.413 395.318 328.614H378.037C376.816 316.303 373.811 307.306 364.889 307.306C353.713 307.306 350.332 321.827 350.332 342.977C350.332 364.285 353.713 378.806 364.889 378.806C373.905 378.806 376.91 369.809 378.037 357.182H395.318C393.816 383.067 383.672 402.008 365.171 402.008Z" fill="black"/>
<path d="M292.708 399.481H274.582L300.128 286.629H317.127L342.86 399.481H324.358L320.038 375.964H297.028L292.708 399.481ZM308.486 312.672L300.879 354.34H316.281L308.674 312.672H308.486Z" fill="black"/>
<path d="M260.325 399.481H226.797V286.629H259.386C273.38 286.629 280.706 295.783 280.706 315.039C280.706 328.929 275.822 335.874 270.281 339.03V339.346C277.325 341.398 283.335 349.29 283.335 366.178C283.335 390.169 274.225 399.481 260.325 399.481ZM243.702 332.243H254.972C259.668 332.243 263.425 330.349 263.425 321.037C263.425 311.725 259.668 309.831 254.972 309.831H243.702V332.243ZM243.702 376.28H255.442C262.486 376.28 266.054 373.439 266.054 362.864C266.054 352.289 262.486 349.605 255.442 349.605H243.702V376.28Z" fill="black"/>
<path d="M189.612 399.481H173.27L183.601 365.705L162.094 286.629H178.999L192.429 336.031H192.617L207.362 286.629H223.516L189.612 399.481Z" fill="black"/>
<path d="M949.85 136.212C941.303 136.212 935.104 126.899 934.823 112.221H943.463C943.745 117.429 945.811 120.744 949.85 120.744C953.888 120.744 955.954 117.429 956.236 112.221H964.876C964.501 126.426 958.584 136.212 949.85 136.212ZM937.265 257.43H920.359V144.577H937.265V214.656H937.452L963.092 144.577H979.997V257.43H963.092V187.35H962.904L937.265 257.43Z" fill="black"/>
<path d="M888.091 259.955C866.771 259.955 854.844 235.017 854.844 200.924C854.844 166.99 866.771 142.052 888.091 142.052C909.222 142.052 921.337 166.99 921.337 200.924C921.337 235.017 909.222 259.955 888.091 259.955ZM888.091 236.753C900.3 236.753 904.057 220.654 904.057 200.924C904.057 181.353 900.3 165.254 888.091 165.254C875.787 165.254 872.125 181.353 872.125 200.924C872.125 220.654 875.787 236.753 888.091 236.753Z" fill="black"/>
<path d="M866.306 144.577L839.54 200.293L867.997 257.43H846.771L825.922 214.656H821.132V257.43H804.227V144.577H821.132V191.454H825.922L848.086 144.577H866.306Z" fill="black"/>
<path d="M758.407 257.43H740.281L765.827 144.577H782.826L808.559 257.43H790.058L785.737 233.912H762.728L758.407 257.43ZM774.186 170.62L766.578 212.289H781.981L774.373 170.62H774.186Z" fill="black"/>
<path d="M750.263 144.577L723.497 200.293L751.954 257.43H730.728L709.879 214.656H705.089V257.43H688.184V144.577H705.089V191.454H709.879L732.043 144.577H750.263Z" fill="black"/>
<path d="M679.291 208.501H665.016V184.51H679.291V208.501ZM679.291 257.43H665.016V233.439H679.291V257.43Z" fill="black"/>
<path d="M621.925 257.43H605.02V144.577H621.925V214.656H622.113L647.752 144.577H664.657V257.43H647.752V187.351H647.564L621.925 257.43Z" fill="black"/>
<path d="M580.503 257.43H563.598V144.577H607.363V167.779H580.503V257.43Z" fill="black"/>
<path d="M540.355 257.43H512.273V144.577H529.179V179.459H541.294C556.321 179.459 565.807 194.769 565.807 217.971C565.807 242.751 555.945 257.43 540.355 257.43ZM529.179 202.661V234.228H539.885C545.239 234.228 548.526 228.546 548.526 217.971C548.526 209.132 545.52 202.661 540.731 202.661H529.179Z" fill="black"/>
<path d="M470.518 257.43H453.613V144.577H470.518V188.771H493.528V144.577H510.434V257.43H493.528V211.973H470.518V257.43Z" fill="black"/>
<path d="M454.213 257.43H402.746V144.577H453.649V167.779H419.651V187.824H448.954V211.026H419.651V234.228H454.213V257.43Z" fill="black"/>
<path d="M349.91 277.948H334.883V234.386H339.767C345.12 234.386 346.529 226.336 347.186 205.975L349.064 144.577H396.962V234.386H404.006V277.948H388.979V257.587H349.91V277.948ZM358.362 234.07V234.386H380.057V167.779H364.091L362.213 212.446C361.743 223.495 360.522 229.651 358.362 234.07Z" fill="black"/>
<path d="M281.582 257.43H255.379V144.577H272.284V179.459H282.521C297.548 179.459 307.034 194.769 307.034 217.971C307.034 242.751 297.172 257.43 281.582 257.43ZM329.574 257.43H312.669V144.577H329.574V257.43ZM272.284 202.661V234.228H281.112C286.466 234.228 289.753 228.546 289.753 217.971C289.753 209.132 286.747 202.661 281.958 202.661H272.284Z" fill="black"/>
<path d="M213.62 257.43H196.715V144.577H213.62V188.771H236.63V144.577H253.535V257.43H236.63V211.973H213.62V257.43Z" fill="black"/>
<path d="M199.906 144.577L179.808 200.924L201.033 257.43H181.968L166.753 214.656H161.963V257.43H145.058V214.656H140.268L125.054 257.43H105.988L127.214 200.924L107.115 144.577H124.678L140.268 191.454H145.058V144.577H161.963V191.454H166.753L182.343 144.577H199.906Z" fill="black"/>
<path d="M81.2952 257.43H64.9536L75.2845 223.653L53.7773 144.577H70.6825L84.1128 193.98H84.3006L99.0457 144.577H115.2L81.2952 257.43Z" fill="black"/>
<path d="M16.9052 257.43H0V144.577H16.9052V188.771H39.915V144.577H56.8202V257.43H39.915V211.973H16.9052V257.43Z" fill="black"/>
<path d="M921.173 115.377H903.047L928.592 2.52441H945.592L971.325 115.377H952.823L948.503 91.8594H925.493L921.173 115.377ZM936.951 28.5673L929.344 70.2359H944.746L937.139 28.5673H936.951Z" fill="black"/>
<path d="M856.189 117.744C852.526 117.744 847.924 117.113 846.516 115.85V91.5437C847.83 92.3329 849.897 93.1221 852.432 93.1221C855.813 93.1221 857.504 89.334 857.786 80.653L860.697 2.52441H907.28V115.377H890.375V25.7263H875.348L873.188 83.9676C872.249 110.326 864.736 117.744 856.189 117.744Z" fill="black"/>
<path d="M804.489 115.377H786.363L811.909 2.52441H828.908L854.641 115.377H836.14L831.819 91.8594H808.81L804.489 115.377ZM820.268 28.5673L812.66 70.2359H828.063L820.455 28.5673H820.268Z" fill="black"/>
<path d="M772.944 115.377H756.602L766.933 81.6001L745.426 2.52441H762.331L775.761 51.927H775.949L790.694 2.52441H806.848L772.944 115.377Z" fill="black"/>
<path d="M728.905 118.061C711.249 118.061 700.918 103.698 700.918 81.601H718.199C719.138 89.4928 721.768 94.8592 729.375 94.8592C734.822 94.8592 738.955 89.1771 738.955 82.0745C738.955 72.9201 735.01 68.8163 728.999 68.8163H721.016V49.8761H728.624C733.789 49.8761 736.137 43.8783 736.137 36.7757C736.137 29.9888 732.662 23.2018 727.778 23.2018C722.895 23.2018 718.95 28.7261 718.95 35.8287H701.669C702.608 14.9944 712.282 0 727.778 0C742.993 0 753.418 11.9955 753.418 32.1985C753.418 46.4037 747.595 54.6111 741.678 59.0305V59.3462C748.534 61.2402 756.235 68.3428 756.235 85.0734C756.235 105.908 743.557 118.061 728.905 118.061Z" fill="black"/>
<path d="M660.167 115.377H643.262V2.52441H660.167V72.6034H660.355L685.994 2.52441H702.899V115.377H685.994V45.2979H685.806L660.167 115.377Z" fill="black"/>
<path d="M621.337 115.377H587.809V2.52441H620.398C634.392 2.52441 641.717 11.6789 641.717 30.9348C641.717 44.8244 636.834 51.7691 631.293 54.9259V55.2415C638.336 57.2934 644.347 65.1852 644.347 82.0736C644.347 106.065 635.237 115.377 621.337 115.377ZM604.714 48.1389H615.984C620.68 48.1389 624.437 46.2449 624.437 36.9326C624.437 27.6203 620.68 25.7263 615.984 25.7263H604.714V48.1389ZM604.714 92.1751H616.454C623.497 92.1751 627.066 89.334 627.066 78.759C627.066 68.184 623.497 65.5008 616.454 65.5008H604.714V92.1751Z" fill="black"/>
<path d="M547.044 117.903C525.724 117.903 513.797 92.9652 513.797 58.8727C513.797 24.938 525.724 0 547.044 0C568.175 0 580.291 24.938 580.291 58.8727C580.291 92.9652 568.175 117.903 547.044 117.903ZM547.044 94.7014C559.253 94.7014 563.01 78.6021 563.01 58.8727C563.01 39.3011 559.253 23.2018 547.044 23.2018C534.741 23.2018 531.078 39.3011 531.078 58.8727C531.078 78.6021 534.741 94.7014 547.044 94.7014Z" fill="black"/>
<path d="M495.132 115.377H478.227V2.52441H521.992V25.7263H495.132V115.377Z" fill="black"/>
<path d="M445.958 117.903C424.638 117.903 412.711 92.9652 412.711 58.8727C412.711 24.938 424.638 0 445.958 0C467.089 0 479.205 24.938 479.205 58.8727C479.205 92.9652 467.089 117.903 445.958 117.903ZM445.958 94.7014C458.167 94.7014 461.924 78.6021 461.924 58.8727C461.924 39.3011 458.167 23.2018 445.958 23.2018C433.655 23.2018 429.992 39.3011 429.992 58.8727C429.992 78.6021 433.655 94.7014 445.958 94.7014Z" fill="black"/>
<path d="M401.647 115.377H384.742V25.7263H365.207V2.52441H421.088V25.7263H401.647V115.377Z" fill="black"/>
<path d="M338.541 115.377H322.2L332.531 81.6001L311.023 2.52441H327.929L341.359 51.927H341.547L356.292 2.52441H372.446L338.541 115.377Z" fill="black"/>
<path d="M282.772 115.377H265.867V2.52441H298.457C312.45 2.52441 321.185 14.8356 321.185 38.5109C321.185 62.1863 312.45 74.4975 298.457 74.4975H282.772V115.377ZM282.772 51.2956H294.512C300.335 51.2956 303.904 47.9811 303.904 38.5109C303.904 29.0408 300.335 25.7263 294.512 25.7263H282.772V51.2956Z" fill="black"/>
<path d="M269.744 2.52441L242.977 58.2404L271.434 115.377H250.209L229.359 72.6034H224.569V115.377H207.664V2.52441H224.569V49.4016H229.359L251.524 2.52441H269.744Z" fill="black"/>
<path d="M157.9 115.377H139.398V114.43C142.967 103.539 142.216 70.0781 157.337 65.1852V64.8695C147.569 60.9236 143.155 50.5065 143.155 34.8807C143.155 16.414 152.171 2.52441 166.541 2.52441H197.252V115.377H180.347V76.0758H172.364C158.182 76.0758 159.872 106.38 157.9 115.377ZM168.513 54.4523H180.347V25.7263H167.292C163.066 25.7263 160.436 31.724 160.436 39.1423C160.436 48.4546 163.16 54.4523 168.513 54.4523Z" fill="black"/>
<path d="M90.8532 117.744C87.1904 117.744 82.5885 117.113 81.1797 115.85V91.5437C82.4945 92.3329 84.5607 93.1221 87.0965 93.1221C90.4775 93.1221 92.1681 89.334 92.4498 80.653L95.3613 2.52441H141.944V115.377H125.039V25.7263H110.012L107.852 83.9676C106.913 110.326 99.3997 117.744 90.8532 117.744Z" fill="black"/>
<path d="M33.3198 135.896H18.293V92.3329H23.1767C28.53 92.3329 29.9388 84.2833 30.5962 63.9225L32.4745 2.52441H80.3726V92.3329H87.4164V135.896H72.3896V115.535H33.3198V135.896ZM41.7724 92.0172V92.3329H63.4674V25.7263H47.5014L45.623 70.3937C45.1534 81.4422 43.9325 87.5978 41.7724 92.0172Z" fill="black"/>
</svg>

