<svg width="94" height="65" viewBox="0 0 94 65" fill="none" xmlns="http://www.w3.org/2000/svg">
<path d="M94.0031 63.6101H86.9467L80.7303 39.333L78.2437 46.8162V63.6101H72.1953V1.39453H78.2437V27.934L86.8459 1.39453H93.3311L84.2921 28.6301L94.0031 63.6101Z" fill="black"/>
<path d="M58.4625 63.6101H52.4141V1.39453H63.738C69.0807 1.39453 72.3066 7.83362 72.3066 19.1455C72.3066 27.847 70.4248 32.9809 67.4342 34.7212V34.8952C73.449 37.5927 71.2649 61.6957 72.6426 62.7399V63.6101H66.359C65.1829 60.9996 67.367 41.9434 62.2259 41.9434H58.4625V63.6101ZM58.4625 29.1522H62.5619C64.9813 29.1522 66.2582 26.8898 66.2582 21.669C66.2582 16.4481 64.9813 14.1857 62.5619 14.1857H58.4625V29.1522Z" fill="black"/>
<path d="M40.8717 65C33.244 65 28.9766 51.2517 28.9766 32.4565C28.9766 13.7483 33.244 0 40.8717 0C48.4322 0 52.7669 13.7483 52.7669 32.4565C52.7669 51.2517 48.4322 65 40.8717 65ZM40.8717 52.2088C45.24 52.2088 46.5841 43.3333 46.5841 32.4565C46.5841 21.6667 45.24 12.7912 40.8717 12.7912C36.4698 12.7912 35.1594 21.6667 35.1594 32.4565C35.1594 43.3333 36.4698 52.2088 40.8717 52.2088Z" fill="black"/>
<path d="M12.164 63.6101H6.1156L0 1.39453H6.04839L9.13979 43.5967H9.207L12.9368 1.39453H18.6492L22.3791 43.5967H22.4463L25.5377 1.39453H31.5861L25.4705 63.6101H19.4221L15.8266 24.8015H15.7594L12.164 63.6101Z" fill="black"/>
</svg>

