<svg width="450" height="310" viewBox="0 0 450 310" fill="none" xmlns="http://www.w3.org/2000/svg">
<path d="M421.426 310C402.545 310 388.309 270.575 388.309 202.517H406.684C406.684 236.961 413.045 249.826 421.224 249.826C427.988 249.826 431.421 238.621 431.421 223.266C431.421 197.952 424.253 191.312 414.257 178.862C401.737 163.092 390.53 143.173 390.53 90.0535C390.53 25.3146 402.848 0 418.397 0C435.258 0 448.484 36.5194 448.989 96.6934H430.613C429.806 73.8688 425.363 60.174 418.397 60.174C412.944 60.174 409.108 67.6439 409.108 84.6586C409.108 104.578 413.146 111.218 422.334 122.423C435.965 139.023 449.999 154.792 449.999 216.211C449.999 273.065 439.498 310 421.426 310Z" fill="black"/>
<path d="M376.339 303.36H358.165V67.6436H337.164V6.63965H397.239V67.6436H376.339V303.36Z" fill="black"/>
<path d="M313.988 310C291.068 310 279.457 244.431 279.457 156.037C279.457 65.1539 291.674 0 314.492 0C334.181 0 344.681 48.1392 346.398 117.028H327.82C326.507 84.6586 323.276 61.004 313.685 61.004C301.67 61.004 298.035 99.1833 298.035 154.792C298.035 210.816 301.67 248.996 313.685 248.996C323.377 248.996 326.608 225.341 327.82 192.142H346.398C344.782 260.201 333.878 310 313.988 310Z" fill="black"/>
<path d="M284.611 303.36H229.281V6.63965H284.005V67.6436H247.455V120.348H278.957V181.352H247.455V242.356H284.611V303.36Z" fill="black"/>
<path d="M203.081 310C183.291 310 178.344 261.86 178.344 204.591V179.692H194.498V204.591C194.498 232.811 196.114 248.996 202.071 248.996C208.028 248.996 209.643 232.811 209.643 204.591V6.63965H227.817V204.591C227.817 261.86 222.87 310 203.081 310Z" fill="black"/>
<path d="M148.683 310C125.764 310 112.941 244.431 112.941 154.792C112.941 65.5689 125.764 0 148.683 0C171.401 0 184.426 65.5689 184.426 154.792C184.426 244.431 171.401 310 148.683 310ZM148.683 248.996C161.809 248.996 165.848 206.667 165.848 154.792C165.848 103.333 161.809 61.004 148.683 61.004C135.457 61.004 131.519 103.333 131.519 154.792C131.519 206.667 135.457 248.996 148.683 248.996Z" fill="black"/>
<path d="M75.2247 303.36H57.0508V6.63965H91.0764C107.13 6.63965 116.823 37.3491 116.823 91.2982C116.823 132.798 111.169 157.282 102.183 165.582V166.412C120.256 179.277 113.693 294.23 117.833 299.21V303.36H98.9518C95.418 290.91 101.981 200.026 86.5329 200.026H75.2247V303.36ZM75.2247 139.022H87.5426C94.8122 139.022 98.6489 128.233 98.6489 103.333C98.6489 78.4334 94.8122 67.6436 87.5426 67.6436H75.2247V139.022Z" fill="black"/>
<path d="M18.1739 303.36H0V6.63965H35.0353C50.0793 6.63965 59.4692 39.0091 59.4692 101.258C59.4692 163.507 50.0793 195.876 35.0353 195.876H18.1739V303.36ZM18.1739 134.872H30.7947C37.0546 134.872 40.8914 126.158 40.8914 101.258C40.8914 76.3585 37.0546 67.6436 30.7947 67.6436H18.1739V134.872Z" fill="black"/>
</svg>

