<svg width="137" height="65" viewBox="0 0 137 65" fill="none" xmlns="http://www.w3.org/2000/svg">
<path d="M120.809 63.6101H111.969V1.39453H117.672V20.6248H121.126C126.195 20.6248 129.395 29.0652 129.395 41.8564C129.395 55.5177 126.068 63.6101 120.809 63.6101ZM137 63.6101H131.296V1.39453H137V63.6101ZM117.672 33.4159V50.8189H120.65C122.456 50.8189 123.565 47.6864 123.565 41.8564C123.565 36.9836 122.551 33.4159 120.936 33.4159H117.672Z" fill="black"/>
<path d="M106.192 63.6101H100.489V14.1857H93.8984V1.39453H112.751V14.1857H106.192V63.6101Z" fill="black"/>
<path d="M96.6389 1.39453L87.6088 32.1107L97.2093 63.6101H90.0485L83.0145 40.0291H81.3986V63.6101H75.6953V1.39453H81.3986V27.2379H83.0145L90.4921 1.39453H96.6389Z" fill="black"/>
<path d="M75.9023 63.6101H58.5391V1.39453H75.7122V14.1857H64.2423V25.2366H74.128V38.0277H64.2423V50.8189H75.9023V63.6101Z" fill="black"/>
<path d="M47.6539 65C40.4615 65 36.4375 51.2517 36.4375 32.4565C36.4375 13.7483 40.4615 0 47.6539 0C54.783 0 58.8703 13.7483 58.8703 32.4565C58.8703 51.2517 54.783 65 47.6539 65ZM47.6539 52.2088C51.7729 52.2088 53.0403 43.3333 53.0403 32.4565C53.0403 21.6667 51.7729 12.7912 47.6539 12.7912C43.5032 12.7912 42.2675 21.6667 42.2675 32.4565C42.2675 43.3333 43.5032 52.2088 47.6539 52.2088Z" fill="black"/>
<path d="M25.1876 63.6101H19.4844V1.39453H30.479C35.2 1.39453 38.1467 8.18168 38.1467 21.2339C38.1467 34.2861 35.2 41.0732 30.479 41.0732H25.1876V63.6101ZM25.1876 28.2821H29.1482C31.1127 28.2821 32.3167 26.4548 32.3167 21.2339C32.3167 16.013 31.1127 14.1857 29.1482 14.1857H25.1876V28.2821Z" fill="black"/>
<path d="M5.70325 63.6101H0V1.39453H18.8524V63.6101H13.1492V14.1857H5.70325V63.6101Z" fill="black"/>
</svg>

