<svg width="710" height="270" viewBox="0 0 710 270" fill="none" xmlns="http://www.w3.org/2000/svg">
<path d="M660.685 270C630.358 270 611.371 217.952 611.371 135.181C611.371 52.0482 630.358 0 660.685 0C691.012 0 709.999 52.0482 709.999 135.181C709.999 217.952 691.012 270 660.685 270ZM660.685 243.976C684.419 243.976 698.396 202.771 698.396 135.181C698.396 67.5904 684.419 26.0241 660.685 26.0241C636.951 26.0241 622.974 67.5904 622.974 135.181C622.974 202.771 636.951 243.976 660.685 243.976ZM661.476 216.145C643.808 216.145 632.732 182.892 632.732 135.181C632.732 87.8313 643.28 53.8554 660.421 53.8554C676.639 53.8554 685.869 80.241 687.188 115.663H670.179C669.651 103.373 667.805 89.6386 660.817 89.6386C653.565 89.6386 650.137 106.265 650.137 135.181C650.137 163.735 653.565 180.361 660.817 180.361C667.805 180.361 669.651 167.711 670.179 153.976H687.188C686.397 189.759 677.431 216.145 661.476 216.145Z" fill="black"/>
<path d="M613.405 264.216H543.258C543.258 211.445 553.543 189.035 573.321 148.553C583.21 128.312 590.462 111.686 590.462 88.9148C590.462 69.7582 587.034 58.1919 579.914 58.1919C571.343 58.1919 566.201 71.2039 566.201 105.541H544.576C544.576 46.9871 555.916 8.67383 580.573 8.67383C600.219 8.67383 613.405 36.8666 613.405 84.5774C613.405 133.373 598.637 163.734 586.111 188.674C581.76 197.349 577.804 205.662 574.771 213.975V214.698H613.405V264.216Z" fill="black"/>
<path d="M496.968 264.217H473.234V5.7832H518.988C538.635 5.7832 550.897 33.976 550.897 88.1929C550.897 142.41 538.635 170.603 518.988 170.603H496.968V264.217ZM496.968 117.47H513.45C521.625 117.47 526.636 109.88 526.636 88.1929C526.636 66.5061 521.625 58.9157 513.45 58.9157H496.968V117.47Z" fill="black"/>
<path d="M427.935 270C398.003 270 381.258 212.892 381.258 134.819C381.258 57.1084 398.003 0 427.935 0C457.602 0 474.611 57.1084 474.611 134.819C474.611 212.892 457.602 270 427.935 270ZM427.935 216.867C445.076 216.867 450.35 180 450.35 134.819C450.35 90 445.076 53.1325 427.935 53.1325C410.662 53.1325 405.519 90 405.519 134.819C405.519 180 410.662 216.867 427.935 216.867Z" fill="black"/>
<path d="M326.589 264.217H302.855V5.7832H326.589V106.988H358.894V5.7832H382.628V264.217H358.894V160.121H326.589V264.217Z" fill="black"/>
<path d="M267.358 270C242.701 270 224.109 235.663 224.109 176.386H248.107C248.107 206.386 256.414 217.59 267.094 217.59C275.928 217.59 280.412 207.831 280.412 194.458C280.412 172.41 271.05 166.627 257.996 155.783C241.646 142.048 227.01 124.699 227.01 78.4337C227.01 22.0482 243.097 0 263.402 0C285.422 0 302.695 31.8072 303.354 84.2169H279.357C278.302 64.3373 272.5 52.4096 263.402 52.4096C256.282 52.4096 251.272 58.9157 251.272 73.7349C251.272 91.0843 256.546 96.8675 268.545 106.627C286.345 121.084 304.673 134.819 304.673 188.313C304.673 237.831 290.96 270 267.358 270Z" fill="black"/>
<path d="M230.225 264.217H157.969V5.7832H229.434V58.9157H181.703V104.819H222.842V157.952H181.703V211.084H230.225V264.217Z" fill="black"/>
<path d="M133.972 264.217H110.238V58.9157H82.8125V5.7832H161.266V58.9157H133.972V264.217Z" fill="black"/>
<path d="M86.1324 264.217H62.3984V5.7832H86.1324V264.217Z" fill="black"/>
<path d="M65.6639 264.217H0V5.7832H23.7339V211.084H65.6639V264.217Z" fill="black"/>
</svg>

