<svg width="62" height="16" viewBox="0 0 62 16" fill="none" xmlns="http://www.w3.org/2000/svg">
<path d="M4.496 14.192C3.57867 14.192 2.80533 14.0213 2.176 13.68C1.54667 13.3387 1.02933 12.9067 0.624 12.384L1.776 11.264C2.53333 12.2133 3.45067 12.688 4.528 12.688C5.168 12.688 5.66933 12.5333 6.032 12.224C6.40533 11.9147 6.592 11.488 6.592 10.944V10.672C6.592 10.1707 6.432 9.78133 6.112 9.504C5.80267 9.216 5.312 9.072 4.64 9.072H3.088V7.568H4.576C5.19467 7.568 5.648 7.42933 5.936 7.152C6.23467 6.87467 6.384 6.46933 6.384 5.936V5.68C6.384 5.2 6.22933 4.82667 5.92 4.56C5.61067 4.28267 5.136 4.144 4.496 4.144C3.93067 4.144 3.456 4.25067 3.072 4.464C2.69867 4.67733 2.37333 4.96 2.096 5.312L0.944 4.336C1.37067 3.792 1.872 3.376 2.448 3.088C3.024 2.78933 3.744 2.64 4.608 2.64C5.792 2.64 6.69333 2.912 7.312 3.456C7.94133 3.98933 8.256 4.71467 8.256 5.632C8.256 6.02667 8.19733 6.37333 8.08 6.672C7.97333 6.96 7.81867 7.21067 7.616 7.424C7.424 7.62667 7.18933 7.792 6.912 7.92C6.64533 8.048 6.35733 8.13867 6.048 8.192V8.272C6.38933 8.304 6.704 8.37867 6.992 8.496C7.29067 8.61333 7.54667 8.77867 7.76 8.992C7.984 9.19467 8.16 9.45067 8.288 9.76C8.416 10.0587 8.48 10.416 8.48 10.832C8.48 11.3333 8.384 11.792 8.192 12.208C8.01067 12.6133 7.74933 12.9653 7.408 13.264C7.06667 13.552 6.64533 13.7813 6.144 13.952C5.65333 14.112 5.104 14.192 4.496 14.192ZM16.0258 14L15.1778 11.024H11.6258L10.7778 14H8.95375L12.2178 2.832H14.6658L17.9298 14H16.0258ZM13.4658 4.64H13.3377L11.9618 9.536H14.8418L13.4658 4.64ZM18.4195 2.832H20.2115V7.6H21.9395L24.0675 2.832H25.9075L24.0195 7.056C23.8382 7.46133 23.6568 7.74933 23.4755 7.92C23.3048 8.09067 23.1022 8.19733 22.8675 8.24V8.336C23.1342 8.38933 23.3475 8.50133 23.5075 8.672C23.6782 8.84267 23.8542 9.14667 24.0355 9.584L25.2835 12.496H26.2595V14H25.1715C24.7768 14 24.4462 13.8987 24.1795 13.696C23.9128 13.4933 23.6728 13.152 23.4595 12.672L21.9235 9.104H20.2115V14H18.4195V2.832ZM27.2453 14V2.832H31.4213C32.4879 2.832 33.2986 3.13067 33.8533 3.728C34.4186 4.32533 34.7013 5.14667 34.7013 6.192C34.7013 7.23733 34.4186 8.05867 33.8533 8.656C33.2986 9.25333 32.4879 9.552 31.4213 9.552H29.0373V14H27.2453ZM29.0373 8.064H31.1493C32.2586 8.064 32.8133 7.552 32.8133 6.528V5.84C32.8133 4.82667 32.2586 4.32 31.1493 4.32H29.0373V8.064ZM35.159 2.832H36.791V7.12H37.735C38.727 7.12 39.495 7.424 40.039 8.032C40.583 8.62933 40.855 9.472 40.855 10.56C40.855 11.648 40.583 12.496 40.039 13.104C39.495 13.7013 38.727 14 37.735 14H35.159V2.832ZM37.591 12.56C38.0817 12.56 38.4657 12.4373 38.743 12.192C39.0203 11.9467 39.159 11.5627 39.159 11.04V10.08C39.159 9.55733 39.0203 9.17333 38.743 8.928C38.4657 8.68267 38.0817 8.56 37.591 8.56H36.791V12.56H37.591ZM41.879 14V2.832H43.511V14H41.879ZM48.8648 4.336V14H47.0728V4.336H43.5688V2.832H52.3688V4.336H48.8648ZM53.1145 2.832H54.9065V7.12H57.3705C58.3945 7.12 59.1892 7.41867 59.7545 8.016C60.3305 8.61333 60.6185 9.46133 60.6185 10.56C60.6185 11.648 60.3305 12.496 59.7545 13.104C59.1892 13.7013 58.3945 14 57.3705 14H53.1145V2.832ZM57.1625 12.528C57.6532 12.528 58.0372 12.4053 58.3145 12.16C58.5918 11.904 58.7305 11.52 58.7305 11.008V10.112C58.7305 9.6 58.5918 9.22133 58.3145 8.976C58.0372 8.72 57.6532 8.592 57.1625 8.592H54.9065V12.528H57.1625Z" fill="white"/>
</svg>

