<svg width="285" height="95" viewBox="0 0 285 95" fill="none" xmlns="http://www.w3.org/2000/svg">
<path d="M266.717 94.998C254.768 94.998 245.758 82.9166 245.758 62.0603H257.388C257.388 72.6156 261.413 76.558 266.589 76.558C270.871 76.558 273.043 73.1243 273.043 68.4189C273.043 60.6614 268.506 58.6266 262.18 54.8114C254.257 49.9789 247.164 43.8746 247.164 27.5965C247.164 7.75753 254.959 0 264.8 0C275.472 0 283.843 11.1912 284.162 29.6312H272.532C272.021 22.6367 269.209 18.44 264.8 18.44C261.35 18.44 258.921 20.7291 258.921 25.9432C258.921 32.0475 261.477 34.0823 267.292 37.5159C275.919 42.6029 284.801 47.4354 284.801 66.257C284.801 83.6796 278.155 94.998 266.717 94.998Z" fill="black"/>
<path d="M238.18 92.9656H226.678V20.7315H213.387V2.03711H251.408V20.7315H238.18V92.9656Z" fill="black"/>
<path d="M198.721 94.998C184.216 94.998 176.867 74.9047 176.867 47.8169C176.867 19.9661 184.599 0 199.041 0C211.501 0 218.147 14.752 219.233 35.8627H207.476C206.645 25.9432 204.6 18.6944 198.529 18.6944C190.925 18.6944 188.625 30.3943 188.625 47.4354C188.625 64.6037 190.925 76.3036 198.529 76.3036C204.664 76.3036 206.709 69.0548 207.476 58.881H219.233C218.211 79.7373 211.31 94.998 198.721 94.998Z" fill="black"/>
<path d="M180.127 92.9656H145.109V2.03711H179.743V20.7315H156.611V36.8824H176.548V55.5768H156.611V74.2712H180.127V92.9656Z" fill="black"/>
<path d="M128.523 95.0004C115.998 95.0004 112.867 80.2483 112.867 62.6985V55.0681H123.091V62.6985C123.091 71.3462 124.114 76.306 127.884 76.306C131.654 76.306 132.676 71.3462 132.676 62.6985V2.03711H144.178V62.6985C144.178 80.2483 141.047 95.0004 128.523 95.0004Z" fill="black"/>
<path d="M94.1013 94.998C79.5958 94.998 71.4805 74.9047 71.4805 47.4354C71.4805 20.0933 79.5958 0 94.1013 0C108.479 0 116.722 20.0933 116.722 47.4354C116.722 74.9047 108.479 94.998 94.1013 94.998ZM94.1013 76.3036C102.408 76.3036 104.964 63.332 104.964 47.4354C104.964 31.666 102.408 18.6944 94.1013 18.6944C85.7303 18.6944 83.2382 31.666 83.2382 47.4354C83.2382 63.332 85.7303 76.3036 94.1013 76.3036Z" fill="black"/>
<path d="M47.6076 92.9656H36.1055V2.03711H57.64C67.8002 2.03711 73.9346 11.4479 73.9346 27.9803C73.9346 40.6976 70.3562 48.2008 64.669 50.7443V50.9986C76.1072 54.941 71.9537 90.1678 74.5736 91.6939V92.9656H62.6242C60.3877 89.1504 64.5412 61.2996 54.7644 61.2996H47.6076V92.9656ZM47.6076 42.6052H55.4034C60.0043 42.6052 62.4325 39.2987 62.4325 31.6684C62.4325 24.038 60.0043 20.7315 55.4034 20.7315H47.6076V42.6052Z" fill="black"/>
<path d="M11.5021 92.9656H0V2.03711H22.1735C31.6947 2.03711 37.6374 11.9566 37.6374 31.0325C37.6374 50.1084 31.6947 60.0279 22.1735 60.0279H11.5021V92.9656ZM11.5021 41.3335H19.4897C23.4515 41.3335 25.8797 38.6628 25.8797 31.0325C25.8797 23.4021 23.4515 20.7315 19.4897 20.7315H11.5021V41.3335Z" fill="black"/>
</svg>

