<svg width="37" height="17" viewBox="0 0 37 17" fill="none" xmlns="http://www.w3.org/2000/svg">
<path d="M1.8 14.36L1 3.192H2.568L3.144 12.552H3.272L4.536 5.896H6.312L7.576 12.552H7.704L7.88 9.688L8.296 3.192H9.8L9 14.36H6.6L5.464 7.896H5.336L4.2 14.36H1.8Z" fill="white"/>
<path d="M14.0338 14.552C13.3298 14.552 12.7164 14.424 12.1938 14.168C11.6818 13.9013 11.2551 13.5227 10.9137 13.032C10.5831 12.5413 10.3377 11.9387 10.1777 11.224C10.0177 10.5093 9.93775 9.69333 9.93775 8.776C9.93775 7.86933 10.0177 7.05867 10.1777 6.344C10.3377 5.61867 10.5831 5.01067 10.9137 4.52C11.2551 4.02933 11.6818 3.656 12.1938 3.4C12.7164 3.13333 13.3298 3 14.0338 3C14.7378 3 15.3458 3.13333 15.8578 3.4C16.3804 3.656 16.8071 4.02933 17.1378 4.52C17.4791 5.01067 17.7297 5.61867 17.8897 6.344C18.0498 7.05867 18.1298 7.86933 18.1298 8.776C18.1298 9.69333 18.0498 10.5093 17.8897 11.224C17.7297 11.9387 17.4791 12.5413 17.1378 13.032C16.8071 13.5227 16.3804 13.9013 15.8578 14.168C15.3458 14.424 14.7378 14.552 14.0338 14.552ZM14.0338 13.064C14.8338 13.064 15.3991 12.7653 15.7298 12.168C16.0604 11.56 16.2257 10.7387 16.2257 9.704V7.832C16.2257 6.808 16.0604 5.99733 15.7298 5.4C15.3991 4.792 14.8338 4.488 14.0338 4.488C13.2338 4.488 12.6684 4.792 12.3378 5.4C12.0071 5.99733 11.8418 6.808 11.8418 7.832V9.72C11.8418 10.744 12.0071 11.56 12.3378 12.168C12.6684 12.7653 13.2338 13.064 14.0338 13.064Z" fill="white"/>
<path d="M20.9875 14.36H19.2115V3.192H23.3875C24.4542 3.192 25.2648 3.49067 25.8195 4.088C26.3848 4.68533 26.6675 5.50667 26.6675 6.552C26.6675 7.40533 26.4595 8.10933 26.0435 8.664C25.6275 9.21867 25.0302 9.56 24.2515 9.688L26.8275 14.36H24.8435L22.4755 9.848H20.9875V14.36ZM23.1315 8.408C24.2408 8.408 24.7955 7.90133 24.7955 6.888V6.2C24.7955 5.18667 24.2408 4.68 23.1315 4.68H20.9875V8.408H23.1315Z" fill="white"/>
<path d="M30.8853 9.224L29.5413 10.904V14.36H27.7493V3.192H29.5413V8.536H29.6213L30.9813 6.68L33.7173 3.192H35.7812L32.1013 7.896L35.9253 14.36H33.8773L30.8853 9.224Z" fill="white"/>
</svg>

