<svg width="155" height="95" viewBox="0 0 155 95" fill="none" xmlns="http://www.w3.org/2000/svg">
<path d="M154.401 95H142.884V53.9441H142.756C140.132 62.1818 135.526 67.4965 130.791 67.4965C123.048 67.4965 117.93 56.0699 117.93 38V0H129.447V34.014C129.447 42.3846 131.942 47.5664 135.909 47.5664C139.045 47.5664 141.284 43.8461 142.884 39.0629V0H154.401V95Z" fill="black"/>
<path d="M94.572 95H83.0547V0H105.257C114.791 0 120.742 10.3636 120.742 30.2937C120.742 50.2238 114.791 60.5874 105.257 60.5874H94.572V95ZM94.572 41.0559H102.57C106.537 41.0559 108.969 38.2657 108.969 30.2937C108.969 22.3217 106.537 19.5315 102.57 19.5315H94.572V41.0559Z" fill="black"/>
<path d="M83.4661 95H48.4023V0H83.0822V19.5315H59.9196V36.4056H79.883V55.9371H59.9196V75.4685H83.4661V95Z" fill="black"/>
<path d="M10.8774 95H0V0H14.0767L23.4825 60.5874H23.6105L33.0163 0H47.0929V95H36.2155V35.8741H36.0875L27.5775 95H19.5154L11.0054 35.8741H10.8774V95Z" fill="black"/>
</svg>

