<svg width="1078" height="404" viewBox="0 0 1078 404" fill="none" xmlns="http://www.w3.org/2000/svg">
<path d="M839.875 401.462H822.938L846.808 288.05H862.693L886.739 401.462H869.45L865.413 377.828H843.912L839.875 401.462ZM854.619 314.222L847.51 356.097H861.903L854.794 314.222H854.619Z" fill="black"/>
<path d="M820.125 401.462H804.328V311.367H786.074V288.05H838.291V311.367H820.125V401.462Z" fill="black"/>
<path d="M793.65 288.05L768.638 344.042L795.23 401.462H775.396L755.913 358.476H751.437V401.462H735.641V288.05H751.437V335.159H755.913L776.625 288.05H793.65Z" fill="black"/>
<path d="M736.202 401.462H688.109V288.05H735.675V311.367H703.906V331.511H731.287V354.828H703.906V378.145H736.202V401.462Z" fill="black"/>
<path d="M657.958 404C638.036 404 626.891 378.939 626.891 344.677C626.891 310.574 638.036 285.513 657.958 285.513C677.704 285.513 689.025 310.574 689.025 344.677C689.025 378.939 677.704 404 657.958 404ZM657.958 380.683C669.366 380.683 672.877 364.504 672.877 344.677C672.877 325.009 669.366 308.83 657.958 308.83C646.461 308.83 643.038 325.009 643.038 344.677C643.038 364.504 646.461 380.683 657.958 380.683Z" fill="black"/>
<path d="M595.73 401.462H579.934V288.05H610.386C623.463 288.05 631.624 300.422 631.624 324.215C631.624 348.007 623.463 360.38 610.386 360.38H595.73V401.462ZM595.73 337.063H606.7C612.141 337.063 615.476 333.732 615.476 324.215C615.476 314.698 612.141 311.367 606.7 311.367H595.73V337.063Z" fill="black"/>
<path d="M541.773 401.462H525.977V288.05H578.194V401.462H562.397V311.367H541.773V401.462Z" fill="black"/>
<path d="M487.887 404C467.966 404 456.82 378.939 456.82 344.677C456.82 310.574 467.966 285.513 487.887 285.513C507.633 285.513 518.954 310.574 518.954 344.677C518.954 378.939 507.633 404 487.887 404ZM487.887 380.683C499.296 380.683 502.807 364.504 502.807 344.677C502.807 325.009 499.296 308.83 487.887 308.83C476.391 308.83 472.968 325.009 472.968 344.677C472.968 364.504 476.391 380.683 487.887 380.683Z" fill="black"/>
<path d="M439.375 401.462H423.578V288.05H464.474V311.367H439.375V401.462Z" fill="black"/>
<path d="M424.139 401.462H376.047V288.05H423.613V311.367H391.844V331.511H419.225V354.828H391.844V378.145H424.139V401.462Z" fill="black"/>
<path d="M374.315 401.462H299.719V288.05H315.516V378.145H329.118V288.05H344.915V378.145H358.518V288.05H374.315V401.462Z" fill="black"/>
<path d="M256.91 401.462H239.973L263.843 288.05H279.728L303.774 401.462H286.485L282.448 377.828H260.947L256.91 401.462ZM271.654 314.222L264.545 356.097H278.938L271.829 314.222H271.654Z" fill="black"/>
<path d="M226.647 401.462H195.316V288.05H225.769C238.845 288.05 245.691 297.25 245.691 316.601C245.691 330.559 241.127 337.539 235.949 340.711V341.028C242.531 343.09 248.148 351.021 248.148 367.993C248.148 392.103 239.635 401.462 226.647 401.462ZM211.113 333.89H221.644C226.032 333.89 229.543 331.987 229.543 322.629C229.543 313.27 226.032 311.367 221.644 311.367H211.113V333.89ZM211.113 378.145H222.083C228.665 378.145 232 375.29 232 364.662C232 354.035 228.665 351.338 222.083 351.338H211.113V378.145Z" fill="black"/>
<path d="M1042.21 258.705H994.117V145.293H1041.68V168.61H1009.91V188.754H1037.3V212.071H1009.91V235.388H1042.21V258.705Z" fill="black"/>
<path d="M952.445 258.705H936.648V145.293H952.445V215.719H952.621L976.579 145.293H992.376V258.705H976.579V188.278H976.404L952.445 258.705Z" fill="black"/>
<path d="M897.625 258.705H881.828V145.293H897.625V189.706H919.126V145.293H934.923V258.705H919.126V213.023H897.625V258.705Z" fill="black"/>
<path d="M882.397 258.705H834.305V145.293H881.871V168.61H850.101V188.754H877.483V212.071H850.101V235.388H882.397V258.705Z" fill="black"/>
<path d="M784.817 261.084C781.394 261.084 777.094 260.45 775.777 259.181V234.753C777.006 235.547 778.937 236.34 781.306 236.34C784.466 236.34 786.045 232.533 786.309 223.809L789.029 145.293H832.558V258.705H816.761V168.61H802.72L800.701 227.14C799.824 253.629 792.803 261.084 784.817 261.084Z" fill="black"/>
<path d="M759.944 258.705H728.613V145.293H759.066C772.142 145.293 778.987 154.493 778.987 173.844C778.987 187.803 774.424 194.782 769.246 197.954V198.271C775.828 200.333 781.445 208.264 781.445 225.236C781.445 249.346 772.932 258.705 759.944 258.705ZM744.41 191.134H754.941C759.329 191.134 762.84 189.23 762.84 179.872C762.84 170.513 759.329 168.61 754.941 168.61H744.41V191.134ZM744.41 235.388H755.38C761.962 235.388 765.297 232.533 765.297 221.905C765.297 211.278 761.962 208.582 755.38 208.582H744.41V235.388Z" fill="black"/>
<path d="M685.801 258.705H668.863L692.734 145.293H708.619L732.665 258.705H715.376L711.339 235.071H689.838L685.801 258.705ZM700.545 171.465L693.436 213.34H707.829L700.72 171.465H700.545Z" fill="black"/>
<path d="M646.777 258.705H630.98V145.293H661.433C674.509 145.293 682.671 157.665 682.671 181.458C682.671 205.251 674.509 217.623 661.433 217.623H646.777V258.705ZM646.777 194.306H657.747C663.188 194.306 666.523 190.975 666.523 181.458C666.523 171.941 663.188 168.61 657.747 168.61H646.777V194.306Z" fill="black"/>
<path d="M592.816 258.705H577.02V145.293H629.237V258.705H613.44V168.61H592.816V258.705Z" fill="black"/>
<path d="M534.211 258.705H517.273L541.144 145.293H557.029L581.075 258.705H563.786L559.749 235.071H538.248L534.211 258.705ZM548.955 171.465L541.846 213.34H556.239L549.13 171.465H548.955Z" fill="black"/>
<path d="M483.957 258.705H468.16V145.293H483.957V189.706H505.458V145.293H521.255V258.705H505.458V213.023H483.957V258.705Z" fill="black"/>
<path d="M452.85 258.705H404.758V145.293H452.324V168.61H420.555V188.754H447.936V212.071H420.555V235.388H452.85V258.705Z" fill="black"/>
<path d="M388.785 258.705H372.988V168.61H354.734V145.293H406.952V168.61H388.785V258.705Z" fill="black"/>
<path d="M317.008 258.705H301.211V145.293H317.008V215.719H317.183L341.142 145.293H356.938V258.705H341.142V188.278H340.966L317.008 258.705Z" fill="black"/>
<path d="M262.191 258.705H246.395V145.293H262.191V189.706H283.692V145.293H299.489V258.705H283.692V213.023H262.191V258.705Z" fill="black"/>
<path d="M244.648 258.705H228.851V209.692H228.676C225.078 219.526 218.759 225.871 212.265 225.871C201.646 225.871 194.625 212.23 194.625 190.658V145.293H210.422V185.899C210.422 195.892 213.844 202.078 219.286 202.078C223.586 202.078 226.657 197.637 228.851 191.927V145.293H244.648V258.705Z" fill="black"/>
<path d="M166.657 261.243C146.735 261.243 135.59 236.182 135.59 201.92C135.59 167.817 146.735 142.756 166.657 142.756C186.403 142.756 197.724 167.817 197.724 201.92C197.724 236.182 186.403 261.243 166.657 261.243ZM166.657 237.927C178.066 237.927 181.576 221.748 181.576 201.92C181.576 182.252 178.066 166.073 166.657 166.073C155.16 166.073 151.738 182.252 151.738 201.92C151.738 221.748 155.16 237.927 166.657 237.927Z" fill="black"/>
<path d="M125.25 258.705H109.453V168.61H91.1992V145.293H143.416V168.61H125.25V258.705Z" fill="black"/>
<path d="M66.284 258.705H51.0137L60.6673 224.761L40.5703 145.293H56.3671L68.9168 194.94H69.0923L82.8706 145.293H97.9653L66.284 258.705Z" fill="black"/>
<path d="M1078 86.7639H1034.12V65.0332H1078V86.7639Z" fill="black"/>
<path d="M1014.2 115.949H998.403V25.854H980.148V2.53711H1032.37V25.854H1014.2V115.949Z" fill="black"/>
<path d="M942.414 115.949H926.617V2.53711H942.414V72.9635H942.589L966.548 2.53711H982.345V115.949H966.548V45.5226H966.372L942.414 115.949Z" fill="black"/>
<path d="M888.357 115.949H870.805L891.604 58.0534L872.56 2.53711H889.234L900.731 37.1158H900.906L912.491 2.53711H929.165L910.121 57.7362L930.92 115.949H913.368L900.906 79.1496H900.731L888.357 115.949Z" fill="black"/>
<path d="M849.436 115.949H823.195V2.53711H838.992V37.5917H850.313C864.355 37.5917 873.218 52.9776 873.218 76.2945C873.218 101.197 864.004 115.949 849.436 115.949ZM838.992 60.9085V92.6321H848.997C853.999 92.6321 857.071 86.9219 857.071 76.2945C857.071 67.4119 854.262 60.9085 849.787 60.9085H838.992Z" fill="black"/>
<path d="M807.223 115.949H791.426V25.854H773.172V2.53711H825.389V25.854H807.223V115.949Z" fill="black"/>
<path d="M741.856 115.949H724.918L748.789 2.53711H764.673L788.719 115.949H771.431L767.394 92.3149H745.893L741.856 115.949ZM756.599 28.7091L749.491 70.5842H763.883L756.775 28.7091H756.599Z" fill="black"/>
<path d="M681.133 118.328C677.71 118.328 673.41 117.694 672.094 116.425V91.9977C673.322 92.7907 675.253 93.5838 677.623 93.5838C680.782 93.5838 682.362 89.777 682.625 81.053L685.345 2.53711H728.874V115.949H713.078V25.854H699.036L697.018 84.384C696.14 110.873 689.119 118.328 681.133 118.328Z" fill="black"/>
<path d="M677.307 115.949H629.215V2.53711H676.781V25.854H645.012V45.9984H672.393V69.3153H645.012V92.6321H677.307V115.949Z" fill="black"/>
<path d="M579.846 136.569H565.805V92.7907H570.368C575.371 92.7907 576.687 84.7012 577.301 64.2395L579.056 2.53711H623.814V92.7907H630.396V136.569H616.354V116.108H579.846V136.569ZM587.745 92.4735V92.7907H608.017V25.854H593.098L591.343 70.7428C590.904 81.8461 589.763 88.0322 587.745 92.4735Z" fill="black"/>
<path d="M544.651 118.488C524.729 118.488 514.637 93.426 514.637 59.6404C514.637 24.903 525.256 0 545.089 0C562.203 0 571.33 18.3997 572.822 44.7303H556.674C555.533 32.3581 552.725 23.3168 544.387 23.3168C533.944 23.3168 530.785 37.9097 530.785 59.1645C530.785 80.5779 533.944 95.1708 544.387 95.1708C552.812 95.1708 555.621 86.1296 556.674 73.4401H572.822C571.417 99.4535 561.939 118.488 544.651 118.488Z" fill="black"/>
<path d="M457.868 115.949H442.949V2.53711H462.256L475.157 74.8669H475.333L488.233 2.53711H507.541V115.949H492.621V45.364H492.446L480.774 115.949H469.716L458.044 45.364H457.868V115.949Z" fill="black"/>
<path d="M443.51 115.949H395.418V2.53711H442.984V25.854H411.215V45.9984H438.596V69.3153H411.215V92.6321H443.51V115.949Z" fill="black"/>
<path d="M393.668 115.949H377.871V66.936H377.695C374.097 76.7703 367.779 83.115 361.284 83.115C350.665 83.115 343.645 69.4739 343.645 47.9019V2.53711H359.441V43.1433C359.441 53.1362 362.864 59.3223 368.305 59.3223C372.605 59.3223 375.677 54.881 377.871 49.1708V2.53711H393.668V115.949Z" fill="black"/>
<path d="M338.026 115.949H289.934V2.53711H337.499V25.854H305.73V45.9984H333.111V69.3153H305.73V92.6321H338.026V115.949Z" fill="black"/>
<path d="M240.565 136.569H226.523V92.7907H231.087C236.089 92.7907 237.406 84.7012 238.02 64.2395L239.775 2.53711H284.533V92.7907H291.115V136.569H277.073V116.108H240.565V136.569ZM248.463 92.4735V92.7907H268.736V25.854H253.817L252.062 70.7428C251.623 81.8461 250.482 88.0322 248.463 92.4735Z" fill="black"/>
<path d="M233.045 2.53711L214.264 59.1637L234.098 115.949H216.283L202.066 72.9635H197.59V115.949H181.793V72.9635H177.318L163.1 115.949H145.285L165.119 59.1637L146.338 2.53711H162.749L177.318 49.6466H181.793V2.53711H197.59V49.6466H202.066L216.634 2.53711H233.045Z" fill="black"/>
<path d="M151.639 115.949H103.547V2.53711H151.113V25.854H119.344V45.9984H146.725V69.3153H119.344V92.6321H151.639V115.949Z" fill="black"/>
<path d="M69.7538 115.949H53.957V2.53711H84.4097C97.4859 2.53711 105.648 14.9093 105.648 38.702C105.648 62.4947 97.4859 74.8669 84.4097 74.8669H69.7538V115.949ZM69.7538 51.5501H80.7238C86.1649 51.5501 89.4998 48.2191 89.4998 38.702C89.4998 29.1849 86.1649 25.854 80.7238 25.854H69.7538V51.5501Z" fill="black"/>
<path d="M15.7968 115.949H0V2.53711H52.2171V115.949H36.4204V25.854H15.7968V115.949Z" fill="black"/>
</svg>

