<svg width="62" height="17" viewBox="0 0 62 17" fill="none" xmlns="http://www.w3.org/2000/svg">
<path d="M5.192 14.552C3.77333 14.552 2.71733 14.0507 2.024 13.048C1.34133 12.0453 1 10.6213 1 8.776C1 6.93067 1.34133 5.50667 2.024 4.504C2.71733 3.50133 3.77333 3 5.192 3C5.736 3 6.20533 3.07467 6.6 3.224C7.00533 3.36267 7.352 3.56 7.64 3.816C7.928 4.06133 8.168 4.35467 8.36 4.696C8.56267 5.02667 8.728 5.384 8.856 5.768L7.24 6.312C7.15467 6.056 7.05867 5.816 6.952 5.592C6.84533 5.368 6.712 5.176 6.552 5.016C6.392 4.856 6.2 4.728 5.976 4.632C5.76267 4.536 5.496 4.488 5.176 4.488C4.38667 4.488 3.81067 4.792 3.448 5.4C3.08533 5.99733 2.904 6.808 2.904 7.832V9.72C2.904 10.744 3.08533 11.56 3.448 12.168C3.81067 12.7653 4.38667 13.064 5.176 13.064C5.496 13.064 5.76267 13.016 5.976 12.92C6.2 12.824 6.392 12.696 6.552 12.536C6.712 12.376 6.84533 12.184 6.952 11.96C7.05867 11.736 7.15467 11.496 7.24 11.24L8.856 11.784C8.728 12.168 8.56267 12.5307 8.36 12.872C8.168 13.2027 7.928 13.496 7.64 13.752C7.352 13.9973 7.00533 14.1947 6.6 14.344C6.20533 14.4827 5.736 14.552 5.192 14.552Z" fill="white"/>
<path d="M13.5057 14.552C12.8017 14.552 12.1884 14.424 11.6657 14.168C11.1537 13.9013 10.7271 13.5227 10.3857 13.032C10.0551 12.5413 9.80975 11.9387 9.64975 11.224C9.48975 10.5093 9.40975 9.69333 9.40975 8.776C9.40975 7.86933 9.48975 7.05867 9.64975 6.344C9.80975 5.61867 10.0551 5.01067 10.3857 4.52C10.7271 4.02933 11.1537 3.656 11.6657 3.4C12.1884 3.13333 12.8017 3 13.5057 3C14.2097 3 14.8177 3.13333 15.3298 3.4C15.8524 3.656 16.2791 4.02933 16.6097 4.52C16.9511 5.01067 17.2017 5.61867 17.3617 6.344C17.5218 7.05867 17.6018 7.86933 17.6018 8.776C17.6018 9.69333 17.5218 10.5093 17.3617 11.224C17.2017 11.9387 16.9511 12.5413 16.6097 13.032C16.2791 13.5227 15.8524 13.9013 15.3298 14.168C14.8177 14.424 14.2097 14.552 13.5057 14.552ZM13.5057 13.064C14.3057 13.064 14.8711 12.7653 15.2017 12.168C15.5324 11.56 15.6978 10.7387 15.6978 9.704V7.832C15.6978 6.808 15.5324 5.99733 15.2017 5.4C14.8711 4.792 14.3057 4.488 13.5057 4.488C12.7057 4.488 12.1404 4.792 11.8097 5.4C11.4791 5.99733 11.3138 6.808 11.3138 7.832V9.72C11.3138 10.744 11.4791 11.56 11.8097 12.168C12.1404 12.7653 12.7057 13.064 13.5057 13.064Z" fill="white"/>
<path d="M20.2035 5.768H20.0595V14.36H18.4915V3.192H20.7955L24.0755 11.784H24.2195V3.192H25.7875V14.36H23.4835L20.2035 5.768Z" fill="white"/>
<path d="M31.6693 4.696V14.36H29.8773V4.696H26.3733V3.192H35.1733V4.696H31.6693Z" fill="white"/>
<path d="M41.999 14.36L41.151 11.384H37.599L36.751 14.36H34.927L38.191 3.192H40.639L43.903 14.36H41.999ZM39.439 5H39.311L37.935 9.896H40.815L39.439 5Z" fill="white"/>
<path d="M48.3608 14.552C46.9421 14.552 45.8861 14.0507 45.1927 13.048C44.5101 12.0453 44.1688 10.6213 44.1688 8.776C44.1688 6.93067 44.5101 5.50667 45.1927 4.504C45.8861 3.50133 46.9421 3 48.3608 3C48.9048 3 49.3741 3.07467 49.7687 3.224C50.1741 3.36267 50.5208 3.56 50.8088 3.816C51.0967 4.06133 51.3368 4.35467 51.5288 4.696C51.7314 5.02667 51.8967 5.384 52.0247 5.768L50.4088 6.312C50.3234 6.056 50.2274 5.816 50.1208 5.592C50.0141 5.368 49.8808 5.176 49.7208 5.016C49.5608 4.856 49.3688 4.728 49.1448 4.632C48.9314 4.536 48.6647 4.488 48.3447 4.488C47.5554 4.488 46.9794 4.792 46.6168 5.4C46.2541 5.99733 46.0728 6.808 46.0728 7.832V9.72C46.0728 10.744 46.2541 11.56 46.6168 12.168C46.9794 12.7653 47.5554 13.064 48.3447 13.064C48.6647 13.064 48.9314 13.016 49.1448 12.92C49.3688 12.824 49.5608 12.696 49.7208 12.536C49.8808 12.376 50.0141 12.184 50.1208 11.96C50.2274 11.736 50.3234 11.496 50.4088 11.24L52.0247 11.784C51.8967 12.168 51.7314 12.5307 51.5288 12.872C51.3368 13.2027 51.0967 13.496 50.8088 13.752C50.5208 13.9973 50.1741 14.1947 49.7687 14.344C49.3741 14.4827 48.9048 14.552 48.3608 14.552Z" fill="white"/>
<path d="M57.5705 4.696V14.36H55.7785V4.696H52.2745V3.192H61.0745V4.696H57.5705Z" fill="white"/>
</svg>

